<svg id="Layer_1" data-name="Layer 1" xmlns="http://www.w3.org/2000/svg" viewBox="0 0 612 792"><defs><style>.cls-1{fill:none;stroke:#000;stroke-linecap:round;stroke-linejoin:round;stroke-width:3px;}</style></defs><title>drawingArtboard 9</title><path class="cls-1" d="M318.44,771.834c17.953-14.5,1.837-70.78,2.7-88.034"/><path class="cls-1" d="M321.14,681.1c2.286-7.316-.166-14.906,1.661-22.216"/><path class="cls-1" d="M322.8,657.432q.207-2.181.415-4.361"/><path class="cls-1" d="M323.216,647.465q.171-6.972.83-13.911"/><path class="cls-1" d="M324.046,632.1a130.958,130.958,0,0,1,1.246-14.741"/><path class="cls-1" d="M325.292,615.906v-1.868"/><path class="cls-1" d="M325.292,612.169c.587-5.868-1.014-14.19.831-19.725"/><path class="cls-1" d="M326.123,589.745a87.54,87.54,0,0,1,.83-13.911"/><path class="cls-1" d="M326.953,574.381v-8.928"/><path class="cls-1" d="M326.953,564a99.121,99.121,0,0,1,.415-13.5"/><path class="cls-1" d="M327.368,547.8c1.534-50.09,6.015-201.18-55.228-207.627"/><path class="cls-1" d="M83.2,118.017c-25.432,36.193-30.842,92.966-22.58,135.572,11.562,59.618,43.9,67.992,92.135,88.665"/><path class="cls-1" d="M155.453,342.254h5.606"/><path class="cls-1" d="M167.911,342.669l1.869.415"/><path class="cls-1" d="M171.648,343.084h2.284"/><path class="cls-1" d="M177.462,343.084l3.945-.415"/><path class="cls-1" d="M183.691,342.669a25.805,25.805,0,0,0,11.834-1.453"/><path class="cls-1" d="M197.186,633.139c5.314-2.656,31.894-6.525,34.875-12.061,6.6-12.258-15.695-9.611-14.446-8.915-1.7-.945-46.105,26.228-30.449-4.532,3.786-7.44,23.946-10.14,30.76-14.6-11.968-15.7-81.3,14.5-104.829,23.91"/><path class="cls-1" d="M112.682,615.076c5.445-15.148,22.087-17.347,28.761-31-27.286-9.775-72.662,68.531-74.819,88.5-1.935,17.92,7.818,34.062,13.176,50.491,8.026,24.609,2.189,23.073,3.532,45.357a162.843,162.843,0,0,1,20.007-4.069"/><path class="cls-1" d="M39.39,355.75c-10.3,7.4-18.81,26.144-19.309,38.618"/><path class="cls-1" d="M20.081,397.9c2.066,28.929,10.03,55.053,14.118,83.674"/><path class="cls-1" d="M34.2,483.025c13.037,26.075,8.248,77.422,12.043,106.513"/><path class="cls-1" d="M46.242,590.991l.415,4.775"/><path class="cls-1" d="M46.657,597.22l.415,2.7"/><path class="cls-1" d="M47.072,601.372q.5,7.383,1.246,14.742"/><path class="cls-1" d="M48.318,619.643c-.353,8.3.536,17.753-.831,25.954"/><path class="cls-1" d="M47.487,653.694c0,13.638.263,27.267,0,40.9"/><path class="cls-1" d="M47.487,698.957v2.7"/><path class="cls-1" d="M47.487,704.355q.039,10.077-.415,20.14"/><path class="cls-1" d="M47.072,729.27A316.865,316.865,0,0,1,45,778.478"/><path class="cls-1" d="M45.411,781.177l.623,1.661"/><path class="cls-1" d="M316.779,120.716c41.282,53.762,47.917,122.618.831,176.068"/><path class="cls-1" d="M231.86,572.72h1.453"/><path class="cls-1" d="M235.182,572.72l7.267-.831"/><path class="cls-1" d="M252.207,564.415l-.415-.623"/><path class="cls-1" d="M251.792,562.338q-.416-2.8-.83-5.606"/><path class="cls-1" d="M250.962,552.372c-.118-10.574-8.134-27.627-9.966-38.826"/><path class="cls-1" d="M241,510.432q.414-3.635.83-7.267"/><path class="cls-1" d="M241.826,500.881V488.216"/><path class="cls-1" d="M241.826,485.932a47.768,47.768,0,0,0-2.907-14.742"/><path class="cls-1" d="M237.674,469.322l-1.246-1.869"/><path class="cls-1" d="M215.25,468.491l-2.284,1.246"/><path class="cls-1" d="M203.623,475.135l-2.907,4.36"/><path class="cls-1" d="M199.47,480.949l-3.322,4.775"/><path class="cls-1" d="M194.9,487.177l-4.567,6.852"/><path class="cls-1" d="M188.674,495.483a20.855,20.855,0,0,1-13.081,2.491"/><path class="cls-1" d="M172.063,497.974l-1.453.415"/><path class="cls-1" d="M169.157,498.389l-5.606,2.492"/><path class="cls-1" d="M161.682,501.711a32.709,32.709,0,0,1-20.14-14.118"/><path class="cls-1" d="M132.614,487.593l-2.491,3.114"/><path class="cls-1" d="M130.123,497.144l-.831,3.944"/><path class="cls-1" d="M129.292,502.542q-.829,1.973-1.661,3.945"/><path class="cls-1" d="M127.424,506.694c-10.723,10.943-16.222-1.019-8.1,18.479"/><path class="cls-1" d="M119.742,526.627l2.076,5.606"/><path class="cls-1" d="M121.818,536.593l-.415.623"/><path class="cls-1" d="M120.572,539.5l-.83,1.454"/><path class="cls-1" d="M119.534,541.16l-1.454,1.869"/><path class="cls-1" d="M116.419,544.9l-.415.623"/><path class="cls-1" d="M115.174,547.8c1.469,10.866,19.756,5.561,25.538,4.983"/><path class="cls-1" d="M142.58,552.788c2.872,1.192,5.77,2.341,7.89,4.775"/><path class="cls-1" d="M151.716,559.432c2.151,5.99,3.737,11.056,7.682,15.987"/><path class="cls-1" d="M209.229,472.021c12.047,2.677,11.162,44.686,15.987,57.305"/><path class="cls-1" d="M224.8,532.855q-.208.934-.416,1.869"/><path class="cls-1" d="M224.385,537.838a26.133,26.133,0,0,0,1.246,13.911"/><path class="cls-1" d="M226.046,553.2q3.573,4.64,7.06,9.343"/><path class="cls-1" d="M233.106,564a10.457,10.457,0,0,1-1.246,8.1"/><path class="cls-1" d="M231.86,572.3l-.415,1.868"/><path class="cls-1" d="M211.1,720.55c0-35.435,44.827-17.261,34.867-46.917-9.46,4.336-25.751,13.38-36.943,10.582"/><path class="cls-1" d="M102.508,758.338c-2.7,32.235,61.163,26.061,79.106,27.407"/><path class="cls-1" d="M226.046,574.381h-1.453"/><path class="cls-1" d="M221.894,574.8c-2.908.917-5.739,2.254-8.928,1.661"/><path class="cls-1" d="M194.487,576.457l-1.868.415"/><path class="cls-1" d="M156.284,576.457l-.623.415"/><path class="cls-1" d="M148.809,578.118l-1.453.415"/><path class="cls-1" d="M144.657,578.949q-.312.207-.623.415"/><path class="cls-1" d="M137.182,581.44l-.623.415"/><path class="cls-1" d="M133.86,582.686l-4.36,2.076"/><path class="cls-1" d="M127.216,586.008l-.623.415"/><path class="cls-1" d="M103.131,600.127l-.623.415"/><path class="cls-1" d="M98.564,600.957l-.623.415"/><path class="cls-1" d="M96.487,601.372l-.623.416"/><path class="cls-1" d="M93.165,601.788l-2.284.415"/><path class="cls-1" d="M131.784,486.347l-3.115.415"/><path class="cls-1" d="M125.555,486.762l-6.436.415"/><path class="cls-1" d="M115.589,487.177h-1.453"/><path class="cls-1" d="M112.267,487.593h-1.453"/><path class="cls-1" d="M108.114,487.593l-6.436.415"/><path class="cls-1" d="M93.581,488.423l-6.852.416"/><path class="cls-1" d="M76.14,489.254l-3.53.415"/><path class="cls-1" d="M66.589,490.084l-3.53.416"/><path class="cls-1" d="M59.114,490.915l-1.868.415"/><path class="cls-1" d="M55.792,491.33l-1.038.415"/><path class="cls-1" d="M233.106,727.4c8.67-2.71,18.767-7.475,27.852-7.475-1.251-4.375-3.494-8.126-5.069-12.4-5.237,2.411-40.742,8.417-44.169,11.358"/><path class="cls-1" d="M222.1,574.173c-6.549-5.093-12.825-11.617-20.348-15.157"/><path class="cls-1" d="M199.885,558.6c-16.31-10.729-23.382-.527-26.161,11.42"/><path class="cls-1" d="M173.309,573.55,172.894,575"/><path class="cls-1" d="M196.563,633.347c5.442,12.244,9.956,22.908,12.458,35.919"/><path class="cls-1" d="M209.021,670.72l.415,1.038"/><path class="cls-1" d="M209.436,674.457a13.464,13.464,0,0,1-.83,7.682"/><path class="cls-1" d="M149.64,665.321c8.672,5.753,15.815,2.643,22.12,11.23,4.768,6.494,4.944,48.892,1.549,53.135"/><path class="cls-1" d="M148.809,667.4c-8.769,2.285,4.579,3.322-10.173,3.322"/><path class="cls-1" d="M137.182,670.72c-17.232.689-8.4,61.872-1.661,61.872"/><path class="cls-1" d="M307.644,306.75c-12.333,11.628-29.878,20.535-41.318,31.974"/><path class="cls-1" d="M210.163,403.919c-21.914,7.475-18.388,11.043-9.239,32.39"/><path class="cls-1" d="M232.9,727.817c-15.1,6.821-21.594,11.859-33.522,22.123,3.275,10.742,34.27,16.121,14.213,33.313"/><path class="cls-1" d="M212.343,783.669a30.4,30.4,0,0,1-11,2.491"/><path class="cls-1" d="M194.487,786.16H192.2"/><path class="cls-1" d="M184.106,786.575q-9.538.663-19.1.623"/><path class="cls-1" d="M201.962,473.889l-3.53,1.246"/><path class="cls-1" d="M196.563,475.55l-.622.416"/><path class="cls-1" d="M192.826,476.8l-5.19,1.661"/><path class="cls-1" d="M185.767,478.872l-3.945,1.246"/><path class="cls-1" d="M177.462,480.533l-1.869.416"/><path class="cls-1" d="M174.14,480.949l-1.038.415"/><path class="cls-1" d="M171.233,481.364l-9.343,1.661"/><path class="cls-1" d="M160.436,483.025l-6.851,1.246"/><path class="cls-1" d="M152.131,484.271l-4.36.83"/><path class="cls-1" d="M146.318,485.1l-1.869.415"/><path class="cls-1" d="M143,485.516l-2.077.623"/><path class="cls-1" d="M258.021,449.389c-.328,1.062,10.946,8.53,12.042,10.174"/><path class="cls-1" d="M273.385,462.262c2.23,1.644,3.16,4.21,4.568,6.437"/><path class="cls-1" d="M278.368,470.567q-8.2,15.9-24.084-5.4"/><path class="cls-1" d="M292.9,777.648c-26.41.825-52.8,6.021-79.106,6.021"/><path class="cls-1" d="M207.775,403.089l1.869.207"/><path class="cls-1" d="M213.174,404.542a164.9,164.9,0,0,1,26.783,19.932"/><path class="cls-1" d="M242.864,426.758l1.869.831"/><path class="cls-1" d="M118.911,786.575l30.314.416"/><path class="cls-1" d="M257.813,450.635c-8.953,14.176-7.382,17.406-22.008,15.78"/><path class="cls-1" d="M234.352,340.178l-3.945.415"/><path class="cls-1" d="M222.724,340.593a54.076,54.076,0,0,0-12.25,0"/><path class="cls-1" d="M195.318,340.593c-4.8-.213-25.738-2.643-28.445,1.869"/><path class="cls-1" d="M143.619,652.241c2.84,4.261,20.2,10.94,23.669,7.059"/><path class="cls-1" d="M60.36,348.483a36.719,36.719,0,0,1-20.555,6.851"/><path class="cls-1" d="M144.657,651.618c6.04-.805,30.272,6.479,22.839,7.267"/><path class="cls-1" d="M245.356,428.419q20.865,5.282,14.949,16.818"/><path class="cls-1" d="M201.339,436.724c3.5,6.124,8.672,10.666,14.119,14.949"/><path class="cls-1" d="M377.614,301.559a21.81,21.81,0,0,1,8.513,15.364"/><path class="cls-1" d="M91.92,679.44q-.269,7.717-1.246,15.364"/><path class="cls-1" d="M105.208,707.262c2.845,2.1,9.587,8.635,4.152,12.665"/><path class="cls-1" d="M81.953,346.406l-13.7,1.246"/><path class="cls-1" d="M129.292,71.924l-4.36,1.245"/><path class="cls-1" d="M123.064,73.585,120.78,74.83"/><path class="cls-1" d="M247.64,338.932l-.623.415"/><path class="cls-1" d="M257.606,452.089q4.872,7,12.25,7.682"/><path class="cls-1" d="M215.873,452.089l11.627,8.305"/><path class="cls-1" d="M304.529,776.609l-10.8.831"/><path class="cls-1" d="M136.767,344.33h-10.8"/><path class="cls-1" d="M108.114,344.745l-9.966.208"/><path class="cls-1" d="M160.021,787.406h-9.966"/><path class="cls-1" d="M250.754,436.309l9.551,7.89"/><path class="cls-1" d="M110.191,344.33h14.534"/><path class="cls-1" d="M172.479,730.1l-7.89.83"/><path class="cls-1" d="M91.5,345.576l-7.89.415"/><path class="cls-1" d="M169.987,576.457l-1.453.831"/><path class="cls-1" d="M166.665,577.288l-1.868-.416"/><path class="cls-1" d="M315.949,298.445,308.89,305.5"/><path class="cls-1" d="M108.114,786.575l-7.059.416"/><path class="cls-1" d="M314.5,774.118c-2.78,1.227-5.79,1.483-8.721,2.076"/><path class="cls-1" d="M386.127,317.754l.623,6.644"/><path class="cls-1" d="M235.6,12.542l5.4,6.229"/><path class="cls-1" d="M244.318,429.457l5.606,6.021"/><path class="cls-1" d="M185.767,648.3l5.813,3.322"/><path class="cls-1" d="M336.919,350.767q2.082,5.305,5.4,2.284"/><path class="cls-1" d="M64.928,787.821h-8.3"/><path class="cls-1" d="M118.5,77.737l.415.623"/><path class="cls-1" d="M121.818,81.059l.623.416"/><path class="cls-1" d="M108.945,786.783l9.135-.208"/><path class="cls-1" d="M313.457,113.657q-3.573,3.407,2.907,6.644"/><path class="cls-1" d="M78.216,788.236H73.233"/><path class="cls-1" d="M144.241,666.982a4.515,4.515,0,0,0-3.737,3.53"/><path class="cls-1" d="M94,702.694l2.076,1.661"/><path class="cls-1" d="M99.809,787.406l-4.567.208"/><path class="cls-1" d="M126.8,81.059l-3.945-2.284"/><path class="cls-1" d="M182.03,750.864a9.465,9.465,0,0,0-5.606,1.038"/><path class="cls-1" d="M326.538,334.779q.831,2.077,1.661,4.153"/><path class="cls-1" d="M270.894,339.762l-4.153-.207"/><path class="cls-1" d="M104.792,723.042l-.415,4.152"/><path class="cls-1" d="M93.165,787.821H89.013"/><path class="cls-1" d="M93.165,670.72l-.415,4.152"/><path class="cls-1" d="M96.487,345.161l-3.737.415"/><path class="cls-1" d="M148.809,732.592h-3.737"/><path class="cls-1" d="M195.318,732.177q.207,1.662.415,3.322"/><path class="cls-1" d="M373.254,299.275l3.53,1.869"/><path class="cls-1" d="M187.843,399.144l1.869,3.322"/><path class="cls-1" d="M150.47,441.084l-2.076,3.322"/><path class="cls-1" d="M305.775,98.5q2.675,1.689,1.246,3.322"/><path class="cls-1" d="M349.792,347.237l-1.453,1.41v.666"/><path class="cls-1" d="M241.826,20.017l2.907,2.907"/><path class="cls-1" d="M232.275,9.22l2.492,2.907"/><path class="cls-1" d="M65.343,348.067l-3.737.416"/><path class="cls-1" d="M318.025,772.249l-2.7,1.454"/><path class="cls-1" d="M183.483,633.347v2.491"/><path class="cls-1" d="M342.733,320.245q.207,1.247.415,2.492"/><path class="cls-1" d="M147.979,445.652q-.209,1.247-.416,2.492"/><path class="cls-1" d="M199.885,682.762q-.207,1.246-.415,2.492"/><path class="cls-1" d="M318.233,107.428l-1.246,2.284"/><path class="cls-1" d="M195.733,737.16v2.492"/><path class="cls-1" d="M349.792,358.034l-2.491-.416"/><path class="cls-1" d="M327.991,320.245c.957-.085,1.693.16,1.869,1.246"/><path class="cls-1" d="M122.441,78.36l-2.284-1.246"/><path class="cls-1" d="M192.826,652.448l2.076,2.492"/><path class="cls-1" d="M183.691,643.313c1.043.608,1.093.807.415,1.661"/><path class="cls-1" d="M147.356,666.982l-2.284-.415"/><path class="cls-1" d="M379.69,346.406q-.829,1.039-1.661,2.077"/><path class="cls-1" d="M227.915,460.809l1.869,1.869"/><path class="cls-1" d="M97.11,704.77c.4.75.654,1.718,1.869,1.246"/><path class="cls-1" d="M121.818,434.856l-2.077-1.246"/><path class="cls-1" d="M190.335,435.271v2.076"/><path class="cls-1" d="M126.8,437.762l2.076,1.661"/><path class="cls-1" d="M189.5,439.423V441.5"/><path class="cls-1" d="M104.377,707.262l-2.076-.415"/><path class="cls-1" d="M90.258,696.05v2.076"/><path class="cls-1" d="M259.474,445.652q-.414,1.038-.83,2.076"/><path class="cls-1" d="M327.368,318.169v3.322"/><path class="cls-1" d="M148.394,451.881v2.076"/><path class="cls-1" d="M146.941,625.042l-1.869,1.246"/><path class="cls-1" d="M68.25,787.821H66.174"/><path class="cls-1" d="M97.318,655.978l-1.661.831"/><path class="cls-1" d="M187.013,711.83l-.416,2.076"/><path class="cls-1" d="M200.716,678.194v2.077"/><path class="cls-1" d="M304.114,95.178l1.246,2.076"/><path class="cls-1" d="M334.428,328.966l.83,2.076"/><path class="cls-1" d="M108.114,424.059l2.077,2.076"/><path class="cls-1" d="M246.394,24.585l1.661,2.076"/><path class="cls-1" d="M328.2,315.262l-.831,1.661"/><path class="cls-1" d="M133.03,69.432l-.416,1.869"/><path class="cls-1" d="M250.754,462.678l1.661,1.453"/><path class="cls-1" d="M229.784,6.729l1.661,1.661"/><path class="cls-1" d="M94.411,659.3v1.869"/><path class="cls-1" d="M138.636,732.592H140.5"/><path class="cls-1" d="M334.012,348.483q.831.829,1.661,1.661"/><path class="cls-1" d="M122.648,435.271l1.661,1.246"/><path class="cls-1" d="M127.008,81.682l-1.868.208"/><path class="cls-1" d="M249.3,27.907l1.245,1.661"/><path class="cls-1" d="M106.038,642.9v1.661"/><path class="cls-1" d="M231.237,461.432v1.661"/><path class="cls-1" d="M333.39,307.788l.622,1.661"/><path class="cls-1" d="M174.14,751.9l-1.661.207"/><path class="cls-1" d="M140.919,67.356,139.258,68.6"/><path class="cls-1" d="M184.106,785.953l-1.661-.208"/><path class="cls-1" d="M94,666.152l-.208,1.661"/><path class="cls-1" d="M153.792,433.61v1.661"/><path class="cls-1" d="M114.758,429.872l1.661,1.246"/><path class="cls-1" d="M332.351,325.229l.831,1.661"/><path class="cls-1" d="M336.089,331.873q-.1.829-.208,1.661"/><path class="cls-1" d="M234.559,573.135l-1.038.831"/><path class="cls-1" d="M270.479,53.237l1.245,1.246"/><path class="cls-1" d="M196.356,654.94l.415,1.453"/><path class="cls-1" d="M22.987,423.228l-.623-1.038"/><path class="cls-1" d="M101.055,652.864l-1.246.623"/><path class="cls-1" d="M341.9,318.169l.416,1.246"/><path class="cls-1" d="M133.03,627.118l-1.246.415"/><path class="cls-1" d="M195.318,741.313l-.416,1.246"/><path class="cls-1" d="M343.563,324.4q.209.622.416,1.246"/><path class="cls-1" d="M329.029,340.178l.416,1.245"/><path class="cls-1" d="M381.351,344.33l-.83,1.246"/><path class="cls-1" d="M140.089,380.873l-1.246-.416"/><path class="cls-1" d="M140.919,381.288l1.246.83"/><path class="cls-1" d="M144.241,382.949,143,382.534"/><path class="cls-1" d="M242.449,426.966l.623,1.245"/><path class="cls-1" d="M152.131,439.008l-1.245,1.246"/><path class="cls-1" d="M184.106,450.22l-.831,1.246"/><path class="cls-1" d="M260.1,41.2l.831,1.246"/><path class="cls-1" d="M197.809,786.368l-.415,1.038"/><path class="cls-1" d="M359.758,354.712l-.83.83"/><path class="cls-1" d="M183.9,636.046l.208,1.038"/><path class="cls-1" d="M230.614,574.173l2.077.208"/><path class="cls-1" d="M95.449,655.563v.83"/><path class="cls-1" d="M125.14,436.932l.83.415"/><path class="cls-1" d="M117.25,431.533l.83.416"/><path class="cls-1" d="M377.2,349.313l-.831.831"/><path class="cls-1" d="M332.351,342.254l.831.83"/><path class="cls-1" d="M331.521,340.593l.415.83"/><path class="cls-1" d="M326.123,326.89l-.416.83"/><path class="cls-1" d="M357.682,320.245l-1.246,1.039"/><path class="cls-1" d="M329.445,316.923l.415.831"/><path class="cls-1" d="M84.86,116.356l-.83.83"/><path class="cls-1" d="M128.047,86.458l-.831.83"/><path class="cls-1" d="M226.877,3.407l.83.83"/><path class="cls-1" d="M169.572,454.372l-.831.416"/><path class="cls-1" d="M363.08,331.042l-.415.415"/><path class="cls-1" d="M112.267,630.025l-.415.415"/><path class="cls-1" d="M192.411,725.533l-.415.415"/><path class="cls-1" d="M188.674,703.109l-.416.416"/><path class="cls-1" d="M145.487,63.619l-.415.415"/><path class="cls-1" d="M138.843,758.753l-.415.416"/><path class="cls-1" d="M163.343,410.771l-.415.415"/><path class="cls-1" d="M371.8,353.466l-.416.415"/><path class="cls-1" d="M253.453,464.754l-.623-.208"/><path class="cls-1" d="M46.449,783.046l.208.623"/><path class="cls-1" d="M363.5,336.856l.416.415"/></svg>