<svg id="Layer_1" data-name="Layer 1" xmlns="http://www.w3.org/2000/svg" viewBox="0 0 612 792"><defs><style>.cls-1{fill:none;stroke:#000;stroke-linecap:round;stroke-linejoin:round;stroke-width:3px;}</style></defs><title>drawingArtboard 2</title><path class="cls-1" d="M370.385,771.667l.415-.622"/><path class="cls-1" d="M373.288,768.765l13.89-8.293"/><path class="cls-1" d="M387.386,760.472c4.65-2.842,17.408-9.731,15.757-17.208"/><path class="cls-1" d="M403.143,741.812c-.893-2.935-1.743-5.893-4.354-7.878"/><path class="cls-1" d="M396.508,731.861l-.622-.415"/><path class="cls-1" d="M391.947,728.958l-7.671-4.561"/><path class="cls-1" d="M384.069,724.19l-1.452-1.037"/><path class="cls-1" d="M380.337,720.665c-3.887-3.707,3.117-55.117,5.337-55.4,2.593,11.743,6.362,2.567,6.688,22.437"/><path class="cls-1" d="M392.154,715.9q8.052,1.381,16.172,2.28"/><path class="cls-1" d="M410.192,718.177l2.695.415"/><path class="cls-1" d="M414.338,718.592l1.866.414"/><path class="cls-1" d="M418.07,719.006l4.769.415"/><path class="cls-1" d="M425.534,719.421l1.036.415"/><path class="cls-1" d="M428.851,719.836l10.574,1.244"/><path class="cls-1" d="M440.876,721.08l7.671.829"/><path class="cls-1" d="M450.413,721.909l.622.415"/><path class="cls-1" d="M452.486,722.324l.622.414"/><path class="cls-1" d="M454.559,722.738l5.6.83"/><path class="cls-1" d="M461.609,723.568l4.768.414"/><path class="cls-1" d="M469.072,723.982l5.6.415"/><path class="cls-1" d="M477.78,724.4q12.347.075,24.672.829"/><path class="cls-1" d="M505.147,725.226h4.768"/><path class="cls-1" d="M535.831,725.226q9.759,1.524,16.172-5.183"/><path class="cls-1" d="M552,715.275c1.225-3.9.566-7.869.414-11.818"/><path class="cls-1" d="M552.417,694.542,552,692.261"/><path class="cls-1" d="M552,689.981l-.415-.622"/><path class="cls-1" d="M551.588,683.346l-.415-1.036"/><path class="cls-1" d="M550.759,673.4c-.138-.208-.277-.415-.415-.622"/><path class="cls-1" d="M549.1,647.686a79.906,79.906,0,0,0-.415-8.915"/><path class="cls-1" d="M548.685,636.076v-1.037"/><path class="cls-1" d="M548.685,632.759v-1.037"/><path class="cls-1" d="M547.856,627.783c-1.86-2.08-4.45-1.749-6.842-2.073"/><path class="cls-1" d="M538.319,625.71l-1.037-.415"/><path class="cls-1" d="M516.343,625.295l-.622.415"/><path class="cls-1" d="M506.806,625.71l-1.037-.415"/><path class="cls-1" d="M502.659,625.295l-1.866-.415"/><path class="cls-1" d="M498.513,624.88l-1.452-.414"/><path class="cls-1" d="M495.2,624.466l-1.866-.415"/><path class="cls-1" d="M486.9,623.636l-.622-.414"/><path class="cls-1" d="M482.756,623.222l-1.037-.415"/><path class="cls-1" d="M480.268,622.807l-.622-.414"/><path class="cls-1" d="M476.536,622.393l-2.695-.415"/><path class="cls-1" d="M469.072,621.978l-1.036-.415"/><path class="cls-1" d="M463.267,621.563l-3.11-.414"/><path class="cls-1" d="M457.877,621.149l-1.452-.415"/><path class="cls-1" d="M453.315,620.734l-2.28-.415"/><path class="cls-1" d="M435.485,619.905H422.839"/><path class="cls-1" d="M412.265,620.319l-12.647,1.659"/><path class="cls-1" d="M397.752,621.978h-2.488"/><path class="cls-1" d="M338.457,630.271v1.451"/><path class="cls-1" d="M338.042,636.905l-.414,1.037"/><path class="cls-1" d="M337.628,640.223l-.415,1.451"/><path class="cls-1" d="M337.213,643.125l-.415,2.7"/><path class="cls-1" d="M336.8,648.1q-.414,3.421-.829,6.842"/><path class="cls-1" d="M335.969,657.223q-.623,3.629-1.244,7.257"/><path class="cls-1" d="M334.31,667.175q-.414,1.347-.829,2.7"/><path class="cls-1" d="M333.481,671.321l-2.073,6.428"/><path class="cls-1" d="M330.579,681.273q-1.452,4.458-2.9,8.915"/><path class="cls-1" d="M327.261,692.054q-2.28,4.665-4.561,9.33"/><path class="cls-1" d="M321.042,704.494q-1.245,1.761-2.488,3.524"/><path class="cls-1" d="M316.066,711.543l-.415.622"/><path class="cls-1" d="M308.187,720.25l-1.036.83"/><path class="cls-1" d="M306.114,722.324l-1.037.829"/><path class="cls-1" d="M301.553,726.056l-1.866,1.244"/><path class="cls-1" d="M289.943,733.105l-2.281,1.244"/><path class="cls-1" d="M284.552,735.592l-.622.415"/><path class="cls-1" d="M270.454,740.154l-1.037.414"/><path class="cls-1" d="M264.649,741.812l-.622.415"/><path class="cls-1" d="M235.623,743.056l-.622-.414"/><path class="cls-1" d="M215.305,737.666l-.622-.415"/><path class="cls-1" d="M209.086,735.178l-.622-.415"/><path class="cls-1" d="M201.207,732.275l-1.451-.829"/><path class="cls-1" d="M198.305,730.617l-3.94-2.074"/><path class="cls-1" d="M188.768,724.812l-.622-.415"/><path class="cls-1" d="M185.45,722.738l-4.353-2.9"/><path class="cls-1" d="M179.231,718.592l-.622-.415"/><path class="cls-1" d="M176.328,716.519l-.622-.415"/><path class="cls-1" d="M175.5,715.9l-1.452-1.037"/><path class="cls-1" d="M170.523,711.543l-.829-1.037"/><path class="cls-1" d="M168.035,708.64l-3.732-5.183"/><path class="cls-1" d="M163.474,701.591l-1.244-1.866"/><path class="cls-1" d="M160.986,697.859l-.415-.622"/><path class="cls-1" d="M156.425,689.566q-.623-1.347-1.244-2.7"/><path class="cls-1" d="M154.766,685.42l-.415-.622"/><path class="cls-1" d="M153.937,683.346l-.415-1.036"/><path class="cls-1" d="M153.107,680.029l-.414-.622"/><path class="cls-1" d="M152.693,677.541l-.415-.622"/><path class="cls-1" d="M152.278,675.468l-.414-1.037"/><path class="cls-1" d="M151.449,671.321l-.415-.622"/><path class="cls-1" d="M150.62,666.76l-.415-1.036"/><path class="cls-1" d="M149.79,661.784l-.414-.622"/><path class="cls-1" d="M149.376,656.394l.414-2.7"/><path class="cls-1" d="M149.79,650.589q.416-1.763.83-3.525"/><path class="cls-1" d="M151.034,643.54l.415-1.452"/><path class="cls-1" d="M151.864,638.979q.621-2.592,1.244-5.184"/><path class="cls-1" d="M153.522,631.93l.415-1.037"/><path class="cls-1" d="M154.351,628.612l3.318-8.915"/><path class="cls-1" d="M158.913,616.587q.621-1.14,1.244-2.28"/><path class="cls-1" d="M161.4,612.441l2.073-2.281"/><path class="cls-1" d="M166.376,607.465q2.074-2.177,4.147-4.354"/><path class="cls-1" d="M173.011,600.416l4.354-3.732"/><path class="cls-1" d="M178.816,595.44l.622-.415"/><path class="cls-1" d="M182.548,592.538l8.293-5.184"/><path class="cls-1" d="M384.483,662.614c-4.794.877-8.71,2.836-9.951,8.085"/><path class="cls-1" d="M374.532,674.224a114.089,114.089,0,0,0,5.39,13.891"/><path class="cls-1" d="M379.922,689.566v2.281"/><path class="cls-1" d="M379.922,693.3c-12.371,23.545,28.732,48.855,15.135,56.807"/><path class="cls-1" d="M391.118,753.423l-.622.414"/><path class="cls-1" d="M384.9,757.569a36.4,36.4,0,0,0-16.586,12.025"/><path class="cls-1" d="M367.69,398.066c-18.383-20.672-13.638-42.132-45.932-7.1-28.237,30.63-47.065,80.63-71.207,115.12"/><path class="cls-1" d="M443.157,229.924a335.662,335.662,0,0,1-23.014,30.685"/><path class="cls-1" d="M417.241,263.3l-1.452,1.244"/><path class="cls-1" d="M414.338,265.792l-.622.415"/><path class="cls-1" d="M413.509,266.414l-1.866,1.451"/><path class="cls-1" d="M404.387,272.841l-.622.415"/><path class="cls-1" d="M386.557,275.744c-23.135,32.187-35.188,76.877-60.13,106.82-.8,6.612,5.389,31.64,13.9,31.259"/><path class="cls-1" d="M345.921,412.579c7.021-3.1,15.187-5.741,21.354-10.367"/><path class="cls-1" d="M142.119,247.34c-36.336,20.683-59.722,44.024-97,56.452-11.593-22.927,63.236-16.02,24.019-45.671"/><path class="cls-1" d="M381.166,267.865l-.829-1.036"/><path class="cls-1" d="M378.471,264.341c-22.04-29.87-28.565-59.433-58.881-84.175"/><path class="cls-1" d="M102.105,595.855l-.414,1.036"/><path class="cls-1" d="M101.276,601.245v1.866"/><path class="cls-1" d="M101.691,604.977l.414.622"/><path class="cls-1" d="M104.593,628.2l-.414,1.036"/><path class="cls-1" d="M115.374,629.027l1.451-.829"/><path class="cls-1" d="M119.935,626.954l.622-.415"/><path class="cls-1" d="M128.228,630.271l.415,1.037"/><path class="cls-1" d="M123.253,640.637l-.622.415"/><path class="cls-1" d="M119.935,642.3l-.622.414"/><path class="cls-1" d="M116.2,643.54l-.622.414"/><path class="cls-1" d="M108.325,662.614l.622.414"/><path class="cls-1" d="M110.813,663.443h1.866"/><path class="cls-1" d="M114.13,663.028l.622-.414"/><path class="cls-1" d="M117.447,661.37l3.11-1.659"/><path class="cls-1" d="M126.155,657.638l1.037-.415"/><path class="cls-1" d="M131.96,662.2l-.414.622"/><path class="cls-1" d="M125.74,668.834l-.621.414"/><path class="cls-1" d="M116.2,679.614l-.414,1.866"/><path class="cls-1" d="M110.4,683.346l-1.451-.414"/><path class="cls-1" d="M389.459,279.475l-.415.622"/><path class="cls-1" d="M389.044,281.963c-3.581,26.727-8.979,53.131-12.854,79.821"/><path class="cls-1" d="M375.361,364.894a239.921,239.921,0,0,1-7.049,33.379"/><path class="cls-1" d="M367.9,400.968c-3.553,15.033-6.093,30.258-9.122,45.4"/><path class="cls-1" d="M358.775,447.824q-.949,6.751-2.073,13.476"/><path class="cls-1" d="M356.7,463.166q-.415,2.177-.83,4.354"/><path class="cls-1" d="M355.458,472.7A43.782,43.782,0,0,0,352.14,489.5"/><path class="cls-1" d="M351.311,492.192q-1.243,3.836-2.488,7.671"/><path class="cls-1" d="M348.409,502.558l-.415.622"/><path class="cls-1" d="M347.579,504.631l-.414.622"/><path class="cls-1" d="M344.262,516.242l-.415.622"/><path class="cls-1" d="M343.847,518.315l-.207.829"/><path class="cls-1" d="M345.091,520.388l1.037.415"/><path class="cls-1" d="M348.409,521.217l.622.415"/><path class="cls-1" d="M344.677,529.51v1.452"/><path class="cls-1" d="M345.506,533.657l.415.622"/><path class="cls-1" d="M346.335,535.73q.209,3.215.415,6.427"/><path class="cls-1" d="M346.75,544.438l4.146,25.086"/><path class="cls-1" d="M350.9,576.781v3.11"/><path class="cls-1" d="M350.9,585.074l-.414,1.451"/><path class="cls-1" d="M350.482,587.976l-1.659,6.428"/><path class="cls-1" d="M348.409,595.855q-.209.518-.415,1.036"/><path class="cls-1" d="M347.579,598.757q-.621,1.142-1.244,2.281"/><path class="cls-1" d="M345.921,602.489l-.415,1.037"/><path class="cls-1" d="M343.433,607.88l-.415.622"/><path class="cls-1" d="M100.861,588.806l-2.073,1.658"/><path class="cls-1" d="M98.581,590.464l-4.769,3.94"/><path class="cls-1" d="M91.324,597.1l-2.695,2.488"/><path class="cls-1" d="M84.9,600.623l-1.658-.207"/><path class="cls-1" d="M72.25,600.416a19.289,19.289,0,0,1-6.841-2.9"/><path class="cls-1" d="M63.957,595.855l-3.524-4.147"/><path class="cls-1" d="M58.567,591.708l-1.866.83"/><path class="cls-1" d="M54.42,594.611v1.451"/><path class="cls-1" d="M54.42,597.513l1.244,3.11"/><path class="cls-1" d="M56.079,605.806l.415,1.866"/><path class="cls-1" d="M55.25,615.758l-.415.622"/><path class="cls-1" d="M51.518,619.49l-1.866,1.244"/><path class="cls-1" d="M48.2,621.149l-1.037.414"/><path class="cls-1" d="M44.883,621.978l-1.036.415"/><path class="cls-1" d="M37.42,637.32l.414.622"/><path class="cls-1" d="M41.981,643.954l3.939,2.488"/><path class="cls-1" d="M47.371,648.1l1.659,2.281"/><path class="cls-1" d="M49.859,651.833l.415.622"/><path class="cls-1" d="M50.274,655.979l-1.244,3.11"/><path class="cls-1" d="M48.615,660.54l-1.658,3.11"/><path class="cls-1" d="M46.542,665.1q-1.452,3.213-2.9,6.427"/><path class="cls-1" d="M43.225,673.809a11.736,11.736,0,0,0,.829,7.671"/><path class="cls-1" d="M46.127,684.59l.622.415"/><path class="cls-1" d="M243.5,503.8l-.622-.415"/><path class="cls-1" d="M238.94,503.387l-.622.415"/><path class="cls-1" d="M237.282,505.461l1.658,2.9"/><path class="cls-1" d="M235.209,518.315l-5.391,5.6"/><path class="cls-1" d="M226.086,527.852q-3.11,3.317-6.22,6.634"/><path class="cls-1" d="M218.208,536.56l-5.805,7.671"/><path class="cls-1" d="M211.159,546.511a114.317,114.317,0,0,0-9.952,18.867"/><path class="cls-1" d="M200.792,566.829l-.414.622"/><path class="cls-1" d="M199.963,568.9q-.621,2.385-1.244,4.769"/><path class="cls-1" d="M198.719,583l.208,1.244"/><path class="cls-1" d="M205.768,76.711l1.452,1.244"/><path class="cls-1" d="M208.671,79.2l1.451,1.243"/><path class="cls-1" d="M211.988,82.1l.622.415"/><path class="cls-1" d="M214.061,83.76l10.367,8.085"/><path class="cls-1" d="M226.086,93.711c9.344,12.035,11.591,25.689,22.6,36.7"/><path class="cls-1" d="M262.783,64.478c-19.5,8.809-32.659,7.808-53.905,6.842"/><path class="cls-1" d="M207.427,71.32l-.622-.415"/><path class="cls-1" d="M204.939,70.905l-1.037-.414"/><path class="cls-1" d="M365,678.785q-.415-2.383-.83-4.768"/><path class="cls-1" d="M364.165,672.565a37.6,37.6,0,0,1,.415-7.671"/><path class="cls-1" d="M364.58,663.443v-1.866"/><path class="cls-1" d="M364.58,660.126q-.207-1.14-.415-2.281"/><path class="cls-1" d="M364.165,651l-.414-.622"/><path class="cls-1" d="M363.336,646.857l-1.244-1.659"/><path class="cls-1" d="M361.677,641.052l-.414-.622"/><path class="cls-1" d="M359.6,640.223a10.406,10.406,0,0,0-1.658,6.012"/><path class="cls-1" d="M355.872,651.418q.209,2.8.415,5.6"/><path class="cls-1" d="M357.116,692.883l-.414.622"/><path class="cls-1" d="M356.7,697.445l.414,1.451"/><path class="cls-1" d="M357.116,704.079l.83,3.524"/><path class="cls-1" d="M357.946,709.469q.414,1.349.829,2.7"/><path class="cls-1" d="M116,200.07c-20.562,21.479-14.9,22.983-44.12,3.457-8.824,19.038-2.821,16.88,14.265,25.568"/><path class="cls-1" d="M132.375,166.275c10.687,7.127,1.073,18.525-8.835,18.516-7.523-.007-14.52-12.281-21.849-13.747"/><path class="cls-1" d="M48.2,249.413c5.957-5.162,7.879-13.176,11.991-19.771,6.092,1.378,22.15,20.719,27.76,15.6,7.47-6.819,5.189-12.243-1.4-15.729"/><path class="cls-1" d="M486.488,193.642c-15.745,7.034-27.866,17.721-38.978,30.685"/><path class="cls-1" d="M288.491,158.6c-13.42-8.849-26.693-17.908-39.392-27.781"/><path class="cls-1" d="M394.435,623.222c-3.641,10.924-1.739,24.18-2.695,35.66"/><path class="cls-1" d="M390.288,658.882c-2.2.366-3.558,2.3-5.39,3.524"/><path class="cls-1" d="M319.176,179.752q-15.144-10.355-30.27-20.733"/><path class="cls-1" d="M116.411,199.655c4.831-6.483-24.327-18.589-28.2-20.318"/><path class="cls-1" d="M146.266,155.287c2.462,14.77-16.659-2.271-21.148-4.976"/><path class="cls-1" d="M156.01,116.1q-10.276,5.646-10.366,17.83"/><path class="cls-1" d="M68.311,257.292a38.78,38.78,0,0,0-18.866-7.879"/><path class="cls-1" d="M131.96,697.237q2.819.135,1.452-3.11"/><path class="cls-1" d="M135.9,691.432l3.318-.622"/><path class="cls-1" d="M141.912,690.81l3.524.415"/><path class="cls-1" d="M148.961,692.054l.622.415"/><path class="cls-1" d="M151.449,692.883l2.28.83"/><path class="cls-1" d="M162.23,728.543l.415.622"/><path class="cls-1" d="M162.644,733.519v1.037"/><path class="cls-1" d="M162.852,754.874l-.207,1.244"/><path class="cls-1" d="M160.986,760.886c-.8,1.328-.408,3.252-2.073,4.147"/><path class="cls-1" d="M108.532,137.042c-7.682-5.324-7.693,9.709-5.39,10.781"/><path class="cls-1" d="M152.693,99.1a25.27,25.27,0,0,0,6.22,16.379"/><path class="cls-1" d="M177.157,139.738a42.482,42.482,0,0,1,.415,15.756"/><path class="cls-1" d="M174.255,129.786q-3.417-10.875-12.44-12.232"/><path class="cls-1" d="M103.557,148.238l15.756,9.537"/><path class="cls-1" d="M541.429,166.9a42.286,42.286,0,0,1-15.549,9.537"/><path class="cls-1" d="M525.672,176.849l-15.549,6.013"/><path class="cls-1" d="M156.839,217.278l-6.012,15.549"/><path class="cls-1" d="M123.875,149.067q-7.2-5.672-14.513-11.195"/><path class="cls-1" d="M171.352,171.044q6.987,3.654,13.891,7.464"/><path class="cls-1" d="M95.678,165.653q-7.449-6.345-8.086,12.855"/><path class="cls-1" d="M277.918,56.393a98.112,98.112,0,0,1-13.062,7.256"/><path class="cls-1" d="M131.546,165.861q-5.868-3.9-11.818-7.671"/><path class="cls-1" d="M93.812,678.371H92.361"/><path class="cls-1" d="M82.617,678.371l-3.525.414"/><path class="cls-1" d="M74.946,680.236l-1.452.415"/><path class="cls-1" d="M64.165,687.7l-7.049-.207"/><path class="cls-1" d="M55.25,687.493l-1.452-.207"/><path class="cls-1" d="M365.409,700.347a42.022,42.022,0,0,1-4.561,14.306"/><path class="cls-1" d="M546.2,155.08q3.81,6.709-4.354,11.4"/><path class="cls-1" d="M150.412,233.034a29.64,29.64,0,0,1-3.732,10.159"/><path class="cls-1" d="M497.269,188.252l-9.952,4.976"/><path class="cls-1" d="M151.034,69.662v9.951"/><path class="cls-1" d="M150.62,88.114q.828,4.872,1.658,9.744"/><path class="cls-1" d="M339.7,625.71l5.183-2.9"/><path class="cls-1" d="M344.677,620.734q-4.172-3.742-7.879-1.659"/><path class="cls-1" d="M335.554,14.1A127.8,127.8,0,0,1,319.8,24.464"/><path class="cls-1" d="M120.35,688.737l1.866,2.28"/><path class="cls-1" d="M151.864,51a11.307,11.307,0,0,0,.414,7.879"/><path class="cls-1" d="M191.255,587.976l.415.622"/><path class="cls-1" d="M160.157,208.57l-2.9,7.878"/><path class="cls-1" d="M312.334,29.855,305.7,34.623"/><path class="cls-1" d="M147.717,769.179c-1.07,0-1.873,6.3-8.293,8.086"/><path class="cls-1" d="M145.229,134.762V141.4"/><path class="cls-1" d="M164.51,200.9l-3.524,6.427"/><path class="cls-1" d="M195.4,74.223q-.207,3.11-.415,6.219"/><path class="cls-1" d="M117.033,777.058l-.415,1.036"/><path class="cls-1" d="M116.2,780.375l-.621,1.037"/><path class="cls-1" d="M41.151,762.13a11.552,11.552,0,0,1,5.6,2.7"/><path class="cls-1" d="M41.151,689.566q-.725.415-1.451.829"/><path class="cls-1" d="M38.249,691.639l-.622.415"/><path class="cls-1" d="M150.827,81.064l.207,5.6"/><path class="cls-1" d="M96.508,166.483l4.975,4.146"/><path class="cls-1" d="M165.132,168.349l5.391,2.28"/><path class="cls-1" d="M169.072,195.508l-4.147,4.976"/><path class="cls-1" d="M36.176,693.091q-1.77-1.549-2.074.207"/><path class="cls-1" d="M28.09,747l.207,1.659"/><path class="cls-1" d="M97.544,787.217q-2.178-.3-4.354-.622"/><path class="cls-1" d="M90.91,786.6H89.458"/><path class="cls-1" d="M79.714,786.18l-1.866-.415"/><path class="cls-1" d="M188.975,182.654c-1.218,1.556-3.084,1.965-4.769,2.695"/><path class="cls-1" d="M170.316,187.215c-.7,2.62.124,5.968-.83,7.879"/><path class="cls-1" d="M176.743,159.641l-1.659,4.561"/><path class="cls-1" d="M56.286,777.472l1.037,1.452"/><path class="cls-1" d="M57.738,780.375l.414.622"/><path class="cls-1" d="M59.811,782.448l3.939.829"/><path class="cls-1" d="M63.957,783.277l1.452,1.037"/><path class="cls-1" d="M174.669,130.615l2.488,7.464"/><path class="cls-1" d="M112.886,786.6a19.914,19.914,0,0,0-6.22,1.866"/><path class="cls-1" d="M304.455,35.66l-3.524,3.11"/><path class="cls-1" d="M387.8,599.172q.622,2.073,1.244,4.147"/><path class="cls-1" d="M124.911,770.216l-4.146,1.658"/><path class="cls-1" d="M106.459,788.046a18.967,18.967,0,0,1-4.768-1.037"/><path class="cls-1" d="M100.032,787.009,99,787.424"/><path class="cls-1" d="M170.316,171.459l-3.11,3.109"/><path class="cls-1" d="M189.182,115.273l-2.9,3.732"/><path class="cls-1" d="M174.255,186.593l-3.732.208"/><path class="cls-1" d="M182.962,185.764l-3.731.829"/><path class="cls-1" d="M294.3,44.16l-3.731,3.318"/><path class="cls-1" d="M282.272,53.7l-3.525,2.281"/><path class="cls-1" d="M28.712,738.08v1.037"/><path class="cls-1" d="M377.434,39.807l2.9,2.9"/><path class="cls-1" d="M146.058,145.957v3.318"/><path class="cls-1" d="M285.8,51l-3.11,2.281"/><path class="cls-1" d="M174.255,165.446q-1.036,1.659-2.074,3.317"/><path class="cls-1" d="M68.933,784.936l1.451.415"/><path class="cls-1" d="M74.738,785.765h3.11"/><path class="cls-1" d="M508.879,183.276l-3.317,1.244"/><path class="cls-1" d="M122.838,690.81l-.415,1.451"/><path class="cls-1" d="M123.667,693.713l2.073,4.561"/><path class="cls-1" d="M368.312,32.758l2.9,2.9"/><path class="cls-1" d="M447.1,225.156l-2.281,2.695"/><path class="cls-1" d="M53.176,769.179c.311,1.145,2.043,1.757,1.244,3.318"/><path class="cls-1" d="M47.993,687.286a1.9,1.9,0,0,0-2.488.207"/><path class="cls-1" d="M361.677,27.367l2.7,1.866"/><path class="cls-1" d="M145.022,244.852l-2.488,2.073"/><path class="cls-1" d="M157.254,115.688c2.707-.373,3.95,1.632,5.39,3.317"/><path class="cls-1" d="M128.85,775.4l1.452,2.488"/><path class="cls-1" d="M177.157,156.324v2.488"/><path class="cls-1" d="M194.158,90.394v2.488"/><path class="cls-1" d="M364.787,29.648l2.074,1.658"/><path class="cls-1" d="M348.409,15.757l2.073,2.073"/><path class="cls-1" d="M28.505,710.091c.341,1.151-.327,2.421.414,3.525"/><path class="cls-1" d="M343.018,11.61l2.281,1.452"/><path class="cls-1" d="M196.231,63.442v2.073"/><path class="cls-1" d="M299.894,39.392l-1.866,1.451"/><path class="cls-1" d="M385.727,591.294l.415,2.073"/><path class="cls-1" d="M393.606,616.173l.414,2.073"/><path class="cls-1" d="M345.713,13.476l1.866,1.451"/><path class="cls-1" d="M145.644,142.226V144.3"/><path class="cls-1" d="M475.292,457.776h-2.073"/><path class="cls-1" d="M187.938,180.788l-1.866-1.451"/><path class="cls-1" d="M30.163,751.349H28.3"/><path class="cls-1" d="M374.324,37.526l1.866,1.451"/><path class="cls-1" d="M185.45,27.782V29.44"/><path class="cls-1" d="M357.116,23.635l1.659,1.244"/><path class="cls-1" d="M146.058,150.519v1.658"/><path class="cls-1" d="M34.1,694.127l1.452.415"/><path class="cls-1" d="M54.006,772.911a2,2,0,0,1,1.451,1.866"/><path class="cls-1" d="M151.449,67.174v1.658"/><path class="cls-1" d="M385.313,587.562v1.658"/><path class="cls-1" d="M154.766,767.521l-1.659.414"/><path class="cls-1" d="M290.357,47.892l-1.244,1.037"/><path class="cls-1" d="M115.167,781.826l.622,1.451"/><path class="cls-1" d="M188.768,181.2l.622,1.244"/><path class="cls-1" d="M196.439,69.454l-.208,1.451"/><path class="cls-1" d="M338.25,629.442l-1.452.207"/><path class="cls-1" d="M314.614,28.4l-1.451,1.036"/><path class="cls-1" d="M386.557,46.856,387.8,48.1"/><path class="cls-1" d="M35.968,695.371l-1.244-.207"/><path class="cls-1" d="M182.962,121.908l-1.244.414"/><path class="cls-1" d="M413.924,443.678q-.622.414-1.244.829"/><path class="cls-1" d="M51.1,767.106q-1.854-1.063-1.244,1.244"/><path class="cls-1" d="M383.654,45.2l1.244.829"/><path class="cls-1" d="M381.581,43.538l1.244.83"/><path class="cls-1" d="M341.774,10.574,339.7,11.61"/><path class="cls-1" d="M351.726,19.074l.829.829"/><path class="cls-1" d="M28.919,745.959q1.279.987-.622.829"/><path class="cls-1" d="M397.752,53.49l.829.415"/><path class="cls-1" d="M392.776,51l.83.415"/><path class="cls-1" d="M387.386,464.41q-.207.416-.415.829"/><path class="cls-1" d="M386.557,466.069q-.209.414-.415.829"/><path class="cls-1" d="M355.458,22.391l.829.415"/><path class="cls-1" d="M501,186.593l-.829.415"/><path class="cls-1" d="M502.659,185.764l-.829.415"/><path class="cls-1" d="M171.767,169.593l-.622.829"/><path class="cls-1" d="M127.4,772.911l.415.415"/><path class="cls-1" d="M114.96,784.107l-.208.622"/><path class="cls-1" d="M164.718,121.493l.414.415"/><path class="cls-1" d="M363.751,400.139l.414.415"/><path class="cls-1" d="M360.019,25.708l.414.415"/><path class="cls-1" d="M315.651,27.367l-.622.622"/></svg>