<svg id="Layer_1" data-name="Layer 1" xmlns="http://www.w3.org/2000/svg" viewBox="0 0 612 792"><defs><style>.cls-1{fill:none;stroke:#000;stroke-linecap:round;stroke-linejoin:round;stroke-width:3px;}</style></defs><title>drawingArtboard 3</title><path class="cls-1" d="M606.327,373.01v83.906"/><path class="cls-1" d="M606.327,460.871v5.206"/><path class="cls-1" d="M105.806,12.61c-88.94,0-94.274,125.842-97.022,189.048"/><path class="cls-1" d="M260.918,233.305c20.846,12.45,51.654,8.69,46.013-17.9"/><path class="cls-1" d="M306.931,213.942l-1.25-7.7"/><path class="cls-1" d="M305.681,204.781c-2.944-8.831-54.332,1.764-50.8,18.531"/><path class="cls-1" d="M248.217,233.513l-.416.625"/><path class="cls-1" d="M246.552,237.261q-.834,1.979-1.666,3.956"/><path class="cls-1" d="M244.47,243.091q-1.666,5.725-3.332,11.451"/><path class="cls-1" d="M240.722,256l-4.164,14.366"/><path class="cls-1" d="M236.141,272.239q-.207.521-.416,1.041"/><path class="cls-1" d="M235.309,275.154c-3.536,11.617-6.146,23.429-9.161,35.186"/><path class="cls-1" d="M225.731,313.047q-.207,1.146-.416,2.29"/><path class="cls-1" d="M225.315,317.211q-.417,1.978-.833,3.956"/><path class="cls-1" d="M224.482,325.123q-.209,1.77-.416,3.539"/><path class="cls-1" d="M224.066,332.618l-.208.833"/><path class="cls-1" d="M223.649,338.448l-.416,1.457"/><path class="cls-1" d="M222.816,345.11q-.207,1.77-.416,3.54"/><path class="cls-1" d="M222.4,350.94q-.417,1.561-.833,3.123"/><path class="cls-1" d="M220.734,357.186l-.416.625"/><path class="cls-1" d="M219.9,359.268l-.417.625"/><path class="cls-1" d="M219.069,361.35q-.417.938-.833,1.874"/><path class="cls-1" d="M168.267,405.489l-.624.417"/><path class="cls-1" d="M163.27,406.739l-.624.416"/><path class="cls-1" d="M157.857,408.4l-1.457.417"/><path class="cls-1" d="M152.86,409.237l-.624.416"/><path class="cls-1" d="M149.113,410.07l-.625.416"/><path class="cls-1" d="M147.03,410.486l-1.249.208"/><path class="cls-1" d="M181.8,484.19l-.624-1.457"/><path class="cls-1" d="M179.51,479.193q-.208-1.977-.416-3.956"/><path class="cls-1" d="M180.759,474.2l6.871-.832"/><path class="cls-1" d="M189.5,473.364l3.539,1.249"/><path class="cls-1" d="M209.075,472.531l.625-.417"/><path class="cls-1" d="M216.987,470.865l.624-.416"/><path class="cls-1" d="M219.9,469.616l5.205-3.331"/><path class="cls-1" d="M227.4,465.036l.625-.417"/><path class="cls-1" d="M229.479,464.619l2.29.833"/><path class="cls-1" d="M233.227,465.452l1.041.416"/><path class="cls-1" d="M238.64,466.7l.625.417"/><path class="cls-1" d="M247.384,466.7l.625-.416"/><path class="cls-1" d="M250.716,465.868l8.536-4.164"/><path class="cls-1" d="M260.709,461.288l1.042-.417"/><path class="cls-1" d="M267.372,460.871l.625.417"/><path class="cls-1" d="M270.287,461.288l2.29-.833"/><path class="cls-1" d="M274.034,461.7l.833,1.874"/><path class="cls-1" d="M274.867,465.868l-.416,1.041"/><path class="cls-1" d="M274.034,470.032l-1.665,2.707"/><path class="cls-1" d="M271.12,475.446q-.834,3.018-1.666,6.038"/><path class="cls-1" d="M269.454,483.357l.833,2.291"/><path class="cls-1" d="M270.7,487.938q.626,1.145,1.249,2.29"/><path class="cls-1" d="M271.952,490.436l-1.041,1.25"/><path class="cls-1" d="M269.454,492.935l-2.29,1.249"/><path class="cls-1" d="M265.706,494.6l-5.413,4.789"/><path class="cls-1" d="M259.46,500.846l-.833,1.042"/><path class="cls-1" d="M258.627,504.594q.417.938.833,1.874"/><path class="cls-1" d="M261.542,508.758l1.874.833"/><path class="cls-1" d="M267.788,510.007q3.444.094,6.871.417"/><path class="cls-1" d="M276.949,510.84l.625.417"/><path class="cls-1" d="M279.031,512.506q3.49,4.27.417,8.953"/><path class="cls-1" d="M277.366,523.332l-3.54,2.082"/><path class="cls-1" d="M271.536,526.247l-.625.417"/><path class="cls-1" d="M267.788,527.08l-.624.417"/><path class="cls-1" d="M263.208,528.746,261.334,530"/><path class="cls-1" d="M259.46,532.077l-.833,1.041"/><path class="cls-1" d="M258.211,534.992l.833,1.457"/><path class="cls-1" d="M259.46,537.907q.626,1.353,1.249,2.706"/><path class="cls-1" d="M261.126,542.487l.416.625"/><path class="cls-1" d="M262.375,545.4q1.666,3.852,3.331,7.7"/><path class="cls-1" d="M266.956,554.979l6.037,5.414"/><path class="cls-1" d="M274.867,561.642l1.041.833"/><path class="cls-1" d="M278.615,565.39c2.653,2.6,3.468,6.173,5,9.369"/><path class="cls-1" d="M283.612,581.629l-.417.625"/><path class="cls-1" d="M282.779,584.128c-.577,2.312-2.6,3.11-4.372,4.164"/><path class="cls-1" d="M276.949,588.708l-1.041.417"/><path class="cls-1" d="M274.451,589.125l-.625.416"/><path class="cls-1" d="M259.877,582.879l-.417-.625"/><path class="cls-1" d="M252.59,573.509l-.625-.832"/><path class="cls-1" d="M249.883,571.219l-2.29-1.249"/><path class="cls-1" d="M245.3,569.554l-.624-.417"/><path class="cls-1" d="M231.145,577.882l-.417.624"/><path class="cls-1" d="M220.318,587.043l-.625.416"/><path class="cls-1" d="M218.236,587.875l-.625.417"/><path class="cls-1" d="M214.072,588.708l-1.041.417"/><path class="cls-1" d="M205.327,568.721V567.68"/><path class="cls-1" d="M205.327,556.645q-.624-1.77-1.249-3.539"/><path class="cls-1" d="M203.662,551.648l-.417-.625"/><path class="cls-1" d="M197.416,546.651l-.625-.416"/><path class="cls-1" d="M193.668,544.569l-.625-.416"/><path class="cls-1" d="M190.753,542.487l-.624-.416"/><path class="cls-1" d="M603.829,643.674a3.075,3.075,0,0,0,0,3.956"/><path class="cls-1" d="M603.828,653.251q-1.665,8.849-3.331,17.7"/><path class="cls-1" d="M600.5,674.072q-.624,2.6-1.249,5.205"/><path class="cls-1" d="M599.248,681.151q-.417,1.769-.833,3.539"/><path class="cls-1" d="M598.415,686.147q-5.25,5.3-5,13.95"/><path class="cls-1" d="M593,701.554l-.417,1.041"/><path class="cls-1" d="M591.753,705.3l-1.25,3.123"/><path class="cls-1" d="M590.087,709.883l-.416.624"/><path class="cls-1" d="M588.005,714.88l-.416.624"/><path class="cls-1" d="M587.172,717.378l-.416.625"/><path class="cls-1" d="M578.844,731.536l-.416.624"/><path class="cls-1" d="M574.68,737.365l-1.874,1.666"/><path class="cls-1" d="M570.932,741.113l-1.249,1.458"/><path class="cls-1" d="M566.352,746.526l-1.041.833"/><path class="cls-1" d="M560.314,751.731l-.833.625"/><path class="cls-1" d="M555.525,755.687l-1.457.833"/><path class="cls-1" d="M552.61,757.769l-.624.417"/><path class="cls-1" d="M549.7,759.851l-.625.417"/><path class="cls-1" d="M547.2,761.517l-1.874,1.249"/><path class="cls-1" d="M542.617,764.432l-.625.416"/><path class="cls-1" d="M539.285,766.514,537,767.763"/><path class="cls-1" d="M535.538,768.6q-8.994,3.9-18.114,7.5"/><path class="cls-1" d="M515.55,776.091l-1.457.417"/><path class="cls-1" d="M512.219,776.924l-5.621,2.082"/><path class="cls-1" d="M503.891,779.006l-3.956.833"/><path class="cls-1" d="M497.645,779.839l-3.331.625"/><path class="cls-1" d="M492.648,780.672l-5,.416"/><path class="cls-1" d="M179.51,474.613c-1.137-3.789-2.381-22.175,3.54-23.735"/><path class="cls-1" d="M184.923,450.461l.625-.416"/><path class="cls-1" d="M187.422,449.628l1.041-.416"/><path class="cls-1" d="M194.917,449.212l2.707-.833"/><path class="cls-1" d="M199.914,448.379l1.041-.416"/><path class="cls-1" d="M204.078,447.546l1.458-.416"/><path class="cls-1" d="M209.075,446.714l1.874-.417"/><path class="cls-1" d="M214.072,445.881l1.457-.417"/><path class="cls-1" d="M219.069,445.048a2.15,2.15,0,0,0,2.5-1.874"/><path class="cls-1" d="M225.731,439.635q5.72-3.207-7.7-6.663"/><path class="cls-1" d="M215.738,432.556l-1.041-.417"/><path class="cls-1" d="M209.908,431.723h-2.29"/><path class="cls-1" d="M203.245,431.723l-.624.416"/><path class="cls-1" d="M200.747,432.139l-1.874.417"/><path class="cls-1" d="M197.416,432.972c-9.571,1.857-16.584,11.232-25.609,13.117"/><path class="cls-1" d="M72.494,164.806c-3.63,8.738-6.153,19.592-10.41,28.108"/><path class="cls-1" d="M62.084,194.371,60,203.74"/><path class="cls-1" d="M60,205.614l-.833,3.54"/><path class="cls-1" d="M59.169,210.611l-.417,2.29"/><path class="cls-1" d="M58.336,217.274l-.417.624"/><path class="cls-1" d="M57.919,219.356l-2.082,11.451"/><path class="cls-1" d="M55.421,233.93l-.416,1.041"/><path class="cls-1" d="M54.588,239.343l-.416,1.874"/><path class="cls-1" d="M54.172,265.577l.416,2.29"/><path class="cls-1" d="M55.005,275.987l.416,2.29"/><path class="cls-1" d="M55.421,285.981l.416,1.874"/><path class="cls-1" d="M55.837,289.312l.417,1.457"/><path class="cls-1" d="M56.254,295.974l.416,2.707"/><path class="cls-1" d="M56.67,301.388l.417.624"/><path class="cls-1" d="M57.087,303.886l.416,1.458"/><path class="cls-1" d="M57.919,310.132l.417,2.291"/><path class="cls-1" d="M58.752,316.378l.417,1.458"/><path class="cls-1" d="M59.169,319.293l.416,1.874"/><path class="cls-1" d="M10.866,365.931q-.437,11.982-1.25,23.943"/><path class="cls-1" d="M9.2,393.83a135.834,135.834,0,0,1,.416,28.94"/><path class="cls-1" d="M9.2,429.641l-.416,1.874"/><path class="cls-1" d="M8.784,433.389q-.362,7-1.25,13.949"/><path class="cls-1" d="M7.534,452.127V454"/><path class="cls-1" d="M7.534,462.953v4.373"/><path class="cls-1" d="M6.7,494.184a216.858,216.858,0,0,1-.832,31.022"/><path class="cls-1" d="M5.869,539.989c-1.371,6.852-.987,26.195,0,33.1"/><path class="cls-1" d="M5.869,584.961l-.417,2.914"/><path class="cls-1" d="M207.618,589.749c-.892,1.2-1.941.181-2.915.209"/><path class="cls-1" d="M203.245,589.957l-6.038-1.249"/><path class="cls-1" d="M194.084,588.292l-.624-.416"/><path class="cls-1" d="M187.006,586.21l-1.042-.833"/><path class="cls-1" d="M185.756,583.711v-3.539"/><path class="cls-1" d="M185.756,577.465c-1.482-13.936-2.065-27.92-3.331-41.849"/><path class="cls-1" d="M181.592,525.414l.417-.624"/><path class="cls-1" d="M182.217,524.582l1.665-1.25"/><path class="cls-1" d="M187.422,521.667l1.874-.833"/><path class="cls-1" d="M191.17,520.834l.624-.416"/><path class="cls-1" d="M195.334,520.418l.624.416"/><path class="cls-1" d="M200.747,521.25l.625.417"/><path class="cls-1" d="M209.491,520.834l.625-.416"/><path class="cls-1" d="M214.072,517.919l.625-.416"/><path class="cls-1" d="M217.4,513.755l.417-.625"/><path class="cls-1" d="M217.82,511.673l-.417-.625"/><path class="cls-1" d="M215.738,507.093l-.417-.625"/><path class="cls-1" d="M213.656,504.594l-.625-.416"/><path class="cls-1" d="M211.157,503.761l-2.707-1.249"/><path class="cls-1" d="M202.829,500.846l-3.123-1.665"/><path class="cls-1" d="M198.249,497.932l-.625-.417"/><path class="cls-1" d="M192,491.686l-.416-.625"/><path class="cls-1" d="M190.337,489.6l-1.249-1.874"/><path class="cls-1" d="M186.589,485.856l-.624-.417"/><path class="cls-1" d="M251.132,222.687c-16.888-11.515-31.591-19.527-51.842-22.9"/><path class="cls-1" d="M197.832,199.785c-10.622-1.684-20.913-2.245-31.439-3.748"/><path class="cls-1" d="M164.1,196.037a57.1,57.1,0,0,1-8.536-.417"/><path class="cls-1" d="M152.86,195.62l-1.041-.416"/><path class="cls-1" d="M148.28,195.2l-5.622-.416"/><path class="cls-1" d="M138.7,194.788a48.072,48.072,0,0,1-13.533-1.666"/><path class="cls-1" d="M123.712,193.122l-16.448-4.164"/><path class="cls-1" d="M105.806,188.542l-6.454-2.915"/><path class="cls-1" d="M97.478,184.794l-.625-.417"/><path class="cls-1" d="M94.98,183.545l-.625-.417"/><path class="cls-1" d="M92.065,181.879l-.625-.416"/><path class="cls-1" d="M89.15,179.8l-.625-.416"/><path class="cls-1" d="M87.068,178.131l-.625-.416"/><path class="cls-1" d="M213.239,590.79a106.814,106.814,0,0,1,21.029,2.082"/><path class="cls-1" d="M236.141,592.872q13.64.371,27.275.833"/><path class="cls-1" d="M270.7,593.705q8.694,4.974,12.076-.416"/><path class="cls-1" d="M73.327,403.407l1.873.833"/><path class="cls-1" d="M80.822,406.322l1.457.833"/><path class="cls-1" d="M83.737,407.571l.624.417"/><path class="cls-1" d="M87.484,409.237l6.455,2.5"/><path class="cls-1" d="M96.645,412.152l.625.416"/><path class="cls-1" d="M98.727,412.568l2.707.833"/><path class="cls-1" d="M115.384,414.234l.624-.416"/><path class="cls-1" d="M148.28,400.493l.416-.625"/><path class="cls-1" d="M149.529,396.745v-1.458"/><path class="cls-1" d="M152.027,388l.209-.832"/><path class="cls-1" d="M153.9,384.877l1.249-.208"/><path class="cls-1" d="M159.523,380.921c.853-.678,1.574-1.725,2.915-1.041"/><path class="cls-1" d="M171.39,446.505l-10.826,7.288"/><path class="cls-1" d="M155.359,458.373l-6.246,8.12"/><path class="cls-1" d="M147.863,468.367c-8.5,12.581-16.86,34.281-28.732,43.514"/><path class="cls-1" d="M120.8,512.506c-13.552,18.487,2.714,51.255-20.612,65.376"/><path class="cls-1" d="M99.56,579.964l-2.29,1.665"/><path class="cls-1" d="M94.147,584.128l-.625.416"/><path class="cls-1" d="M93.314,584.752a26.823,26.823,0,0,0-12.076,10.827"/><path class="cls-1" d="M81.238,597.453l1.874,1.249"/><path class="cls-1" d="M84.986,598.7H86.86"/><path class="cls-1" d="M89.566,598.7l6.038,2.5"/><path class="cls-1" d="M97.478,603.7c6.133-.645,11.928-.8,18.114-1.666"/><path class="cls-1" d="M119.548,601.617l.624.416"/><path class="cls-1" d="M125.794,602.033h1.457"/><path class="cls-1" d="M133.289,601.617l3.956-.416"/><path class="cls-1" d="M28.771,721.126l.416.624"/><path class="cls-1" d="M53.755,744.444l.625.417"/><path class="cls-1" d="M84.153,765.265l.625.416"/><path class="cls-1" d="M124.961,780.672l2.082.416"/><path class="cls-1" d="M209.491,415.067l.625.416"/><path class="cls-1" d="M212.406,415.9l2.291,1.249"/><path class="cls-1" d="M219.069,417.982a222.591,222.591,0,0,0,48.3,13.116"/><path class="cls-1" d="M285.069,591.831a29.3,29.3,0,0,0,3.123-9.161"/><path class="cls-1" d="M288.192,562.475q-.207-.729-.416-1.458"/><path class="cls-1" d="M287.36,554.147l-.417-1.041"/><path class="cls-1" d="M286.943,549.566l-.416-1.457"/><path class="cls-1" d="M286.11,542.487v-1.041"/><path class="cls-1" d="M284.445,527.08l-.417-1.457"/><path class="cls-1" d="M280.7,493.768q-.209-.729-.416-1.458"/><path class="cls-1" d="M279.864,487.521l-.416-.624"/><path class="cls-1" d="M279.448,483.357q-.105-.833-.208-1.665"/><path class="cls-1" d="M278.615,472.947q-.209-.729-.416-1.457"/><path class="cls-1" d="M277.782,461.7l-.416-1.457"/><path class="cls-1" d="M276.533,445.464q-5.271-6.468-13.95-4.58"/><path class="cls-1" d="M258.627,440.884l-5.829,1.041"/><path class="cls-1" d="M184.507,431.723c-8.343,2.54-14.834,7.913-21.028,13.741"/><path class="cls-1" d="M157.857,450.461l-2.5,2.707"/><path class="cls-1" d="M154.109,454.625c-6.163,7.177-10.792,15.431-16.239,23.111"/><path class="cls-1" d="M137.037,479.193c-12.856,19.778-21.164,31.718-27.238,53.927-3.537,12.932,2.167,37.559-14.819,43.929"/><path class="cls-1" d="M8.367,311.382v1.041"/><path class="cls-1" d="M5.869,345.527c-.433,8.657-.862,17.82,0,26.442"/><path class="cls-1" d="M5.869,379.256a64.379,64.379,0,0,0-.417,28.732"/><path class="cls-1" d="M92.481,577.882l-2.706.833"/><path class="cls-1" d="M87.9,579.131a12.255,12.255,0,0,0-5.83,4.372"/><path class="cls-1" d="M79.989,587.459a60.068,60.068,0,0,1-5.83,10.2"/><path class="cls-1" d="M73.951,597.869l-2.082,1.666"/><path class="cls-1" d="M70,600.368q-7.631,3.9-15.2,7.911"/><path class="cls-1" d="M53.131,609.32a21.64,21.64,0,0,0-6.454,8.745"/><path class="cls-1" d="M46.26,620.772l-.416.624"/><path class="cls-1" d="M45.844,623.686l-.833,3.123"/><path class="cls-1" d="M45.011,628.683a46.15,46.15,0,0,0,1.249,8.537"/><path class="cls-1" d="M244.47,438.8q.1-.624.208-1.249"/><path class="cls-1" d="M242.388,437.136l-.625.417"/><path class="cls-1" d="M237.807,437.553l-1.041.416"/><path class="cls-1" d="M234.476,437.969q-6.741,2.553-6.454-7.912"/><path class="cls-1" d="M226.564,428.808l-3.123-1.665"/><path class="cls-1" d="M221.567,426.726l-1.041-.416"/><path class="cls-1" d="M218.236,425.893l-1.041-.416"/><path class="cls-1" d="M211.99,425.477a90.638,90.638,0,0,0-25.817,5.83"/><path class="cls-1" d="M96.021,666.576l3.747,1.25"/><path class="cls-1" d="M104.973,667.826q.314.207.625.416"/><path class="cls-1" d="M107.055,668.658l2.707,1.25"/><path class="cls-1" d="M113.718,669.908h1.457"/><path class="cls-1" d="M124.128,669.908l1.041-.417"/><path class="cls-1" d="M128.292,669.491l.625-.416"/><path class="cls-1" d="M131.623,669.075l1.458-.417"/><path class="cls-1" d="M134.538,668.658l.625-.416"/><path class="cls-1" d="M138.7,668.242l.417,1.041"/><path class="cls-1" d="M139.119,671.573l-.417,2.707"/><path class="cls-1" d="M138.7,676.986q-.415,1.146-.832,2.291"/><path class="cls-1" d="M134.538,679.485l-1.457-.417"/><path class="cls-1" d="M130.791,678.652l-1.041-.416"/><path class="cls-1" d="M127.876,678.236l-.625-.417"/><path class="cls-1" d="M122.879,677.819l-1.041.417"/><path class="cls-1" d="M118.715,678.236l-3.123.416"/><path class="cls-1" d="M113.3,678.236h-7.288"/><path class="cls-1" d="M104.557,678.236l-4.372.416"/><path class="cls-1" d="M99.56,680.734v1.041"/><path class="cls-1" d="M99.977,684.065l-.833,1.874"/><path class="cls-1" d="M99.144,687.4l-.417.624"/><path class="cls-1" d="M99.144,689.479l1.041.416"/><path class="cls-1" d="M105.39,690.311l3.956,1.25"/><path class="cls-1" d="M111.22,691.561l2.706.833"/><path class="cls-1" d="M116.216,692.394l.625.416"/><path class="cls-1" d="M122.879,693.226h5.2"/><path class="cls-1" d="M129.541,693.226l.625-.416"/><path class="cls-1" d="M133.289,692.81l5.413-1.457"/><path class="cls-1" d="M138.7,703.637l-.624.416"/><path class="cls-1" d="M133.705,704.053,131,702.387"/><path class="cls-1" d="M268,422.146c-3.689-2.213-9.508-2.424-13.742-3.332"/><path class="cls-1" d="M252.8,418.814l-2.707-.832"/><path class="cls-1" d="M246.968,417.565l-11.451-3.331"/><path class="cls-1" d="M233.643,413.818l-6.038-1.666"/><path class="cls-1" d="M225.731,411.735l-3.331-1.249"/><path class="cls-1" d="M61.875,340.946l.625,1.041"/><path class="cls-1" d="M62.5,345.11l.416,3.54"/><path class="cls-1" d="M62.916,354.271l-.416,3.956"/><path class="cls-1" d="M62.5,359.685l-.416,4.372"/><path class="cls-1" d="M62.084,368.013l-.417,1.041"/><path class="cls-1" d="M61.667,370.928l-.416.624"/><path class="cls-1" d="M61.251,373.426,60,377.8"/><path class="cls-1" d="M59.169,383.42l-.209.833"/><path class="cls-1" d="M31.269,702.8l3.332.208"/><path class="cls-1" d="M38.765,703.637l.624.416"/><path class="cls-1" d="M41.68,704.469l.624.417"/><path class="cls-1" d="M45.427,711.548l.417.625"/><path class="cls-1" d="M46.676,715.712l.417.625"/><path class="cls-1" d="M48.342,719.044l2.5,3.123"/><path class="cls-1" d="M53.339,726.122l.416.625"/><path class="cls-1" d="M54.172,728.2l.416.625"/><path class="cls-1" d="M55.005,731.536l.416.624"/><path class="cls-1" d="M57.919,743.612l.417,1.041"/><path class="cls-1" d="M337.12,444.007c7.886,14.294,21.2,24.46,38.726,23.111"/><path class="cls-1" d="M401.455,399.451c13.449,10.384,12.144,23.128,9.161,36.852"/><path class="cls-1" d="M86.027,710.091v1.041"/><path class="cls-1" d="M86.235,714.047l.417.624"/><path class="cls-1" d="M86.652,716.545l.416.625"/><path class="cls-1" d="M89.15,724.04l.416.625"/><path class="cls-1" d="M89.566,735.7l-.416.624"/><path class="cls-1" d="M83.32,748.192l-.624.416"/><path class="cls-1" d="M78.74,750.274l-.625.416"/><path class="cls-1" d="M76.658,751.107l-.625.416"/><path class="cls-1" d="M74.159,751.523l-1.041.417"/><path class="cls-1" d="M71.661,751.94H70.62"/><path class="cls-1" d="M124.545,779.631a12.548,12.548,0,0,1,6.87.208"/><path class="cls-1" d="M132.873,779.839c41.308.7,83.181-3.917,124.3-.833"/><path class="cls-1" d="M259.044,779.006l11.035.833"/><path class="cls-1" d="M271.952,779.839c10.85.079,21.839.543,32.688,0"/><path class="cls-1" d="M306.1,779.839q9.058-.372,18.113-.833"/><path class="cls-1" d="M326.085,779.006c20.427-1.277,40.017,1.5,60.379,2.082"/><path class="cls-1" d="M601.746,584.961c0,8.908,1.923,33.312.833,33.312"/><path class="cls-1" d="M484.32,781.088l-2.29-.416"/><path class="cls-1" d="M479.739,780.672c-8.628,0-17.2.108-25.817.416"/><path class="cls-1" d="M114.967,700.305l-.624-.416"/><path class="cls-1" d="M103.308,699.889l-.625.416"/><path class="cls-1" d="M410.616,437.136c-5.332,9.434-10.064,17.462-18.947,24.568"/><path class="cls-1" d="M391.461,461.912q-3.541.321-4.372-4.58"/><path class="cls-1" d="M5.452,672.822l.417,4.373"/><path class="cls-1" d="M6.285,679.485l.416.625"/><path class="cls-1" d="M8.159,251.835A96.169,96.169,0,0,1,9.2,274.946"/><path class="cls-1" d="M8.784,287.23l-.833,14.782"/><path class="cls-1" d="M7.951,305.552l-.417.624"/><path class="cls-1" d="M446.635,780.255c-1.411,1.416-3,.853-4.58.417"/><path class="cls-1" d="M438.932,780.672h-4.373"/><path class="cls-1" d="M432.269,780.255a18.372,18.372,0,0,0-13.117-.416"/><path class="cls-1" d="M5.452,616.191l.417,6.038"/><path class="cls-1" d="M5.869,634.513l-.417,5"/><path class="cls-1" d="M333.789,420.9c-4.14,10.216-1.335,24.811,9.994,20.4"/><path class="cls-1" d="M8.575,313.047l.625,2.29"/><path class="cls-1" d="M9.2,317.628q.132,7.185.416,14.366"/><path class="cls-1" d="M48.759,671.157l-.417,1.041"/><path class="cls-1" d="M47.926,674.9l-.417,3.123"/><path class="cls-1" d="M47.509,680.734l-.832,1.874"/><path class="cls-1" d="M46.26,686.564l-.416,1.041"/><path class="cls-1" d="M46.26,689.9l.417.625"/><path class="cls-1" d="M46.26,691.977l-1.249,2.5"/><path class="cls-1" d="M42.929,695.308l-2.707,1.25"/><path class="cls-1" d="M37.307,697.6l-5.829,2.706"/><path class="cls-1" d="M214.905,407.571a72.328,72.328,0,0,0-22.486-4.372"/><path class="cls-1" d="M193.668,329.7l-.625,5.414"/><path class="cls-1" d="M192.835,336.782c-.019,1.057-1.2,1.96-.416,3.123"/><path class="cls-1" d="M192,341.363l-.832,1.041"/><path class="cls-1" d="M190.753,343.861l-1.665,4.372"/><path class="cls-1" d="M188.047,349.9l-1.041,1.249"/><path class="cls-1" d="M183.674,356.353l-1.665,1.874"/><path class="cls-1" d="M138.286,600.576q-4.727,1.889-.625,9.369"/><path class="cls-1" d="M137.661,610.153q-.3,1.764-2.082.208"/><path class="cls-1" d="M132.04,610.778l-3.54.833"/><path class="cls-1" d="M127.043,611.611l-3.956.416"/><path class="cls-1" d="M114.967,612.443l-1.457.417"/><path class="cls-1" d="M110.8,612.86l-4.789-.417"/><path class="cls-1" d="M103.308,612.443l-3.956,1.25"/><path class="cls-1" d="M99.144,613.9l.833,2.5"/><path class="cls-1" d="M99.977,617.857c1,10.961,2.029,5.838,14.782,7.079"/><path class="cls-1" d="M117.049,624.936l7.7-1.25"/><path class="cls-1" d="M127.043,623.686l8.12-1.665"/><path class="cls-1" d="M136.62,622.437q.3,3.658.833,7.287"/><path class="cls-1" d="M137.453,631.182l-.416,2.706"/><path class="cls-1" d="M135.788,634.513l-4.373-1.249"/><path class="cls-1" d="M124.545,632.847h-2.291"/><path class="cls-1" d="M120.38,633.264l-6.454.416"/><path class="cls-1" d="M100.6,633.888a5.1,5.1,0,0,0-4.372,4.581"/><path class="cls-1" d="M347.114,400.493c-2.386,2.378-15.057,17.155-12.492,20.82"/><path class="cls-1" d="M185.756,487.313l-2.082-1.665"/><path class="cls-1" d="M179.51,485.856c1.125,11.245,1.3,22.66,2.082,33.937"/><path class="cls-1" d="M181.592,522.5l.625,1.873"/><path class="cls-1" d="M432.269,780.88l-12.7-.625"/><path class="cls-1" d="M416.862,780.255c-9.475-.962-18.863,1.044-28.316.833"/><path class="cls-1" d="M347.947,401.117c-4.015-4.015,42.248-9.694,52.675-1.874"/><path class="cls-1" d="M605.078,289.728q.221,12.928,1.249,25.818"/><path class="cls-1" d="M99.352,579.131a83.693,83.693,0,0,1-17.073,5.413"/><path class="cls-1" d="M392.919,407.363q18.117,2.664,6.269,13.852a28.16,28.16,0,0,0,10.6,3.429"/><path class="cls-1" d="M190.753,404.24c1.114,3,11.166,8.44,14.574,9.369"/><path class="cls-1" d="M359.19,459.83c7.374,5.028,11.044,5.965,19.779-2.29"/><path class="cls-1" d="M9.825,336.366c1.643,6.024,3.755,21.946,1.041,28.732"/><path class="cls-1" d="M601.33,562.058v17.489"/><path class="cls-1" d="M24.191,779.839l-4.373-.833"/><path class="cls-1" d="M8.784,759.435q.624-1.144,1.249-2.29"/><path class="cls-1" d="M10.866,754.855l-.417-.625"/><path class="cls-1" d="M377.928,411.944c-1.386,2.072-22.107,5.789-15.407,11.034"/><path class="cls-1" d="M390.42,462.121q-6.728,6.534-13.533,4.164"/><path class="cls-1" d="M9.408,336.366c-.417,6.009.921,30.627-3.123,36.019"/><path class="cls-1" d="M8.159,220.813l.208,2.5"/><path class="cls-1" d="M8.784,228.517a29.693,29.693,0,0,1-.417,7.287"/><path class="cls-1" d="M8.367,245.173v1.874"/><path class="cls-1" d="M8.367,249.753l-.208.833"/><path class="cls-1" d="M363.562,446.505a30.953,30.953,0,0,1-13.742,2.915"/><path class="cls-1" d="M605.911,150.649v17.489"/><path class="cls-1" d="M392.5,400.284c-8.124-4.334-4.153,3.123-11.035,3.123"/><path class="cls-1" d="M347.738,419.855c4,1.092,7.744,2.991,11.66,4.373"/><path class="cls-1" d="M89.983,636.6l-.625-.416"/><path class="cls-1" d="M375.638,447.13l10.2,8.953"/><path class="cls-1" d="M363.978,422.77c-1.217,0-9.862,7.025-10.41,8.12"/><path class="cls-1" d="M369.808,454a102.413,102.413,0,0,0-11.243,4.788"/><path class="cls-1" d="M382.508,401.742c-1.649-3.024-11.981-1.074-11.867-1.249"/><path class="cls-1" d="M511.386,11.569H500.56"/><path class="cls-1" d="M602.163,542.071V552.9"/><path class="cls-1" d="M355.65,433.18q-5.1,2.626-9.994,5.622"/><path class="cls-1" d="M383.758,431.723a24.324,24.324,0,0,0-7.912,9.161"/><path class="cls-1" d="M404.994,439.843c-3.388,1.824-6.644,3.97-10.618,4.372"/><path class="cls-1" d="M370.433,426.726q-.105.729-.209,1.458"/><path class="cls-1" d="M368.975,429.641q-6.969,14.2-12.7,4.372"/><path class="cls-1" d="M378.136,442.133q-7.467-2.644-10.41,8.328"/><path class="cls-1" d="M348.363,401.534l8.328,9.577"/><path class="cls-1" d="M356.9,412.36q-4.724,7.4-12.492,7.7"/><path class="cls-1" d="M603,126.5l1.249,9.994"/><path class="cls-1" d="M378.136,410.694a38.031,38.031,0,0,0-9.994-4.372"/><path class="cls-1" d="M107.68,397.369c4.136,2.758,14.592,12.072,19.571,10.827"/><path class="cls-1" d="M316.508,213.526c1.675.847,1.2,2.6,1.666,3.956"/><path class="cls-1" d="M318.382,217.9a10.711,10.711,0,0,1-8.953,3.54"/><path class="cls-1" d="M56.67,669.491l.625.417"/><path class="cls-1" d="M10.449,290.145a54.341,54.341,0,0,1,0,18.322"/><path class="cls-1" d="M603,619.522q.416,8.536.833,17.073"/><path class="cls-1" d="M604.245,137.324q1,6.214,1.457,12.492"/><path class="cls-1" d="M367.1,406.947a18,18,0,0,1-8.952,5.2"/><path class="cls-1" d="M393.96,445.048a90.877,90.877,0,0,0-8.329,8.745"/><path class="cls-1" d="M40.014,758.6l1.249,2.707"/><path class="cls-1" d="M318.382,217.69q3.964-11.6-11.243-4.789"/><path class="cls-1" d="M368.767,434.638a17.463,17.463,0,0,0-8.536,5.205"/><path class="cls-1" d="M128.292,258.706l-7.287,8.328"/><path class="cls-1" d="M91.857,388.417a73.56,73.56,0,0,0,8.536,4.788"/><path class="cls-1" d="M362.105,440.676c-1.774,1.773,3.352,7.308,5,8.952"/><path class="cls-1" d="M356.067,402.366a18.364,18.364,0,0,0,8.328,6.246"/><path class="cls-1" d="M384.8,441.925l-7.5,5.2"/><path class="cls-1" d="M346.906,425.477c-2.7.944-5.383,1.905-7.5,3.956"/><path class="cls-1" d="M367.31,398.41a39.452,39.452,0,0,0-9.265,2.291"/><path class="cls-1" d="M605.494,265.16q.417,3.748.833,7.5"/><path class="cls-1" d="M246.135,443.382l-1.874.625"/><path class="cls-1" d="M403.329,431.931q-2.18,4.584-4.373,9.161"/><path class="cls-1" d="M357.316,411.735a43.51,43.51,0,0,1,8.12,4.581"/><path class="cls-1" d="M143.7,405.906l-1.249,1.457"/><path class="cls-1" d="M139.327,408.612l-1.666.209"/><path class="cls-1" d="M378.969,383.42q3.039,4.039,1.249,7.5"/><path class="cls-1" d="M385.84,414.65c.13-.192-4.357,10.037-6.038,8.12"/><path class="cls-1" d="M377.1,425.061c-1.857,2-3.846,3.734-6.871,3.331"/><path class="cls-1" d="M351.694,451.086a16.011,16.011,0,0,0,6.455,6.454"/><path class="cls-1" d="M70,302.221c-.865,3.55-.719,2.932-1.665,6.246"/><path class="cls-1" d="M371.89,435.471q-8.823-2.574,3.331,5.621"/><path class="cls-1" d="M393.543,446.3a65.832,65.832,0,0,1,8.537,3.54"/><path class="cls-1" d="M380.218,427.559c2.387,3.318,8.045,6.921,11.66,9.369"/><path class="cls-1" d="M9.616,208.945l.417-1.665"/><path class="cls-1" d="M392.294,437.136l7.5,4.789"/><path class="cls-1" d="M269.87,422.562q6.048,1.093,2.915,4.789"/><path class="cls-1" d="M272.577,427.559l-3.748.833"/><path class="cls-1" d="M379.177,459.83l-2.5,6.455"/><path class="cls-1" d="M376.47,466.493l-.832,2.29"/><path class="cls-1" d="M81.238,285.981q-2.226-1.663-2.5,1.874"/><path class="cls-1" d="M385.007,405.7l7.287,4.788"/><path class="cls-1" d="M407.493,424.644l-4.372,6.038"/><path class="cls-1" d="M600.289,108.383l1.041,6.038"/><path class="cls-1" d="M601.33,115.254l1.249,7.912"/><path class="cls-1" d="M366.893,447.963a98.734,98.734,0,0,0,8.536,11.867"/><path class="cls-1" d="M401.039,399.243c-1.88,1.487-6.238,6.576-5.206,2.707"/><path class="cls-1" d="M343.158,406.739l5.621,4.788"/><path class="cls-1" d="M7.951,383.836q.465,2.925,1.041,5.83"/><path class="cls-1" d="M385.007,440.468a12.951,12.951,0,0,0,7.079,5.621"/><path class="cls-1" d="M363.146,423.6l5.413,5"/><path class="cls-1" d="M256.545,227.684a10.323,10.323,0,0,0,3.956,5.205"/><path class="cls-1" d="M335.038,421.521l5.2,4.164"/><path class="cls-1" d="M405.411,433.18q-4.371,4.784-9.578-3.331"/><path class="cls-1" d="M120.589,267.451l-4.581,4.58"/><path class="cls-1" d="M606.327,356.353v.625"/><path class="cls-1" d="M606.327,358.435v2.707"/><path class="cls-1" d="M606.327,363.016v8.744"/><path class="cls-1" d="M349.82,439.218l-5.2,2.082"/><path class="cls-1" d="M372.1,415.483l3.748,4.372"/><path class="cls-1" d="M414.155,437.344a10.874,10.874,0,0,1-8.744-3.331"/><path class="cls-1" d="M9.825,205.822,9.2,208.945"/><path class="cls-1" d="M45.011,699.889l.416,1.874"/><path class="cls-1" d="M126,407.78a59.418,59.418,0,0,0,6.454,1.873"/><path class="cls-1" d="M379.385,411.111c2.512.051,4.067,2.151,6.246,2.915"/><path class="cls-1" d="M604.245,450.878v5"/><path class="cls-1" d="M388.755,435.471q-.9,3.477-2.083,6.87"/><path class="cls-1" d="M393.335,430.266l-4.372,4.58"/><path class="cls-1" d="M605.911,171.885q.207,1.875.416,3.748"/><path class="cls-1" d="M388.755,420.272l4.372,3.747"/><path class="cls-1" d="M339.41,415.9l3.748,4.164"/><path class="cls-1" d="M398.956,421.937l-4.58,2.083"/><path class="cls-1" d="M338.578,429.433,341.7,433.6"/><path class="cls-1" d="M92.481,273.072,88.734,276.2"/><path class="cls-1" d="M354.609,395.5q1.458,2.289,2.915,4.58"/><path class="cls-1" d="M7.534,378.423,7.951,383"/><path class="cls-1" d="M180.343,360.934l-1.666,1.457"/><path class="cls-1" d="M373.556,391.123v8.12"/><path class="cls-1" d="M257.378,442.55l-4.58-.209"/><path class="cls-1" d="M76.241,290.353q-1.248,2.082-2.5,4.164"/><path class="cls-1" d="M590.5,76.945q.834,2.082,1.666,4.164"/><path class="cls-1" d="M395.209,403.2l-3.748,6.663"/><path class="cls-1" d="M601.746,556.645v4.164"/><path class="cls-1" d="M67.705,315.546c-.278,1.473-.631,1.848-3.331,3.539"/><path class="cls-1" d="M347.53,444.84l3.956,2.29"/><path class="cls-1" d="M365.852,398.619l3.54,2.915"/><path class="cls-1" d="M570.516,42.383l-3.331-2.915"/><path class="cls-1" d="M63.333,339.073l3.331,1.873"/><path class="cls-1" d="M97.478,271.406l3.748,1.666"/><path class="cls-1" d="M68.33,370.1l1.457,3.539"/><path class="cls-1" d="M598,98.6q.415,1.665.833,3.331"/><path class="cls-1" d="M368.767,403.616l-2.915,2.5"/><path class="cls-1" d="M605.911,279.318v3.331"/><path class="cls-1" d="M603.829,472.947v3.332"/><path class="cls-1" d="M8.784,211.86l-.625.417"/><path class="cls-1" d="M601.538,580.38q.1,1.666.208,3.331"/><path class="cls-1" d="M152.86,259.331,155.775,261"/><path class="cls-1" d="M526.793,14.067l3.123.625"/><path class="cls-1" d="M343.366,440.259l3.748,4.164"/><path class="cls-1" d="M108.721,273.9c-.9-.557-1.639-1.834-2.915-.625"/><path class="cls-1" d="M373.347,387.584q.105,1.561.209,3.123"/><path class="cls-1" d="M583.841,64.036l1.666,2.915"/><path class="cls-1" d="M83.112,384.253l2.915,1.249"/><path class="cls-1" d="M5.452,750.69h.625"/><path class="cls-1" d="M8.159,752.564l.833.625"/><path class="cls-1" d="M602.163,535.825v5.413"/><path class="cls-1" d="M62.708,319.918q-.268,3.082-2.5,2.706"/><path class="cls-1" d="M376.262,420.272q1.777,3.478,3.956,1.457"/><path class="cls-1" d="M588.838,73.2l1.249,2.915"/><path class="cls-1" d="M74.992,379.672l2.915,1.874"/><path class="cls-1" d="M179.718,481.275v2.915"/><path class="cls-1" d="M87.9,386.959q-1.474-2.885-1.874-.208"/><path class="cls-1" d="M7.534,209.57l.417,2.5"/><path class="cls-1" d="M524.711,14.067l-2.5-.416"/><path class="cls-1" d="M394.168,424.644l2.706,1.041"/><path class="cls-1" d="M574.264,47.8l1.665,2.5"/><path class="cls-1" d="M541.159,18.856,538.453,17.4"/><path class="cls-1" d="M6.91,462.953l-.417,2.707"/><path class="cls-1" d="M177.428,364.057q-.415.832-.833,1.666"/><path class="cls-1" d="M174.93,366.347l-1.041,1.249"/><path class="cls-1" d="M172.223,369.47l-.833,1.458"/><path class="cls-1" d="M382.092,456.916,380.01,459"/><path class="cls-1" d="M102.475,395.912a9.013,9.013,0,0,1,4.164.625"/><path class="cls-1" d="M403.537,431.1q-1.786-1.817-2.29,1.874"/><path class="cls-1" d="M393.96,424.228q-4.7,1.707-.209,3.956"/><path class="cls-1" d="M596.75,95.266q.416,1.249.832,2.5"/><path class="cls-1" d="M586.339,68.616l1.25,2.5"/><path class="cls-1" d="M388.963,415.483l-2.5-1.041"/><path class="cls-1" d="M70.828,350.107l-.833,2.5"/><path class="cls-1" d="M602.579,531.661v2.5"/><path class="cls-1" d="M603,518.752v2.5"/><path class="cls-1" d="M603.412,507.093v2.5"/><path class="cls-1" d="M169.308,371.969l-1.249,1.873"/><path class="cls-1" d="M169.933,372.177c-.182.415-7.08,6.038-7.079,6.038"/><path class="cls-1" d="M349.612,428.6l2.082,2.082"/><path class="cls-1" d="M379.177,422.978q-.936.834-1.874,1.666"/><path class="cls-1" d="M83.737,280.984l-1.666,1.457"/><path class="cls-1" d="M72.7,295.766c-.3.739-1.414,1.255-.625,2.29"/><path class="cls-1" d="M387.713,411.735q-.728,1.041-1.457,2.082"/><path class="cls-1" d="M489.317,11.569l-2.082.416"/><path class="cls-1" d="M175.763,366.347c.021.873-.03,1.658-1.25,1.041"/><path class="cls-1" d="M606.327,333.451v2.082"/><path class="cls-1" d="M60.418,324.082l1.249,1.457"/><path class="cls-1" d="M198.665,318.044l-1.249,1.666"/><path class="cls-1" d="M81.655,383.42q-1.433-1.446-1.874,0"/><path class="cls-1" d="M603.829,637.428v4.164"/><path class="cls-1" d="M603.829,463.786v2.082"/><path class="cls-1" d="M91.44,388.209l-1.665-.625"/><path class="cls-1" d="M197.624,291.394l1.041,1.666"/><path class="cls-1" d="M95.812,271.406l-2.082.625"/><path class="cls-1" d="M10.449,199.368l.208,2.082"/><path class="cls-1" d="M136.412,409.445l2.082,1.874"/><path class="cls-1" d="M63.333,337.2l-1.874.624"/><path class="cls-1" d="M349.612,412.36l1.874,1.458"/><path class="cls-1" d="M395.417,429.433c-.611-1.4-.808-1.044-1.249.208"/><path class="cls-1" d="M347.322,427.143l1.874,1.041"/><path class="cls-1" d="M136,255.791c.225.817.7,1.053,1.457.625"/><path class="cls-1" d="M143.7,258.29a2.027,2.027,0,0,0-2.915-1.041"/><path class="cls-1" d="M382.717,403.616l1.665,1.249"/><path class="cls-1" d="M103.932,395.287c-.473-.237-.395-1.761-1.457-.624"/><path class="cls-1" d="M394.792,401.325l-1.873-.624"/><path class="cls-1" d="M372.306,452.543,370.849,454"/><path class="cls-1" d="M179.3,485.439l-1.666,1.041"/><path class="cls-1" d="M200.747,313.464l-.416,1.665"/><path class="cls-1" d="M606.327,194.788v1.665"/><path class="cls-1" d="M386.881,418.814l1.457,1.041"/><path class="cls-1" d="M531.79,15.316l1.666.209"/><path class="cls-1" d="M9.825,285.148l.208,1.666"/><path class="cls-1" d="M605.494,283.9v1.665"/><path class="cls-1" d="M606.327,274.321v1.666"/><path class="cls-1" d="M134.33,257.249l-1.457-.625"/><path class="cls-1" d="M267.788,426.31v1.457"/><path class="cls-1" d="M267.788,427.975q-.1.834-.208,1.666"/><path class="cls-1" d="M495.979,11.569h-1.665"/><path class="cls-1" d="M606.327,211.028v1.665"/><path class="cls-1" d="M560.522,33.222l1.249,1.249"/><path class="cls-1" d="M259.877,442.133h-1.666"/><path class="cls-1" d="M565.1,36.97l1.249,1.665"/><path class="cls-1" d="M186.589,12.818h-1.666"/><path class="cls-1" d="M578.011,53.209l.833,1.666"/><path class="cls-1" d="M580.51,57.79l.833,1.666"/><path class="cls-1" d="M582.592,61.538q.416.833.833,1.665"/><path class="cls-1" d="M63.749,322.624l.417,1.666"/><path class="cls-1" d="M171.182,268.075q1.515-.69,2.082,1.249"/><path class="cls-1" d="M593.418,84.648l.417,1.458"/><path class="cls-1" d="M150.57,258.706l1.041.833"/><path class="cls-1" d="M380.218,409.237l-1.041,1.249"/><path class="cls-1" d="M63.957,325.123l-.624,2.5"/><path class="cls-1" d="M543.45,20.73l1.249.833"/><path class="cls-1" d="M365.436,406.53l-1.458,1.25"/><path class="cls-1" d="M68.538,357.394l-.208,1.458"/><path class="cls-1" d="M553.652,28.433l1.457,1.041"/><path class="cls-1" d="M599.248,104.427q.208.625.416,1.25"/><path class="cls-1" d="M86.652,278.485l-2.082,1.666"/><path class="cls-1" d="M353.568,393.414l.625,1.457"/><path class="cls-1" d="M67.5,341.779l.833,1.249"/><path class="cls-1" d="M391.253,462.329q.209.729.416,1.457"/><path class="cls-1" d="M89.15,388l1.249.833"/><path class="cls-1" d="M165.561,375.925l-.625,1.041"/><path class="cls-1" d="M343.366,435.679l.833,1.249"/><path class="cls-1" d="M391.045,416.316,389.8,415.9"/><path class="cls-1" d="M357.316,401.117l-2.082,1.041"/><path class="cls-1" d="M191.17,282.233l-.833.833"/><path class="cls-1" d="M195.75,288.9q.624,1.039,1.249,0"/><path class="cls-1" d="M605.911,347.609l.312,2.5"/><path class="cls-1" d="M179.927,275.571l2.29.624"/><path class="cls-1" d="M571.349,43.216l.833.832"/><path class="cls-1" d="M63.749,329.079l.417,2.29"/><path class="cls-1" d="M377.928,425.269l.625,1.041"/><path class="cls-1" d="M545.948,22.4l.833.833"/><path class="cls-1" d="M396.042,427.559l-.833,1.041"/><path class="cls-1" d="M108.1,274.113l-.624.625"/><path class="cls-1" d="M191.17,283.9c.655.244,1.265.5.416,1.249"/><path class="cls-1" d="M602.163,642.841l.624.625"/><path class="cls-1" d="M8.159,311.173l-1.666.208"/><path class="cls-1" d="M576.762,51.127l.416.833"/><path class="cls-1" d="M579.261,55.708l.416.833"/><path class="cls-1" d="M86.443,386.959l.625.625"/><path class="cls-1" d="M573.431,46.547l.416.416"/><path class="cls-1" d="M563.853,36.137l.417.416"/><path class="cls-1" d="M559.273,32.389l.416.417"/><path class="cls-1" d="M549.279,24.894l-.416.416"/><path class="cls-1" d="M553.235,28.017l-.624-.208"/><path class="cls-1" d="M148.28,258.5l.416.416"/><path class="cls-1" d="M87.068,277.236l-.416.417"/></svg>