<svg id="Layer_1" data-name="Layer 1" xmlns="http://www.w3.org/2000/svg" viewBox="0 0 612 792"><defs><style>.cls-1{fill:none;stroke:#000;stroke-linecap:round;stroke-linejoin:round;stroke-width:3px;}</style></defs><title>drawingArtboard 4</title><path class="cls-1" d="M489.705,171.477l-2.735,2.1"/><path class="cls-1" d="M484.235,176.105c-3.472,3.914-8.206,13.3-8.206,19.652,14.238-2.672,63.421-53.427,80.583-7.659"/><path class="cls-1" d="M556.612,190.413a29.7,29.7,0,0,1-4.628,8.836"/><path class="cls-1" d="M550.721,200.512l-.631.421"/><path class="cls-1" d="M548.617,202.2l-9.047,5.471"/><path class="cls-1" d="M536.414,207.666c-11.3,1.965-82.981-18.5-76.586,11.572"/><path class="cls-1" d="M459.828,220.71c2.018,9.836,4.172,20.368,12.2,27.563"/><path class="cls-1" d="M474.135,250.166l.842,1.052"/><path class="cls-1" d="M477.923,253.954l2.314,2.1"/><path class="cls-1" d="M481.71,257.32c11.925,12.191,26.375,29.1,12.624,46.078"/><path class="cls-1" d="M490.547,306.975l-11.572,8.836"/><path class="cls-1" d="M475.4,318.336l-11.572,8"/><path class="cls-1" d="M461.091,327.594a52.129,52.129,0,0,1-16.2,5.05"/><path class="cls-1" d="M441.734,332.644l-.632.42"/><path class="cls-1" d="M455.2,337.272l-.631.421"/><path class="cls-1" d="M443.838,339.8l-.632.421"/><path class="cls-1" d="M438.788,340.639l-1.052.421"/><path class="cls-1" d="M416.486,339.376l-.632-.42"/><path class="cls-1" d="M412.7,338.535l-.631-.421"/><path class="cls-1" d="M408.911,337.693l-.631-.421"/><path class="cls-1" d="M349.157,374.724l.421.631"/><path class="cls-1" d="M350,376.828l.421.631"/><path class="cls-1" d="M354.628,386.506l.421.631"/><path class="cls-1" d="M375.247,421.853l.421.632"/><path class="cls-1" d="M382.821,434.057l.421.631"/><path class="cls-1" d="M386.609,448.785l.421.631"/><path class="cls-1" d="M373.143,494.652l-.421.631"/><path class="cls-1" d="M360.94,500.543l-.421.842"/><path class="cls-1" d="M477.5,240.909A65.714,65.714,0,0,0,489.5,256.058"/><path class="cls-1" d="M489.705,256.268l1.894,1.894"/><path class="cls-1" d="M493.071,259.845l.421.631"/><path class="cls-1" d="M495.175,262.37l1.263,1.472"/><path class="cls-1" d="M498.542,266.157l7.154,10.31"/><path class="cls-1" d="M506.537,278.781l1.263,4"/><path class="cls-1" d="M507.8,285.093a40.1,40.1,0,0,1-9.469,18.936"/><path class="cls-1" d="M496.017,306.133l-10.73,10.1"/><path class="cls-1" d="M475.4,325.069l-9.889,8.837"/><path class="cls-1" d="M449.729,352.421l-2.1,4.419"/><path class="cls-1" d="M445.1,365.045l-.421.631"/><path class="cls-1" d="M443.417,371.357l-.421.631"/><path class="cls-1" d="M442.575,380.615a32.019,32.019,0,0,0,1.263,12.834"/><path class="cls-1" d="M443.838,394.922q.42,1.578.841,3.156"/><path class="cls-1" d="M444.679,400.393q1.263,4.523,2.525,9.047"/><path class="cls-1" d="M450.991,424.8c.141.21.281.421.421.631"/><path class="cls-1" d="M447.835,503.7l-1.472-2.1"/><path class="cls-1" d="M445.1,499.281l-.421-.631"/><path class="cls-1" d="M444.258,497.177l-.42-.631"/><path class="cls-1" d="M176.208,287.2c-12.712,2.966-24.87,5.336-35.558,13.886"/><path class="cls-1" d="M137.073,303.187c-52.748,46.051-71.55,102.3-26.089,163.9"/><path class="cls-1" d="M113.088,468.983a159.809,159.809,0,0,0,38.924,26.511"/><path class="cls-1" d="M154.326,496.335l1.052.421"/><path class="cls-1" d="M441.1,548.094l-4.839,4.418"/><path class="cls-1" d="M435,554.827a14.731,14.731,0,0,1,1.262,8.626"/><path class="cls-1" d="M430.793,568.713l-.631-.421"/><path class="cls-1" d="M427.426,567.451a5.1,5.1,0,0,0-5.68-.421"/><path class="cls-1" d="M419.852,567.03l-4.839-1.683"/><path class="cls-1" d="M413.54,565.347l-2.735,1.262"/><path class="cls-1" d="M407.649,569.134c-5.446,3.86-5.912,33.823-3.367,40.186"/><path class="cls-1" d="M404.282,611.214c-3.27,13.142-17.363,32.169-23.985,44.395"/><path class="cls-1" d="M379.455,657.5l-.421.631"/><path class="cls-1" d="M375.668,658.765l-1.894-.421"/><path class="cls-1" d="M370.618,658.344a11.562,11.562,0,0,0-6.1,2.525"/><path class="cls-1" d="M363.044,660.869l-2.525-2.736"/><path class="cls-1" d="M358.836,656.24c-14.546-12.23,6.12,20.651,9.652,26.1,11.044,17.051,12.406,14.78,29.287,33.3,16.009,17.562,21.474,38.565,51.744,35.275"/><path class="cls-1" d="M454.358,750.92c9.781,1.439,19,2.07,28.825.842"/><path class="cls-1" d="M484.655,751.762h8.627"/><path class="cls-1" d="M495.175,751.762c10.333-2.067,9.956-1.154,20.409-2.946"/><path class="cls-1" d="M520.844,748.4l.632-.42"/><path class="cls-1" d="M523.369,747.975l4.419.42"/><path class="cls-1" d="M531.364,748.4l.632.421"/><path class="cls-1" d="M461.722,184.942c-8.588,34.353-40.076,80.6-81,79.742"/><path class="cls-1" d="M377.351,270.365l.421.631"/><path class="cls-1" d="M378.193,274.994a40,40,0,0,1-8.837.631"/><path class="cls-1" d="M368.514,278.36q-.21,1.368-.421,2.735"/><path class="cls-1" d="M368.093,284.251v3.156"/><path class="cls-1" d="M368.093,290.984q-.42,4.524-.841,9.047"/><path class="cls-1" d="M367.252,302.346c-.836,3.2-1.414,6.483-2.946,9.468"/><path class="cls-1" d="M363.465,314.97l-1.263,3.156"/><path class="cls-1" d="M361.781,319.6q-5.616,9.821-11.361,19.567"/><path class="cls-1" d="M344.529,365.045l.42.631"/><path class="cls-1" d="M345.37,368.832l.421.632"/><path class="cls-1" d="M347.053,374.3l.842,2.735"/><path class="cls-1" d="M364.306,409.65l.421.631"/><path class="cls-1" d="M367.252,414.279l.421.631"/><path class="cls-1" d="M371.039,420.17l1.262,1.894"/><path class="cls-1" d="M373.564,424.378l1.262,2.315"/><path class="cls-1" d="M375.247,428.165l1.683,4"/><path class="cls-1" d="M377.351,433.636l1.262,3.156"/><path class="cls-1" d="M379.034,438.685l.421.632"/><path class="cls-1" d="M379.455,440.789l.421.632"/><path class="cls-1" d="M169.054,555.248c-30.528,2.035-65.221,5.469-95.522.42"/><path class="cls-1" d="M286.668,382.929l.211.842"/><path class="cls-1" d="M289.4,387.348l.42.631"/><path class="cls-1" d="M288.141,391.556h-6.522"/><path class="cls-1" d="M279.936,396.4l-.632,2.525"/><path class="cls-1" d="M279.3,400.813l-.42,1.052"/><path class="cls-1" d="M278.463,404.18l-.421,1.052"/><path class="cls-1" d="M277.621,407.125l-.421,1.052"/><path class="cls-1" d="M276.78,409.65l-4.209,10.731"/><path class="cls-1" d="M272.151,421.853l-4.629,8.206"/><path class="cls-1" d="M266.259,431.953l-7.574,9.468"/><path class="cls-1" d="M258.475,441.631l-10.31,12.835"/><path class="cls-1" d="M246.482,456.359l-1.263,1.473"/><path class="cls-1" d="M243.115,460.146l-6.943,6.733"/><path class="cls-1" d="M230.491,471.929l-.841.841"/><path class="cls-1" d="M227.546,474.454l-9.258,7.784"/><path class="cls-1" d="M198.09,495.073l-3.156,1.683"/><path class="cls-1" d="M193.04,497.177l-.631.421"/><path class="cls-1" d="M187.149,498.86l-1.052.421"/><path class="cls-1" d="M181.678,500.122l-1.472.421"/><path class="cls-1" d="M174.946,500.964l-2.315-.421"/><path class="cls-1" d="M169.054,500.543l-.631-.421"/><path class="cls-1" d="M163.584,499.7l-.631-.421"/><path class="cls-1" d="M161.48,499.281l-.631-.421"/><path class="cls-1" d="M155.589,498.018c-20.188,2.523-42.648.421-63.12.421"/><path class="cls-1" d="M463.2,695.374q.711-7.673,1.262-15.359"/><path class="cls-1" d="M464.457,678.121l.421-1.052"/><path class="cls-1" d="M464.878,673.493c5.279-23.759.558-52.94-8.416-17.043"/><path class="cls-1" d="M456.462,657.923,455.2,669.916"/><path class="cls-1" d="M455.2,672.23c2.115,35.794-11.628-5.626-12.2-19.988"/><path class="cls-1" d="M443,645.72q2.147-12.468-11.936-7.856c-.462,5.722,2.258,11.866,2.258,17.745"/><path class="cls-1" d="M433.318,657.5l.42,6.943"/><path class="cls-1" d="M433.738,666.76q.421,3.051.842,6.1"/><path class="cls-1" d="M434.58,676.438c-1.195,21.521-21.066,25-38.082,21.461"/><path class="cls-1" d="M395.025,697.9c-6.933,3.46-27.82-31.209-30.719-35.558"/><path class="cls-1" d="M581.44,694.954c20.96,5.716-1.726,30.138-8,37.661"/><path class="cls-1" d="M569.868,738.086c-8.1,9.617-14.512,10.276-19.568,23.144"/><path class="cls-1" d="M442.154,406.705q2.762,12.353,5.892,24.616"/><path class="cls-1" d="M440.471,489.182l1.052-.421"/><path class="cls-1" d="M441.734,546.411l.631-2.946"/><path class="cls-1" d="M443.417,539.257l-4.839-2.1"/><path class="cls-1" d="M436.263,537.153H434.37"/><path class="cls-1" d="M432.055,537.153l-.631.421"/><path class="cls-1" d="M428.689,537.574l-1.894-.421"/><path class="cls-1" d="M424.9,537.153l-.632-.421"/><path class="cls-1" d="M422.8,536.732l-3.577-.841"/><path class="cls-1" d="M417.327,535.891l-3.156-1.263"/><path class="cls-1" d="M411.857,534.628l-3.156-.421"/><path class="cls-1" d="M408.49,534.207l-1.262,1.473"/><path class="cls-1" d="M406.807,537.153l-.421,1.052"/><path class="cls-1" d="M406.386,543.465l1.263,3.577"/><path class="cls-1" d="M376.089,589.332l-.421.632"/><path class="cls-1" d="M373.985,596.907l-.421.631"/><path class="cls-1" d="M369.356,609.952l-.421.631"/><path class="cls-1" d="M360.94,621.313l-.421.632"/><path class="cls-1" d="M360.1,623.417l-.421,1.052"/><path class="cls-1" d="M359.677,626.784l-.42.631"/><path class="cls-1" d="M357.153,636.883l.42.631"/><path class="cls-1" d="M357.573,638.987v3.156"/><path class="cls-1" d="M576.39,687.169a14.714,14.714,0,0,0-11.993,4"/><path class="cls-1" d="M559.979,695.374l-5.26,4.208"/><path class="cls-1" d="M553.246,700.845a53.912,53.912,0,0,0-13.886,9.047"/><path class="cls-1" d="M536.414,711.365c-13.569,1.835-.5-63.241.584-66.908-5.749,0-11.354.2-17-1.052"/><path class="cls-1" d="M519.582,645.3q-.21.736-.421,1.473"/><path class="cls-1" d="M519.161,648.665v1.894"/><path class="cls-1" d="M519.161,652.873a61.123,61.123,0,0,1-3.366,15.78"/><path class="cls-1" d="M515.795,670.126q-.421,3.893-.842,7.785"/><path class="cls-1" d="M514.532,679.805c-2.147,12.646,2.464,22.6-11.572,21.04"/><path class="cls-1" d="M501.487,700.845l-1.472.421"/><path class="cls-1" d="M496.438,701.266c-2.262-13.572,1.447-28.915,2.1-42.712"/><path class="cls-1" d="M498.542,657.081a72.717,72.717,0,0,0,3.913-15.9l-10.015-.507"/><path class="cls-1" d="M492.23,642.774c-.477,13.362-6.387,27.084-6.312,40.187"/><path class="cls-1" d="M485.918,686.117q.42,3.051.841,6.1"/><path class="cls-1" d="M486.759,693.691c-1.8,8.2-5.144,2.862-12.413,5.891"/><path class="cls-1" d="M470.348,699.582l-8.837-2.945"/><path class="cls-1" d="M537.256,168.531c9.586,3.571,15.774,5.475,23.564,11.572"/><path class="cls-1" d="M561.031,180.313q2,2.841,4,5.681"/><path class="cls-1" d="M565.449,187.888a15.7,15.7,0,0,1-2.524,9.047"/><path class="cls-1" d="M562.714,197.145q-1.368,2-2.735,4"/><path class="cls-1" d="M558.3,203.037l-2.736,2.524"/><path class="cls-1" d="M529.26,217.344l-1.893.421"/><path class="cls-1" d="M522.948,218.186c-12.874-.678-24.118-4.311-36.4-8"/><path class="cls-1" d="M484.655,210.19l-4-.42"/><path class="cls-1" d="M478.343,209.77c-13.831,2.588-5.4,25.171-1.683,29.876"/><path class="cls-1" d="M314.336,178c-2.327.407-4.124-.861-6-1.894"/><path class="cls-1" d="M307.919,178.63v4"/><path class="cls-1" d="M306.236,185.363c-33.185-.79-54.786,6.764-81,26.931"/><path class="cls-1" d="M223.969,213.767c-17.325,17.152-29.212,37.8-39.345,59.754"/><path class="cls-1" d="M184.624,274.994l-.421.631"/><path class="cls-1" d="M181.678,162.219c1.5,15.964-.663,53.77,21.672,57.019"/><path class="cls-1" d="M69.956,481.818c-4.181,7.863-12.393,18.363-12.638,28.2,9.706-5.271,17-33.586,13.058-28.622"/><path class="cls-1" d="M344.949,347.372l-7.784,9.678"/><path class="cls-1" d="M335.271,358.733c-5.275,5.08-10.76,9.878-17.463,13.045"/><path class="cls-1" d="M316.335,372.62a64.819,64.819,0,0,1-12.835,4.629"/><path class="cls-1" d="M300.765,377.669l-1.893.842"/><path class="cls-1" d="M296.557,378.932l-4,1.262"/><path class="cls-1" d="M290.245,380.194l-4,.421"/><path class="cls-1" d="M452.254,342.743q-.422.525-.842,1.052"/><path class="cls-1" d="M449.729,345.688l-.421.632"/><path class="cls-1" d="M443,354.946,442.154,356"/><path class="cls-1" d="M439.63,362.941l-1.263,4"/><path class="cls-1" d="M438.367,368.832l-.421.632"/><path class="cls-1" d="M437.526,374.3v8.2"/><path class="cls-1" d="M437.736,385.454a68.242,68.242,0,0,0,4.208,19.357"/><path class="cls-1" d="M68.062,520.321c3.661,13.91,4,17.441,4,35.137"/><path class="cls-1" d="M424.691,333.7a71.757,71.757,0,0,0-16.411-5.261"/><path class="cls-1" d="M405.966,328.436a40.717,40.717,0,0,1-9.468-1.263"/><path class="cls-1" d="M394.6,327.173l-8.626.842"/><path class="cls-1" d="M383.663,328.015l-.631.421"/><path class="cls-1" d="M378.193,328.856l-1.052.421"/><path class="cls-1" d="M366.831,331.381l-.631.421"/><path class="cls-1" d="M364.306,332.223l-.631.421"/><path class="cls-1" d="M357.153,336.01l-.632.421"/><path class="cls-1" d="M449.308,505.172q17.643-1.931,8.416-11.572"/><path class="cls-1" d="M456.462,492.127a10.7,10.7,0,0,0-6.523-8"/><path class="cls-1" d="M443.417,486.657c-.987.825-2.4,1.478-1.263,3.156"/><path class="cls-1" d="M442.154,491.286l-.21,1.893"/><path class="cls-1" d="M271.1,537.574c14.089,26.221-39.012,24.846,5.47,51.127"/><path class="cls-1" d="M332.746,643.2c-6.543,4.789.292,21.213,2.946,26.3"/><path class="cls-1" d="M342.635,675.386l.842.211"/><path class="cls-1" d="M349.157,670.126l.421-.631"/><path class="cls-1" d="M355.469,664.235l.632-.421"/><path class="cls-1" d="M351.261,488.34q.211.737.421,1.473"/><path class="cls-1" d="M204.191,492.548c0,5.516-3.259,11.083-4,16.622"/><path class="cls-1" d="M199.562,511.274l-.21,1.683"/><path class="cls-1" d="M199.352,515.271v3.577"/><path class="cls-1" d="M199.352,522q.21,1.158.421,2.315"/><path class="cls-1" d="M199.773,526.633a68.9,68.9,0,0,0,12.834,20.619"/><path class="cls-1" d="M214.08,548.515l5.471,3.787"/><path class="cls-1" d="M166.74,501.385c-1.229,17.18,3.182,34.715,2.1,51.969"/><path class="cls-1" d="M307.5,633.937c12.605,0,18.332,10.364,31.35,7.575"/><path class="cls-1" d="M340.321,641.512a7.994,7.994,0,0,1,5.47,3.577"/><path class="cls-1" d="M325.592,501.385c-7.536-1.449-15.156-1.264-22.723-2.525"/><path class="cls-1" d="M285.2,498.018q-3.963,10.325-8,20.62"/><path class="cls-1" d="M83.632,493.81Q67.5,503.872,73.743,519.69"/><path class="cls-1" d="M81.528,499.7q-2.61,9.923-5.471,19.777"/><path class="cls-1" d="M517.057,164.323c-5.983-.641-11.746.537-17.463,2.1"/><path class="cls-1" d="M217.026,486.657q-12.278,10.738,1.683,18.936"/><path class="cls-1" d="M263.314,514.219q-8.915-8.729,3.787-16.832"/><path class="cls-1" d="M267.1,495.494c-3.349-3.739-6.585-7.594-10.73-10.52"/><path class="cls-1" d="M254.267,483.5a71.942,71.942,0,0,0-12.624-4.839"/><path class="cls-1" d="M238.907,478.662h-1.052"/><path class="cls-1" d="M235.12,478.662l-9.047,2.1"/><path class="cls-1" d="M222.917,481.607l-1.894.842"/><path class="cls-1" d="M219.551,482.87l-1.263.21"/><path class="cls-1" d="M267.732,496.966q2.691,5.136,5.681,10.1"/><path class="cls-1" d="M273.834,508.539a76.718,76.718,0,0,1,1.683,11.992"/><path class="cls-1" d="M275.517,522.846q-.21.736-.421,1.473"/><path class="cls-1" d="M274.676,527.475q-1.053,3.471-2.1,6.943"/><path class="cls-1" d="M263.314,544.307l-7.785,5.47"/><path class="cls-1" d="M329.8,569.134l-5.892,15.99"/><path class="cls-1" d="M356.942,633.937c-3.4,2.766-10.211,9.226-14.938,6.312"/><path class="cls-1" d="M332.115,152.33l-11.362,14.307"/><path class="cls-1" d="M230.491,172.318a148.8,148.8,0,0,1-.841,25.669"/><path class="cls-1" d="M220.6,483.08c-2.193,6.029,1.488,8.714,5.365,13.466"/><path class="cls-1" d="M253.215,535.47l-14.308,5.47"/><path class="cls-1" d="M98.781,474.874a24.535,24.535,0,0,1-9.469,13.256"/><path class="cls-1" d="M308.34,610.372l-13.676-8.626"/><path class="cls-1" d="M249.007,552.723l-4.419,1.683"/><path class="cls-1" d="M242.7,554.827l-1.052.42"/><path class="cls-1" d="M239.749,555.247h-7.364"/><path class="cls-1" d="M228.387,554.827l-.631-.421"/><path class="cls-1" d="M225.021,553.564l-2.735-1.683"/><path class="cls-1" d="M220.813,551.039l-.631-.21"/><path class="cls-1" d="M214.08,508.539c-3.654-4.071-9.985-1-13.676.841"/><path class="cls-1" d="M182.1,277.519a2.372,2.372,0,0,1-3.156,0"/><path class="cls-1" d="M177.47,280.464l.421.631"/><path class="cls-1" d="M177.891,282.989l.211,3.787"/><path class="cls-1" d="M225.652,498.018l-4.839,6.313"/><path class="cls-1" d="M221.655,506.014a28.3,28.3,0,0,1-6.1,11.993"/><path class="cls-1" d="M229.439,198.829a139.744,139.744,0,0,0-4.628,13.255"/><path class="cls-1" d="M579.757,691.587l.841-1.473"/><path class="cls-1" d="M575.549,688.221a44.865,44.865,0,0,1-11.362,4"/><path class="cls-1" d="M299.924,510.643a33.805,33.805,0,0,0-12.624-3.788"/><path class="cls-1" d="M97.939,482.449a113.6,113.6,0,0,1-14.728,10.52"/><path class="cls-1" d="M223.127,518.848q-7.377,5.894,4,13.045"/><path class="cls-1" d="M226.915,534c-1.647,4.94-4.651,25.7,3.787,13.045"/><path class="cls-1" d="M276.99,589.122l11.151,8.626"/><path class="cls-1" d="M343.687,140.758l-10.31,10.31"/><path class="cls-1" d="M320.332,167.058c-2.23,3.325-4.971,6.374-5.68,10.52"/><path class="cls-1" d="M219.34,531.051c9.882,3.8,11.612,17.318,18.515,8.416"/><path class="cls-1" d="M263.735,514.43q-3.368,5.049-6.733,10.1"/><path class="cls-1" d="M255.739,512.326q-4.706,4.444-9.257,9.047"/><path class="cls-1" d="M402.6,552.723a24.929,24.929,0,0,1-3.577,10.309"/><path class="cls-1" d="M336.533,543.044q-1.232,5.138-2.314,10.31"/><path class="cls-1" d="M317.6,598.169a16.67,16.67,0,0,1-3.787,10.1"/><path class="cls-1" d="M209.451,527.9q-3.766-6.08-9.889-6.732"/><path class="cls-1" d="M245.851,506.435c-6.1,10.752-7.108,6.835.841,17.042"/><path class="cls-1" d="M247.534,501.174c3.324,2,5.789,4.4,6.943,8.627"/><path class="cls-1" d="M272.782,522.846a11.155,11.155,0,0,0-8.416-7.364"/><path class="cls-1" d="M234.068,524.95,238.907,534"/><path class="cls-1" d="M235.541,544.727a8.587,8.587,0,0,1,5.47,8.416"/><path class="cls-1" d="M231.543,485.815l-5.26,10.31"/><path class="cls-1" d="M227.125,498.018l6.522,5.261"/><path class="cls-1" d="M234.7,504.331a54.756,54.756,0,0,0,4.419,9.888"/><path class="cls-1" d="M262.051,528.316q3.3,5.493,9.048,5.681"/><path class="cls-1" d="M242.7,481.607l1.262,5.681"/><path class="cls-1" d="M244.378,490.023a11.438,11.438,0,0,1,1.052,8.837"/><path class="cls-1" d="M231.543,486.657a25.674,25.674,0,0,1,5.892,8.416"/><path class="cls-1" d="M246.692,524.95a68.535,68.535,0,0,0-5.891,8.837"/><path class="cls-1" d="M211.555,525.791a39.587,39.587,0,0,1,6.312,4.629"/><path class="cls-1" d="M233.647,521.794q4.95,5.408-5.891,10.52"/><path class="cls-1" d="M227.756,513.378l5.471,8.2"/><path class="cls-1" d="M299.082,576.288a24.25,24.25,0,0,0-8-5.05"/><path class="cls-1" d="M218.5,518.848c-.938,3.382-3.54,5.043-6.523,6.312"/><path class="cls-1" d="M287.3,585.966c3.057.884,5.033,3.391,7.574,5.05"/><path class="cls-1" d="M386.609,543.886c1.42,2.484,1.436,5.264,1.683,8"/><path class="cls-1" d="M104.882,460.988c-2.171,2.118-3.318,4.832-4.418,7.574"/><path class="cls-1" d="M294.032,548.515l7.575,5.891"/><path class="cls-1" d="M243.536,489.813q-9.855,8.024,1.052,15.149"/><path class="cls-1" d="M210.082,514.219l-6.943-5.47"/><path class="cls-1" d="M477.923,167.689a10.014,10.014,0,0,0-2.946,7.364"/><path class="cls-1" d="M323.068,586.808a56.549,56.549,0,0,1-3.787,7.153"/><path class="cls-1" d="M248.165,544.307a43.95,43.95,0,0,1,5.47,6.732"/><path class="cls-1" d="M347.9,507.7l-7.154-2.1"/><path class="cls-1" d="M256.581,528.316a39.661,39.661,0,0,1-1.052,13.255"/><path class="cls-1" d="M73.112,500.543l-4.629,6.733"/><path class="cls-1" d="M253.635,491.075l2.525,3.367"/><path class="cls-1" d="M256.581,495.914l1.683,5.05"/><path class="cls-1" d="M242.7,547.673q.525,3.366,1.052,6.733"/><path class="cls-1" d="M235.751,480.134a17.789,17.789,0,0,0,6.1,5.26"/><path class="cls-1" d="M332.746,561.139q-1.262,3.366-2.525,6.733"/><path class="cls-1" d="M216.4,535.68q-5.45,3.167,3.156,7.785"/><path class="cls-1" d="M273.2,507.907l-6.523,2.315"/><path class="cls-1" d="M280.146,582.179l6.312,3.366"/><path class="cls-1" d="M68.062,508.539q-.421,2.945-.842,5.891"/><path class="cls-1" d="M250.269,522c2.538.118,4.149,1.857,5.891,3.367"/><path class="cls-1" d="M196.827,129.817v5.891"/><path class="cls-1" d="M224.6,481.818a7.073,7.073,0,0,0,5.05,4"/><path class="cls-1" d="M338.848,570.186a6.356,6.356,0,0,0,5.681.631"/><path class="cls-1" d="M334.429,554.827q-.63,2.735-1.262,5.47"/><path class="cls-1" d="M278.463,563.663l5.47,4.208"/><path class="cls-1" d="M222.286,213.767c-1.336,1.747-3.264,2.51-5.26,3.156"/><path class="cls-1" d="M222.5,507.066l3.156,5.26"/><path class="cls-1" d="M258.475,489.392c-.6,1.694-.476,3.737-2.315,4.839"/><path class="cls-1" d="M210.293,499.7l-4.629,4.208"/><path class="cls-1" d="M255.108,484.763l-1.893,5.05"/><path class="cls-1" d="M238.907,498.229l-3.156,5.05"/><path class="cls-1" d="M239.959,516.744l-4.628,5.05"/><path class="cls-1" d="M254.687,496.966q-1.893,2.1-3.787,4.208"/><path class="cls-1" d="M522.948,165.165l-4.628-.421"/><path class="cls-1" d="M307.5,580.5l4.629,1.683"/><path class="cls-1" d="M106.145,463.723l-2.946,4.629"/><path class="cls-1" d="M288.983,598.169l4.208,2.525"/><path class="cls-1" d="M356.732,130.238l-4.419,3.156"/><path class="cls-1" d="M87.419,498.018l4.208.421"/><path class="cls-1" d="M195.144,120.98q.422,2.1.842,4.208"/><path class="cls-1" d="M477.081,173.581q-6.615,1.3-3.787,5.049"/><path class="cls-1" d="M235.751,479.082q-1.471,2.631-2.945,5.26"/><path class="cls-1" d="M383.242,507.276c-.727-1.345-1.1-3-2.945-3.366"/><path class="cls-1" d="M209.451,533.366l-3.787,3.577"/><path class="cls-1" d="M331.484,502.647l3.787,1.683"/><path class="cls-1" d="M164.846,498.018l-3.787.211"/><path class="cls-1" d="M330.221,502.647l-3.787-.841"/><path class="cls-1" d="M226.7,512.747c-1.59.224-1.379.414,0,1.052"/><path class="cls-1" d="M262.893,538.415l3.577,2.315"/><path class="cls-1" d="M352.734,509.17l-3.577-.631"/><path class="cls-1" d="M476.239,182q2.325,2.678-.841,2.1"/><path class="cls-1" d="M339.479,538l-2.1,3.366"/><path class="cls-1" d="M301.186,577.55l3.366,1.683"/><path class="cls-1" d="M339.9,505.172l-3.367-.421"/><path class="cls-1" d="M101.726,471.508l-.421,3.366"/><path class="cls-1" d="M348.105,136.76l-2.945,2.525"/><path class="cls-1" d="M230.491,509.38l-2.735,3.156"/><path class="cls-1" d="M210.924,515.061l3.156,2.314"/><path class="cls-1" d="M257,504.331l2.314,3.156"/><path class="cls-1" d="M257,535.68l5.049,2.735"/><path class="cls-1" d="M529.26,166.427l-2.945-.421"/><path class="cls-1" d="M310.654,610.583q.708,2.441-1.473,1.052"/><path class="cls-1" d="M198.931,118.456l-2.945,1.262"/><path class="cls-1" d="M359.467,127.713l-1.894,2.1"/><path class="cls-1" d="M239.539,535.47c.808,1.626-.814,2.394-1.263,3.577"/><path class="cls-1" d="M230.491,168.531v2.525"/><path class="cls-1" d="M290.245,544.727l2.525,2.525"/><path class="cls-1" d="M230.071,162.219l.42,2.525"/><path class="cls-1" d="M357.994,501.806l-2.525,2.525"/><path class="cls-1" d="M464.457,184.1l-2.209.21"/><path class="cls-1" d="M218.288,532.945l-1.473,2.314"/><path class="cls-1" d="M223.338,546.831l-1.473,1.894"/><path class="cls-1" d="M498.542,136.971l-1.683,2.1"/><path class="cls-1" d="M287.72,542.623l-2.1-1.262"/><path class="cls-1" d="M315.493,515.271l-2.1-.42"/><path class="cls-1" d="M576.39,31.771l-1.262,1.683"/><path class="cls-1" d="M196.406,126.451v2.1"/><path class="cls-1" d="M535.572,168.11l-2.1-.421"/><path class="cls-1" d="M229.65,145.387v2.1"/><path class="cls-1" d="M536.624,747.554l-.631,2.1"/><path class="cls-1" d="M367.673,123.084l-2.1,1.263"/><path class="cls-1" d="M310.864,613.318v2.1"/><path class="cls-1" d="M353.155,509.38q-.21,1.578-.421,3.156"/><path class="cls-1" d="M373.143,524.95l-1.262,1.683"/><path class="cls-1" d="M102.778,468.773l-.631,1.893"/><path class="cls-1" d="M221.444,549.146q-1.621,1.477-3.156-.421"/><path class="cls-1" d="M318.018,516.113l-1.683-.421"/><path class="cls-1" d="M343.266,536.311l-1.683.421"/><path class="cls-1" d="M300.344,498.018l1.684.421"/><path class="cls-1" d="M211.976,130.238v1.683"/><path class="cls-1" d="M88.892,488.55l-1.684,1.263"/><path class="cls-1" d="M286.458,568.713l-1.683-.421"/><path class="cls-1" d="M251.952,489.6l1.263,1.263"/><path class="cls-1" d="M263.314,509.8l1.683.421"/><path class="cls-1" d="M243.747,555.037v1.683"/><path class="cls-1" d="M402.178,549.356v1.683"/><path class="cls-1" d="M347.9,525.791q-.21.841-.421,1.684"/><path class="cls-1" d="M252.583,491.5l-1.472.631"/><path class="cls-1" d="M216.184,217.344l-1.683.421"/><path class="cls-1" d="M295.716,591.436l1.262.842"/><path class="cls-1" d="M224.6,516.955l-1.052,1.472"/><path class="cls-1" d="M196.827,139.916l.421,1.263"/><path class="cls-1" d="M276.78,519.479l-1.052,1.263"/><path class="cls-1" d="M278.042,580.5l1.262.841"/><path class="cls-1" d="M421.114,107.094l-1.262-.421"/><path class="cls-1" d="M386.188,113.406l-1.263.421"/><path class="cls-1" d="M365.989,561.56l.421,1.262"/><path class="cls-1" d="M275.517,578.812l-1.262-.841"/><path class="cls-1" d="M364.727,568.713l-1.262.842"/><path class="cls-1" d="M485.076,156.749l-.841,1.262"/><path class="cls-1" d="M354.207,507.276q-.21.632-.421,1.263"/><path class="cls-1" d="M390.4,515.692q.42.632.842,1.263"/><path class="cls-1" d="M288.562,543.044l.842.842"/><path class="cls-1" d="M270.678,534.628l.421,1.052"/><path class="cls-1" d="M496.017,140.337q-.42.422-.842.842"/><path class="cls-1" d="M233.647,505.383l-.21,1.052"/><path class="cls-1" d="M386.188,511.063l.842.842"/><path class="cls-1" d="M223.759,213.136l-1.052.21"/><path class="cls-1" d="M478.764,166.006l-.421.842"/><path class="cls-1" d="M351.261,134.025l-.631.631"/><path class="cls-1" d="M209.872,122.243l.421.841"/><path class="cls-1" d="M100.043,469.4l-.421.842"/><path class="cls-1" d="M510.324,120.56l-.42.841"/><path class="cls-1" d="M232.385,484.763q-.21.421-.421.842"/><path class="cls-1" d="M333.588,612.9l.421.842"/><path class="cls-1" d="M488.443,150.857l-.421.842"/><path class="cls-1" d="M363.885,664.235l-.631-.631"/><path class="cls-1" d="M245.009,487.288l-.631.421"/><path class="cls-1" d="M397.55,530l-.421.421"/><path class="cls-1" d="M361.361,569.134l.42.421"/><path class="cls-1" d="M332.746,610.372l.421.421"/><path class="cls-1" d="M430.793,101.2q-1.627.654,0,.841"/><path class="cls-1" d="M538.518,75.955l-.421.42"/><path class="cls-1" d="M212.4,139.075l.421.421"/><path class="cls-1" d="M244.8,541.361l.631.631"/></svg>