<svg id="Layer_1" data-name="Layer 1" xmlns="http://www.w3.org/2000/svg" viewBox="0 0 612 792"><defs><style>.cls-1{fill:none;stroke:#000;stroke-linecap:round;stroke-linejoin:round;stroke-width:3px;}</style></defs><title>drawingArtboard 6</title><path class="cls-1" d="M473.258,109.2c8.321,7.488,19.029,12.265,27.37,20.167"/><path class="cls-1" d="M500.628,129.571a24.934,24.934,0,0,1,3.7,10.906"/><path class="cls-1" d="M504.332,141.918l-2.47,4.321"/><path class="cls-1" d="M500.628,147.68a318.073,318.073,0,0,0-19.344,27.781"/><path class="cls-1" d="M480.461,176.9l-2.058,2.676"/><path class="cls-1" d="M476.756,181.017l-.823,1.029"/><path class="cls-1" d="M473.052,185.133l-2.058,2.264"/><path class="cls-1" d="M469.76,188.837l-1.647,2.264"/><path class="cls-1" d="M466.879,192.541l-3.293,4.322"/><path class="cls-1" d="M463.586,197.069l-1.852,2.057"/><path class="cls-1" d="M457,204.888c-16.8,9.637-41.742-15.987-41.569,18.727"/><path class="cls-1" d="M415.432,226.29q.206,4.631.412,9.261"/><path class="cls-1" d="M415.844,236.991l.411,3.087"/><path class="cls-1" d="M416.255,241.518C408,267.233,383.514,228.585,379.9,226.854c-17.59-8.42-34.347,4.984-48.71-3.674-29.559-17.819,28.172-26.468,30.593-35.18,3.323-11.96-22.173-27.066-19.815-39.5"/><path class="cls-1" d="M339.7,150.149l-.411.618"/><path class="cls-1" d="M338.468,152.207l-2.058,3.5"/><path class="cls-1" d="M334.764,158.792l-1.235,2.264"/><path class="cls-1" d="M332.294,163.731l-2.469,4.322"/><path class="cls-1" d="M328.178,171.551l-1.234,2.264"/><path class="cls-1" d="M324.886,177.313l-.412.617"/><path class="cls-1" d="M323.651,179.782l-1.235,2.264"/><path class="cls-1" d="M321.182,184.31l-.412.617"/><path class="cls-1" d="M319.947,186.779l-4.116,8.026"/><path class="cls-1" d="M313.362,200.361l-.412.617"/><path class="cls-1" d="M312.539,202.419l-.412.617"/><path class="cls-1" d="M310.069,213.12l1.235,3.087"/><path class="cls-1" d="M313.773,218.47l1.235.824"/><path class="cls-1" d="M317.478,220.528c11.415,6.9,23.1,13.3,34.777,19.756"/><path class="cls-1" d="M353.7,241.107c8.883,4.8,17.4,10.159,26.135,15.228"/><path class="cls-1" d="M380.037,256.541c18.844,11.358,33.23,30.016,49.388,9.055"/><path class="cls-1" d="M430.66,263.743l6.585-11.318"/><path class="cls-1" d="M438.069,250.985q5.62-12.312,11.524-24.489"/><path class="cls-1" d="M452.062,222.175l2.469-4.734"/><path class="cls-1" d="M454.943,215.589q.618-2.572,1.235-5.144"/><path class="cls-1" d="M456.589,209l.412-.617"/><path class="cls-1" d="M457.824,206.535q.1-.823.206-1.647"/><path class="cls-1" d="M245.041,387.421q2.184.806.411,4.116"/><path class="cls-1" d="M245.658,391.743l1.646.823"/><path class="cls-1" d="M270.97,402.444l.617.411"/><path class="cls-1" d="M273.851,403.678q2.365,1.236,4.733,2.47"/><path class="cls-1" d="M281.259,407.383q20.487,1.245,9.055,19.138"/><path class="cls-1" d="M289.079,431.665q-.411,1.132-.823,2.264"/><path class="cls-1" d="M287.021,438.662q-.617,1.749-1.235,3.5"/><path class="cls-1" d="M285.375,444.013q-.412.925-.823,1.852"/><path class="cls-1" d="M282.494,452.244l-.412.617"/><path class="cls-1" d="M281.671,454.713q-.412.927-.823,1.853"/><path class="cls-1" d="M280.436,458.418l-1.235,3.5"/><path class="cls-1" d="M278.79,463.357l-.824,2.263"/><path class="cls-1" d="M276.732,469.53l-.412.617"/><path class="cls-1" d="M275.909,472l-.412.617"/><path class="cls-1" d="M273.851,478.173l-.412.618"/><path class="cls-1" d="M273.028,480.643q-1.236,3.807-2.47,7.614"/><path class="cls-1" d="M270.147,489.7l-.412,1.029"/><path class="cls-1" d="M269.323,492.167l-1.646,5.144"/><path class="cls-1" d="M267.266,499.163q-1.647,5.043-3.293,10.084"/><path class="cls-1" d="M263.561,511.1a184.838,184.838,0,0,1-7.819,19.55"/><path class="cls-1" d="M186.8,381.248c-1.241,6.825-2.387,15.474-5.556,21.813"/><path class="cls-1" d="M180.835,405.325l-.411,1.029"/><path class="cls-1" d="M180.012,407.794q-1.647,6.071-3.293,12.142"/><path class="cls-1" d="M176.308,422.2q-.824,2.572-1.646,5.145"/><path class="cls-1" d="M174.25,430.431l-6.174,22.019"/><path class="cls-1" d="M167.665,454.3c-15.317,53.941-3.408,28.078,26.546,58.032"/><path class="cls-1" d="M373.246,542.584l1.029,8.232"/><path class="cls-1" d="M374.275,554.314l.411,1.441"/><path class="cls-1" d="M375.509,567.485l.412.617"/><path class="cls-1" d="M375.921,570.777l.412.618"/><path class="cls-1" d="M376.744,576.128q.205.72.412,1.44"/><path class="cls-1" d="M377.156,580.655l.411,1.029"/><path class="cls-1" d="M377.979,586.005l.411.618"/><path class="cls-1" d="M378.8,590.533l.412,1.029"/><path class="cls-1" d="M379.625,594.648l.412.618"/><path class="cls-1" d="M381.683,604.938l.412,1.029"/><path class="cls-1" d="M382.506,609.054l.412.617"/><path class="cls-1" d="M384.152,616.462q.413,1.543.824,3.087"/><path class="cls-1" d="M385.387,623.459l.412.617"/><path class="cls-1" d="M386.21,627.574l.412.618"/><path class="cls-1" d="M387.033,631.69l.412.617"/><path class="cls-1" d="M388.268,636.217l.412.618"/><path class="cls-1" d="M389.091,638.687l.412,1.029"/><path class="cls-1" d="M493.631,426.521l5.145-3.087"/><path class="cls-1" d="M504.743,420.141q4.449-1.7,0-6.379"/><path class="cls-1" d="M501.451,409.44l-2.47-3.91"/><path class="cls-1" d="M497.747,403.267l-.823-1.029"/><path class="cls-1" d="M496.1,400.8l-6.585-9.26"/><path class="cls-1" d="M486.634,387.627l-1.44-1.235"/><path class="cls-1" d="M483.753,385.158l-2.263-1.647"/><path class="cls-1" d="M479.637,382.277l-.617-.412"/><path class="cls-1" d="M477.58,380.63l-.618-.411"/><path class="cls-1" d="M475.522,379.4a21.234,21.234,0,0,0-17.492,6.585"/><path class="cls-1" d="M456.178,388.039q-1.442,1.954-2.881,3.91"/><path class="cls-1" d="M453.3,393.8q.411,1.337.823,2.675"/><path class="cls-1" d="M454.12,398.328a263.17,263.17,0,0,0,15.434,39.305"/><path class="cls-1" d="M116.218,583.536c-61.056,5.549-44.475,101.406-53.8,132.926l14.907-.605"/><path class="cls-1" d="M186.186,565.221c9.26-4.091,30.077-6.142,31.279-20.579"/><path class="cls-1" d="M217.877,542.79l.411-1.44"/><path class="cls-1" d="M218.288,538.674c-1.647-5.491-4.784-9.954-8.643-14.2"/><path class="cls-1" d="M208,522.623l-3.7-4.733"/><path class="cls-1" d="M201,515.626l-.617-.411"/><path class="cls-1" d="M198.533,513.98l-2.675-1.646"/><path class="cls-1" d="M193.594,512.745l-4.322,2.881"/><path class="cls-1" d="M187.832,516.449l-3.7,3.5"/><path class="cls-1" d="M180.835,523.035l-7.614,6.585"/><path class="cls-1" d="M173.015,529.826c-16.5,14.2-3.318,16.551,5.129,34.775a18.734,18.734,0,0,1-12.331-2.878"/><path class="cls-1" d="M164.372,561.723l-.617.411"/><path class="cls-1" d="M162.314,562.134a45.483,45.483,0,0,0-10.906,4.527"/><path class="cls-1" d="M149.967,567.485l-1.029.823"/><path class="cls-1" d="M142.765,573.452l-5.557,4.939"/><path class="cls-1" d="M135.562,581.067l-1.235,2.263"/><path class="cls-1" d="M133.916,584.771v2.263"/><path class="cls-1" d="M134.327,590.121q.618,1.133,1.235,2.264"/><path class="cls-1" d="M137.208,595.472l.412.617"/><path class="cls-1" d="M138.443,597.529q1.44,1.956,2.881,3.91"/><path class="cls-1" d="M142.147,603.291l.412.618"/><path class="cls-1" d="M143.382,605.349q.411.721.823,1.441"/><path class="cls-1" d="M394.442,66.394c-16.033,4.511-30.544,38.381-36.63,51.858"/><path class="cls-1" d="M356.577,120.516q-5.408,10.6-11.524,20.784"/><path class="cls-1" d="M343.407,143.976l-.412.617"/><path class="cls-1" d="M335.587,672.436l-3.5,2.058"/><path class="cls-1" d="M321.593,679.844l-.617.412"/><path class="cls-1" d="M317.478,681.9l-.618.412"/><path class="cls-1" d="M310.069,684.783l-.617.412"/><path class="cls-1" d="M253.272,532.089l-3.087-.823"/><path class="cls-1" d="M248.745,530.855l-3.91-1.647"/><path class="cls-1" d="M242.571,528.8l-2.675-1.235"/><path class="cls-1" d="M238.455,527.15l-3.91-1.234"/><path class="cls-1" d="M231.87,525.093l-3.087-1.235"/><path class="cls-1" d="M226.931,523.446l-7.614-2.469"/><path class="cls-1" d="M217.877,520.565l-3.5-1.234"/><path class="cls-1" d="M212.526,518.919l-8.231-1.852"/><path class="cls-1" d="M188.655,566.25l1.441,1.235"/><path class="cls-1" d="M193.594,570.777a44.369,44.369,0,0,0,5.762,12.965"/><path class="cls-1" d="M199.356,587.24l-5.762,8.026"/><path class="cls-1" d="M191.536,597.529c-11.77,7.847-27.5,19-42.6,17.7"/><path class="cls-1" d="M452.474,105.7c32.833-8.208-11.27,63-10.889,61.1-1.838,9.2-11.3-3.654-9.482,10.645.524,4.124,24.767,11.661,27.985,22.921"/><path class="cls-1" d="M479.226,40.259l-1.029-.411"/><path class="cls-1" d="M472.641,47.256l-1.029.411"/><path class="cls-1" d="M469.76,48.491l-1.029.411"/><path class="cls-1" d="M464.409,50.96l-.617.412"/><path class="cls-1" d="M460.293,53.841l-1.852,1.235"/><path class="cls-1" d="M455.766,57.545l-.617.412"/><path class="cls-1" d="M448.769,67.423l-.411.617"/><path class="cls-1" d="M447.123,78.535l.412,1.029"/><path class="cls-1" d="M447.535,82.651l.411,1.029"/><path class="cls-1" d="M473.875,108.992H474.9"/><path class="cls-1" d="M477.991,109.4l4.322-.411"/><path class="cls-1" d="M484.988,108.992l1.852-.412"/><path class="cls-1" d="M489.927,108.169l2.675-.823"/><path class="cls-1" d="M494.043,106.934l.617-.412"/><path class="cls-1" d="M497.747,105.288l.617-.412"/><path class="cls-1" d="M501.451,103.23l.617-.412"/><path class="cls-1" d="M508.036,97.879l1.235-1.234"/><path class="cls-1" d="M517.091,53.429,517.5,52.4"/><path class="cls-1" d="M517.914,49.314l.411-1.029"/><path class="cls-1" d="M518.737,46.433l.411-.618"/><path class="cls-1" d="M519.56,43.552q.206-.309.412-.618"/><path class="cls-1" d="M519.972,41.494q.411-1.133.823-2.264"/><path class="cls-1" d="M520.795,37.79l.411-.618"/><path class="cls-1" d="M521.618,34.909l.411-1.029"/><path class="cls-1" d="M522.441,32.028l.412-.618"/><path class="cls-1" d="M523.676,28.323l.411-.617"/><path class="cls-1" d="M524.5,25.854q.205-.309.412-.617"/><path class="cls-1" d="M526.557,20.915l.411-.617"/><path class="cls-1" d="M527.38,18.857l.412-.617"/><path class="cls-1" d="M528.2,16.388q.206-.514.412-1.029"/><path class="cls-1" d="M529.849,12.684l.824-1.441"/><path class="cls-1" d="M532.73,6.922l.412-.618"/><path class="cls-1" d="M422.017,104.053c-19.85-1.959-18.835-28.646-33.745,10.912-4.883,12.957-.308,25.758-4.943,38.888"/><path class="cls-1" d="M319.124,283.5c-15.582,12.748-25.56,47.381-36.424,64.411"/><path class="cls-1" d="M254.507,367.871l2.263,1.235"/><path class="cls-1" d="M301.426,400.8l8.026,6.791"/><path class="cls-1" d="M249.156,365.814l1.647.2"/><path class="cls-1" d="M251.214,367.46l4.116,4.321"/><path class="cls-1" d="M257.388,374.045A247.668,247.668,0,0,0,293.4,401.209"/><path class="cls-1" d="M293.606,401.415l7.82,5.556"/><path class="cls-1" d="M533.965,3.423c-15.586,2.4-38.909,25.165-50.829,34.778"/><path class="cls-1" d="M231.87,385.158l-.617-.412"/><path class="cls-1" d="M229.812,384.334l-3.91-1.646"/><path class="cls-1" d="M222.4,381.453l-.617-.411"/><path class="cls-1" d="M208.411,376.515l-.618-.412"/><path class="cls-1" d="M205.941,375.691l-.617-.411"/><path class="cls-1" d="M203.06,374.868l-.617-.411"/><path class="cls-1" d="M191.536,373.222q-2.185,3.587-4.321,7.2"/><path class="cls-1" d="M238.867,383.306l1.852-.618"/><path class="cls-1" d="M240.513,377.338l-.823-1.852"/><path class="cls-1" d="M238.455,372.4q-.822-1.338-1.646-2.675"/><path class="cls-1" d="M226.52,361.286l-3.5-1.234"/><path class="cls-1" d="M219.523,360.052q-13.387,3.819-13.17,13.582"/><path class="cls-1" d="M116.835,582.713c-4.325,13.764-20.849,15.062-24.866,27.193,9.211-1.539,13.792-2.484,21.985.794"/><path class="cls-1" d="M115.807,610.7c9.3-.816,19.13-1.233,28.192-3.7"/><path class="cls-1" d="M144.411,606.79q5.682-1.239,3.087,6.585"/><path class="cls-1" d="M147.909,615.639c.819,10.78-4.786,3.418-15.434,4.939"/><path class="cls-1" d="M128.977,620.578q-19.473-8.859-19.621,10.5a119.937,119.937,0,0,1,20.65.206"/><path class="cls-1" d="M132.681,631.278l8.437-.823"/><path class="cls-1" d="M142.559,630.455l2.675-.411"/><path class="cls-1" d="M146.675,630.044c29.311-5.934-12.361,20.19-5.556,14.581-5.431,4.476-43.555-9.705-30.663,16.081"/><path class="cls-1" d="M110.456,662.146l1.852,1.235"/><path class="cls-1" d="M115.807,663.381c71.747,8.07,4.391,2.3-9.264,20.1,16.421,2.736,46.141-9.85,45.05,13.069-14.1-.584-30.412-6.153-44.684-1.944,6.735,10.39,21.593,21.269,19.187,35.246"/><path class="cls-1" d="M126.1,731.291c-8.193,19.117-41.994-7.448-48.36-15.228"/><path class="cls-1" d="M471.2,438.251a91.4,91.4,0,0,1,9.878-5.351"/><path class="cls-1" d="M484.576,430.431l.618-.412"/><path class="cls-1" d="M494.043,427.138A170.772,170.772,0,0,1,506.8,452.45"/><path class="cls-1" d="M506.8,454.3q-3.508,8.559-10.5,6.585"/><path class="cls-1" d="M385.8,153.648c-13.318,2.219-24.67-12.142-40.54-12.142"/><path class="cls-1" d="M346.7,479v.618"/><path class="cls-1" d="M363.574,502.044l.411.618"/><path class="cls-1" d="M366.455,509.453l.411.617"/><path class="cls-1" d="M367.278,511.511l.411.617"/><path class="cls-1" d="M368.513,516.449l.411.618"/><path class="cls-1" d="M373.451,534.559c1.942-3.154-2.138-1.4,0-2.47"/><path class="cls-1" d="M244.217,385.981q2.1-13.716-8.848-22.637"/><path class="cls-1" d="M233.928,362.521l-.617-.412"/><path class="cls-1" d="M231.87,361.286c-2.668-1.823-5.732-2.434-8.849-2.881"/><path class="cls-1" d="M220.758,358.405l-1.852.412"/><path class="cls-1" d="M217.054,358.817a20.605,20.605,0,0,0-7.2,4.527"/><path class="cls-1" d="M209.645,363.55c-2.372,2.775-4.58,5.648-5.556,9.26"/><path class="cls-1" d="M481.9,432.9c4.51,8.922,6.327,18.007,11.524,26.547"/><path class="cls-1" d="M447.946,106.728c-9.469,2.255-16.307.456-25.106-2.058"/><path class="cls-1" d="M413.58,73.8q8.963,6.432,18.521,11.936"/><path class="cls-1" d="M449.387,96.027q-7.162-9.793-17.081-9.877"/><path class="cls-1" d="M255.742,330.007c5.626,2.747,4.647,11.372,1.852,15.845"/><path class="cls-1" d="M398.146,326.3c-.122,3.351-4.177,18.442-9.26,19.961"/><path class="cls-1" d="M354.725,396.064c-1.519,1.316-11.632,6.634-15.434,4.733"/><path class="cls-1" d="M268.706,361.081c-6.862,5.764-5.663,4.611-15.022,5.35"/><path class="cls-1" d="M466.056,568.719h-.618"/><path class="cls-1" d="M464,568.719l-6.791,1.235"/><path class="cls-1" d="M452.885,569.954l-1.852-.412"/><path class="cls-1" d="M448.769,569.131l-1.029-.412"/><path class="cls-1" d="M447.535,568.719h-1.647"/><path class="cls-1" d="M301.838,408.206a136.279,136.279,0,0,0,14.9,6.58c-1.466-2.866-4.435-4.15-6.463-6.375"/><path class="cls-1" d="M379.419,503.9c7.169-8.913-11.445,16.751-9.466,15.639"/><path class="cls-1" d="M371.394,379.807c-.631,1.671-1.29,3.32-3.087,4.116"/><path class="cls-1" d="M368.1,384.129c-3.3,2.549-6.125,5.752-10.084,7.408"/><path class="cls-1" d="M398.146,304.9v.617"/><path class="cls-1" d="M398.146,306.959a46.612,46.612,0,0,1,.206,17.7"/><path class="cls-1" d="M384.358,352.849l1.029,2.058"/><path class="cls-1" d="M382.918,359.64l-2.676,4.527"/><path class="cls-1" d="M390.326,346.058l-4.733,8.849"/><path class="cls-1" d="M376.538,370.753q-5.931,2.483-5.968,7.819"/><path class="cls-1" d="M380.037,364.579A75.719,75.719,0,0,1,371.6,379.4"/><path class="cls-1" d="M322.828,265.8a14.64,14.64,0,0,0-3.293,7.409"/><path class="cls-1" d="M488.692,548.552q1.326,5.408-2.058,4.939"/><path class="cls-1" d="M238.661,384.334q-4.88-4.2-3.91,2.058"/><path class="cls-1" d="M449.8,96.439a9.185,9.185,0,0,0,6.586,3.087"/><path class="cls-1" d="M279.407,351.2a18.952,18.952,0,0,0-4.939,5.762"/><path class="cls-1" d="M448.769,449.157q-4.548-2.109-5.762,1.029"/><path class="cls-1" d="M381.889,485.993c-.352,4.582-1.038,3.267.206,6.174"/><path class="cls-1" d="M388.474,346.675l-4.527,5.762"/><path class="cls-1" d="M318.3,277.325l-.618,6.174"/><path class="cls-1" d="M381.683,567.9c1.721-.352,2.036,1.4,3.087,2.058"/><path class="cls-1" d="M385.8,571.189c4.723,3.374,3.2,3.55,6.791,3.91"/><path class="cls-1" d="M395.471,476.938l-5.557,4.116"/><path class="cls-1" d="M241.748,253.454l-4.939,5.351"/><path class="cls-1" d="M477.168,564.6l-5.762,2.057"/><path class="cls-1" d="M257.182,346.264a6.291,6.291,0,0,1-4.733,3.91"/><path class="cls-1" d="M407,461.3a7.094,7.094,0,0,0-1.029,6.585"/><path class="cls-1" d="M406.172,69.275l5.556,3.087"/><path class="cls-1" d="M365.632,280.618l4.938,3.7"/><path class="cls-1" d="M274.057,357.376l-4.939,3.293"/><path class="cls-1" d="M327.767,252.631q-.823,2.469-1.646,4.939"/><path class="cls-1" d="M382.1,492.99a12.912,12.912,0,0,0,1.234,4.733"/><path class="cls-1" d="M410.082,570.983q-1.956,1.646-3.91,3.293"/><path class="cls-1" d="M392.8,302.02l4.116,3.292"/><path class="cls-1" d="M402.673,476.115c.357,1.894-1.328,2.766-2.058,4.116"/><path class="cls-1" d="M380.86,315.19l4.116,3.7"/><path class="cls-1" d="M420.371,454.713a9.363,9.363,0,0,0-3.91,1.235"/><path class="cls-1" d="M388.886,481.672l-4.322,2.057"/><path class="cls-1" d="M314.185,384.746l4.116,2.469"/><path class="cls-1" d="M411.728,563.575l-2.881,3.086"/><path class="cls-1" d="M227.755,342.766l.411,4.115"/><path class="cls-1" d="M485.811,41.494v-.618"/><path class="cls-1" d="M484.165,40.671l-1.647-.618"/><path class="cls-1" d="M330.648,395.035l3.7,2.47"/><path class="cls-1" d="M507.83,500.4q-3.743,1.047,1.441,3.087"/><path class="cls-1" d="M241.748,363.756l-3.7-.412"/><path class="cls-1" d="M401.438,67.011l3.7,1.647"/><path class="cls-1" d="M246.687,247.28l-2.881,3.293"/><path class="cls-1" d="M507.213,492.578v2.675"/><path class="cls-1" d="M223.227,286.38l-1.235,3.7"/><path class="cls-1" d="M475.522,460.064l-3.7.617"/><path class="cls-1" d="M325.709,258.393l-1.235,3.7"/><path class="cls-1" d="M484.165,559.253l-3.293,2.881"/><path class="cls-1" d="M360.9,390.3c-1.436,1.361-4.411,5.036-3.293,1.647"/><path class="cls-1" d="M375.921,548.964l.823,1.646"/><path class="cls-1" d="M377.979,551.845l.823,1.646"/><path class="cls-1" d="M398.146,65.777l-3.5.2"/><path class="cls-1" d="M326.532,392.154l3.293,2.47"/><path class="cls-1" d="M234.751,262.1l-2.058,3.293"/><path class="cls-1" d="M411.316,457.183q-4.015.2-4.115,3.7"/><path class="cls-1" d="M397.323,478.173l-1.647-.617"/><path class="cls-1" d="M404.32,472c.791,1.471-.809,2.411-.824,3.7"/><path class="cls-1" d="M224.05,320.129v2.881"/><path class="cls-1" d="M224.462,327.537q.206,1.442.412,2.881"/><path class="cls-1" d="M438.274,564.4c.711.678,2.2.72,1.852,2.263"/><path class="cls-1" d="M391.972,301.608l-2.881-2.058"/><path class="cls-1" d="M384.564,499.163q-.1.721-.206,1.441"/><path class="cls-1" d="M509.682,544.436l-3.7.824"/><path class="cls-1" d="M483.136,459.447l-5.556.617"/><path class="cls-1" d="M433.953,450.6l-4.528,1.44"/><path class="cls-1" d="M373.657,536.205c.451,1.1,1.718,2.377-.617,2.881"/><path class="cls-1" d="M414.609,560.9a4.509,4.509,0,0,0-1.852,2.058"/><path class="cls-1" d="M487.046,554.932q-.927,1.131-1.852,2.263"/><path class="cls-1" d="M397.323,576.128l-2.47.2"/><path class="cls-1" d="M311.3,253.043l.411,2.469"/><path class="cls-1" d="M242.983,364.167l2.469.412"/><path class="cls-1" d="M505.155,489.491c-1.336.755-.231,1.51,0,2.264"/><path class="cls-1" d="M221.169,300.785v2.469"/><path class="cls-1" d="M375.1,289.261,373.04,287.2"/><path class="cls-1" d="M282.288,348.322l-2.058,2.058"/><path class="cls-1" d="M426.339,557.813l1.852,1.029"/><path class="cls-1" d="M268.912,231.229l-2.058,1.235"/><path class="cls-1" d="M516.062,527.768l1.029,7.2"/><path class="cls-1" d="M324.063,262.92l-.823,2.058"/><path class="cls-1" d="M319.124,274.033q-.206,1.029-.412,2.058"/><path class="cls-1" d="M505.155,545.671l-2.881,1.235"/><path class="cls-1" d="M488.28,459.241l-3.292.206"/><path class="cls-1" d="M79.588,715.239l-1.646.824"/><path class="cls-1" d="M378.6,554.726l1.441,4.116"/><path class="cls-1" d="M433.13,562.134l2.058.823"/><path class="cls-1" d="M380.448,560.076l-1.234,1.647"/><path class="cls-1" d="M380.86,562.546q2.688,4.842-.412,3.7"/><path class="cls-1" d="M441.361,565.427l1.852,1.029"/><path class="cls-1" d="M469.554,567.485H467.7"/><path class="cls-1" d="M514.21,538.263q-.207.925-.412,1.852"/><path class="cls-1" d="M384.358,484.141l-1.646,1.235"/><path class="cls-1" d="M450,105.7l-1.852.618"/><path class="cls-1" d="M513.592,525.3l1.029,1.029"/><path class="cls-1" d="M249.156,245.223l-1.646,1.234"/><path class="cls-1" d="M358.635,367.048l-1.646-.823"/><path class="cls-1" d="M375.921,290.084l1.235,1.235"/><path class="cls-1" d="M413.374,456.36l1.646.206"/><path class="cls-1" d="M268.912,362.521l1.235.617"/><path class="cls-1" d="M308.423,249.75q2.009-2.957,2.058.823"/><path class="cls-1" d="M385.8,297.081l-1.647-1.235"/><path class="cls-1" d="M331.059,350.174l1.647,1.235"/><path class="cls-1" d="M505.155,488.051l-1.235-.617"/><path class="cls-1" d="M423.046,557.813l-2.881.411"/><path class="cls-1" d="M431.9,558.842q.411.822.823,1.646"/><path class="cls-1" d="M374.275,539.086q-.1.823-.206,1.646"/><path class="cls-1" d="M224.874,283.5l-.824,1.646"/><path class="cls-1" d="M304.719,379.807l-1.647-.823"/><path class="cls-1" d="M418.107,559.253l-1.44.823"/><path class="cls-1" d="M386.622,297.492l1.235,1.235"/><path class="cls-1" d="M393,575.51l1.441,1.029"/><path class="cls-1" d="M404.731,574.893l-2.881.206"/><path class="cls-1" d="M504.949,484.964l-1.44-.206"/><path class="cls-1" d="M221.375,298.521l-.206,1.441"/><path class="cls-1" d="M265.208,233.287l-1.235.823"/><path class="cls-1" d="M425.1,453.273l-1.441.412"/><path class="cls-1" d="M496.512,548.552l-1.441.412"/><path class="cls-1" d="M273.028,283.911l-1.235,1.234"/><path class="cls-1" d="M371.394,285.145l1.234,1.235"/><path class="cls-1" d="M373.451,530.649h-1.44"/><path class="cls-1" d="M436.011,563.78l.411,1.235"/><path class="cls-1" d="M501.039,547.729h-2.058"/><path class="cls-1" d="M501.451,474.057l-1.235.412"/><path class="cls-1" d="M376.333,544.848q-1.317,1.145.2,2.469"/><path class="cls-1" d="M297.31,223l-1.234.411"/><path class="cls-1" d="M257.388,238.637l-1.235.824"/><path class="cls-1" d="M271.793,230.406l-1.235.412"/><path class="cls-1" d="M436.011,562.546q.307.514.617,1.029"/><path class="cls-1" d="M255.33,240.284l-1.235,1.234"/><path class="cls-1" d="M230.636,270.329l-.412,1.234"/><path class="cls-1" d="M323.651,390.1l1.235.824"/><path class="cls-1" d="M439.715,449.775H438.48"/><path class="cls-1" d="M310.481,382.688l1.234.823"/><path class="cls-1" d="M247.51,365.4l-1.235-.412"/><path class="cls-1" d="M334.352,352.643l1.235.823"/><path class="cls-1" d="M375.509,542.79l-1.852-1.235"/><path class="cls-1" d="M510.917,508.424c-.723,0-1.6-.2-1.44,1.029"/><path class="cls-1" d="M508.036,499.163l.392,2.395c.088-.131-.049.075-.186.281"/><path class="cls-1" d="M511.123,541.967q-.205.925-.412,1.852"/><path class="cls-1" d="M293.2,361.286l.823.412"/><path class="cls-1" d="M292.372,373.634l.823.411"/><path class="cls-1" d="M272.616,364.579l-.823-.412"/><path class="cls-1" d="M338.468,399.151l.411.823"/><path class="cls-1" d="M297.722,376.515l.823.411"/><path class="cls-1" d="M419.754,558.636h.823"/><path class="cls-1" d="M286.61,370.341l-.824-.412"/><path class="cls-1" d="M308.834,381.865l.824.412"/><path class="cls-1" d="M399.792,481.054l-.617-.617"/><path class="cls-1" d="M497.747,548.141l-.412.411"/><path class="cls-1" d="M227.755,278.56l-.412.412"/><path class="cls-1" d="M506.39,498.752l.411.411"/><path class="cls-1" d="M295.253,375.28l.411.411"/><path class="cls-1" d="M380.654,561.105l.206.618"/><path class="cls-1" d="M470.171,460.887l-.411.412"/><path class="cls-1" d="M377.979,291.73l.411.412"/><path class="cls-1" d="M501.039,471.588l.412.412"/><path class="cls-1" d="M215,256.747l-.412.411"/></svg>