<svg id="Layer_1" data-name="Layer 1" xmlns="http://www.w3.org/2000/svg" viewBox="0 0 612 792"><defs><style>.cls-1{fill:none;stroke:#000;stroke-linecap:round;stroke-linejoin:round;stroke-width:3px;}</style></defs><title>drawingArtboard 7</title><path class="cls-1" d="M259.815,225.555C200.846,285.6,136.911,359.58,66.9,406.252"/><path class="cls-1" d="M240.019,315.693c-14.015,6.674-21.694,12.829-33.065,23.166"/><path class="cls-1" d="M204.637,340.965c-45.772,31.689-91.693,55.778-144.262,74.554"/><path class="cls-1" d="M405.131,345.809c13.7,11.653,33.335,2.348,43.815,11.593,4.53,4,6.473,21.4,10.144,26.909-7.3,6.251-25.419,4.476-35,5.844,10.48,26.2,35.986-5.57,47.831,22.6-5.48,4.615-18.549,3.767-25.3,4.027"/><path class="cls-1" d="M444.3,416.782c-17.854,1.288,9.642,19.06,22.538,19.036,5.062-.01,37.465-16.56,37.974-16.015-4.978,20.013-21.187,31.514-25.744,50.615,88.291-20.887,15.584-139.913,32.414-184"/><path class="cls-1" d="M360.062,187.647l-4-2.527"/><path class="cls-1" d="M354.165,183.856c-12.121-12-42.057-8.727-56.632-3.093-14.363,5.552-34.73,35.84-42.351,33.63"/><path class="cls-1" d="M394.18,118.148c8.778,17.558,40.575,12.3,55.4,31.159,15.385,19.572,6.612,36.067,10.73,56.662"/><path class="cls-1" d="M459.466,209.128c-7.539,22.618-20.653,23.978-36.223,36.434"/><path class="cls-1" d="M421.558,245.773c-19.073,5.869-17.617,15.45-7.792,32.643"/><path class="cls-1" d="M55.32,415.729c-13.248-5.263-3.691-39.974,4.552-46.322,11.553-8.9,23.064,10.553,33.577,3.771,13.774-8.886,35.244-79.89-5.485-67.173"/><path class="cls-1" d="M373.962,747.007l-1.9.421"/><path class="cls-1" d="M367.644,747.849l-1.475.421"/><path class="cls-1" d="M362.168,748.692q-7.647,3-14.953,6.739"/><path class="cls-1" d="M327.629,760.907l-.632.421"/><path class="cls-1" d="M274.557,763.434l-.632.421"/><path class="cls-1" d="M255.182,766.8l-.632.421"/><path class="cls-1" d="M471.049,581.473c-10.12-17.348-29.1-25.676-48.438-26.536"/><path class="cls-1" d="M420.715,554.937c-14.5,1.642-58.336,7.859-58.336,29.906"/><path class="cls-1" d="M385.334,738.583l-.421-.632"/><path class="cls-1" d="M384.492,736.477,380.7,727"/><path class="cls-1" d="M380.28,725.525q-.631-1.789-1.264-3.58"/><path class="cls-1" d="M377.331,703.2l-.421-.632"/><path class="cls-1" d="M372.7,690.144l-.421-.632"/><path class="cls-1" d="M371.013,687.617l-.421-.632"/><path class="cls-1" d="M366.38,681.3l-.421-.632"/><path class="cls-1" d="M363.432,677.508q-.633-.736-1.264-1.474"/><path class="cls-1" d="M534.23,150.581c11.414-28.534-8.207-90.858-48.649-85.084"/><path class="cls-1" d="M382.6,253.144c-15.742,17.4-42.264,32.171-64.865,38.119"/><path class="cls-1" d="M316.678,294.212l-.421.631"/><path class="cls-1" d="M306.99,291.263l-1.474.843"/><path class="cls-1" d="M303.2,292.948l-2.316,1.264"/><path class="cls-1" d="M296.46,295.9c-15.3,6.122-30.446,11.888-46.333,16.427"/><path class="cls-1" d="M156.2,668.242l-.421,1.053"/><path class="cls-1" d="M155.778,674.56q-.211,3.264-.422,6.528"/><path class="cls-1" d="M154.935,690.565l-.632,5.476"/><path class="cls-1" d="M154.093,698.147l-.421,2.317"/><path class="cls-1" d="M153.25,707.414l-.421,2.316"/><path class="cls-1" d="M152.829,717.944l-.421,1.474"/><path class="cls-1" d="M152.829,725.525,153.25,727"/><path class="cls-1" d="M153.25,728.474q.633,2.633,1.264,5.265"/><path class="cls-1" d="M154.514,735.634l.421.632"/><path class="cls-1" d="M155.356,739l.422,1.474"/><path class="cls-1" d="M156.2,743.216l.421,1.053"/><path class="cls-1" d="M157.041,747.428l.421.632"/><path class="cls-1" d="M158.305,754.589l.421.631"/><path class="cls-1" d="M159.147,757.958l.421.632"/><path class="cls-1" d="M161.674,765.54l.422.632"/><path class="cls-1" d="M164.2,771.016l.421.631"/><path class="cls-1" d="M185.683,778.176l1.053-.421"/><path class="cls-1" d="M189.9,777.334l1.053-.422"/><path class="cls-1" d="M194.95,776.491l2.316-.421"/><path class="cls-1" d="M200,776.07l1.053-.421"/><path class="cls-1" d="M202.531,775.649l1.053-.421"/><path class="cls-1" d="M206.743,775.228l4.844-.843"/><path class="cls-1" d="M216.431,773.964l1.895-.421"/><path class="cls-1" d="M221.064,773.543l2.738-.421"/><path class="cls-1" d="M232.016,772.7l1.053-.421"/><path class="cls-1" d="M256.024,756.7l1.475-.843"/><path class="cls-1" d="M263.606,751.219l1.053-.842"/><path class="cls-1" d="M274.979,742.8l3.58-2.527"/><path class="cls-1" d="M436.511,296.528c7.635,12.981-31.5,16.782-38.962,22.113"/><path class="cls-1" d="M507.694,190.806c-16.074,13.124-28.076,13.158-47.175,15.374"/><path class="cls-1" d="M405.973,345.809c33.533-10.73,36.856,3.172,36.856-29.233-19.166,6.146-35.176,21.036-45.069,2.487"/><path class="cls-1" d="M365.327,184.277c11.446,9.811,18.649,22.239,22.956,37.066"/><path class="cls-1" d="M396.917,125.519c-12.873.7-25.6,2.082-37.276,8.214"/><path class="cls-1" d="M423.664,245.984c17.006,1.8,34.4,3.634,50.334,10.109"/><path class="cls-1" d="M534.02,151c-.258,8.409-17.147,38.961-25.694,38.961"/><path class="cls-1" d="M80.8,372.135c-4.089,11.586-9.124,22.477-14.11,33.7"/><path class="cls-1" d="M64.376,408.779a18.235,18.235,0,0,1-5.265,5.055"/><path class="cls-1" d="M279.191,741.952l-3.159,2.528"/><path class="cls-1" d="M265.712,753.325l-.632.421"/><path class="cls-1" d="M263.606,755.01l-.632.421"/><path class="cls-1" d="M256.446,760.485l-1.475,1.264"/><path class="cls-1" d="M461.993,275.679q-1.777-2.327-3.58-4.634"/><path class="cls-1" d="M457.36,268.939c-.338-1.693,8.365-9.792,11.583-10.109"/><path class="cls-1" d="M471.26,259.673l.842.21"/><path class="cls-1" d="M475.893,260.936q5.253,3.173,10.741,5.9"/><path class="cls-1" d="M489.161,269.992v1.053"/><path class="cls-1" d="M489.161,271.256l-1.053,1.685"/><path class="cls-1" d="M486,276.1l-1.685,2.316"/><path class="cls-1" d="M483.054,279.891c-4.909,7.223-13.837.487-20.007-3.37"/><path class="cls-1" d="M462.836,276.31q-7.111-1.118-5.686-6.949"/><path class="cls-1" d="M152.829,248.721c4.2,6.84,15.5,24.428,24.009,18.533"/><path class="cls-1" d="M409.343,249.564c-8.416,1.485-16.111,3.437-24.641,4.212"/><path class="cls-1" d="M384.071,256.724l.421.632"/><path class="cls-1" d="M389.967,226.819q.212,2,.422,4"/><path class="cls-1" d="M389.967,236.085a27.038,27.038,0,0,0-6.528,17.48"/><path class="cls-1" d="M479.9,606.535c1.861,8.19,1.46,17.172.421,25.483"/><path class="cls-1" d="M480.316,632.229c-.945,1.546-2.784.666-4,1.474"/><path class="cls-1" d="M92.6,176.7c5.15,8.692,12.526,15.79,19.165,23.377"/><path class="cls-1" d="M66.482,333.384c-3.214,8.265-7.238,15.964-9.9,24.43"/><path class="cls-1" d="M451.885,72.237c-8.449,3.788-16.442,8.309-23.377,14.531"/><path class="cls-1" d="M343.424,145.316a58.312,58.312,0,0,0-16.637,26.114"/><path class="cls-1" d="M422.821,636.651l-15.374,4.212"/><path class="cls-1" d="M405.973,640.863l-3.58-4"/><path class="cls-1" d="M390.81,626.753l-11.641-11.464-5.629,7.041"/><path class="cls-1" d="M414.608,279.259c4.393,5.916,12.548,11.487,19.375,15.163"/><path class="cls-1" d="M76.591,224.713q9.293,7.056,19.165,13.268"/><path class="cls-1" d="M437.985,676.666a37.649,37.649,0,0,1-18.954.842"/><path class="cls-1" d="M413.344,660.87q-7.425,4.764-3.159,13.058"/><path class="cls-1" d="M374.8,585.685a61.14,61.14,0,0,1-4.633,16.427"/><path class="cls-1" d="M484.739,65.076a75.536,75.536,0,0,1-16.427,1.685"/><path class="cls-1" d="M453.569,646.339a47.188,47.188,0,0,1-15.584,3.37"/><path class="cls-1" d="M416.5,571.786q-4.447,7.706,7.371,14.952"/><path class="cls-1" d="M411.028,653.078a56.119,56.119,0,0,0-15.164-.632"/><path class="cls-1" d="M358.588,134.364a66.227,66.227,0,0,0-14.321,10.109"/><path class="cls-1" d="M511.906,286.209c4.849-13.142-8.564-7.378-19.165-7.582"/><path class="cls-1" d="M412.291,620.224a24.253,24.253,0,0,0,11.583,12.847"/><path class="cls-1" d="M458.624,270.835c2.219,1.143,12.11,7.886,14.953,5.9"/><path class="cls-1" d="M479.684,633.282a39.077,39.077,0,0,1-5.265,13.268"/><path class="cls-1" d="M417.767,100.036a89.307,89.307,0,0,0-6.318,13.058"/><path class="cls-1" d="M124.819,144.894l-10.53,12.215"/><path class="cls-1" d="M438.2,658.133a70.982,70.982,0,0,1,6.74,12.425"/><path class="cls-1" d="M426.612,637.072l7.161,12.637"/><path class="cls-1" d="M423.453,590.529a69.119,69.119,0,0,0-12.636,5.055"/><path class="cls-1" d="M465.363,597.479a33.418,33.418,0,0,1,3.791,12.636"/><path class="cls-1" d="M442.829,619.592a15.555,15.555,0,0,0-12,.843"/><path class="cls-1" d="M452.938,573.26a28.767,28.767,0,0,0,5.265,12"/><path class="cls-1" d="M380.7,638.757a32.442,32.442,0,0,0-11.373-8.424"/><path class="cls-1" d="M472.945,648.445a46.523,46.523,0,0,1-9.267,11.794"/><path class="cls-1" d="M384.492,365.816l11.372,10.109"/><path class="cls-1" d="M407.447,641.706l8.214,11.793"/><path class="cls-1" d="M464.942,261.989a29.722,29.722,0,0,0,11.794,6.95"/><path class="cls-1" d="M476.525,592A57.391,57.391,0,0,0,479.9,603.8"/><path class="cls-1" d="M438.2,602.955a40.527,40.527,0,0,1,3.159,11.372"/><path class="cls-1" d="M388.914,572.628c2.193,3.707,4.8,7.191,6.108,11.373"/><path class="cls-1" d="M385.334,563.783l-7.371,15.795"/><path class="cls-1" d="M384.281,643.18a31.558,31.558,0,0,1,9.477,8.213"/><path class="cls-1" d="M254.761,213.34v.632"/><path class="cls-1" d="M254.971,214.183l1.053,4.844"/><path class="cls-1" d="M256.867,220.922l2.948,2.527"/><path class="cls-1" d="M375.436,584.843q6.041,3.915,7.16,10.109"/><path class="cls-1" d="M422.4,560.413q7.332.8,9.267,9.688"/><path class="cls-1" d="M393.126,605.693c-1,.243-2.02.626-2.948-.211"/><path class="cls-1" d="M388.7,604.218a31.25,31.25,0,0,0-15.8-1.684"/><path class="cls-1" d="M363.01,604.64l-12.846,2.737"/><path class="cls-1" d="M117.027,245.352c.448,3.753,2.59,6.7,4.633,9.688"/><path class="cls-1" d="M96.388,245.773l9.266,8"/><path class="cls-1" d="M197.056,252.512l-8.846,7.161"/><path class="cls-1" d="M387.44,595.373c-3.814,3.12-.206,4.643,1.9,8.845"/><path class="cls-1" d="M437.353,657.5c-5.99-6.79-17.167-6.242-21.9,1.263"/><path class="cls-1" d="M358.166,592.214c7.139-13.768,4.08-1.723,13.69-6.529"/><path class="cls-1" d="M393.548,629.07q4.366,3.505,8.424,7.371"/><path class="cls-1" d="M445.988,640.021l-7.161,8"/><path class="cls-1" d="M428.3,605.9c-3.484,1.062-7.127,1.766-9.9,4.423"/><path class="cls-1" d="M471.892,582.105q10.666,9.285,2.316,9.9"/><path class="cls-1" d="M397.97,587.791c3.375,1.49,5.234,4.585,7.582,7.161"/><path class="cls-1" d="M327.208,167.85q-11.961-6.31-11.794,0"/><path class="cls-1" d="M482.422,260.726l-8.214-4.212"/><path class="cls-1" d="M443.671,620.435q3.371,4,6.739,8"/><path class="cls-1" d="M429.771,593.9l7.371,5.686"/><path class="cls-1" d="M349.953,618.539l7.792,4"/><path class="cls-1" d="M403.446,572.628q-2.738,3.79-5.476,7.582"/><path class="cls-1" d="M406.394,664.872l-7.581,3.37"/><path class="cls-1" d="M460.73,69.288l-7.582,2.527"/><path class="cls-1" d="M358.167,622.962l6.949,5.686"/><path class="cls-1" d="M55.32,358.867a24.068,24.068,0,0,1,7.371,4.422"/><path class="cls-1" d="M418.188,607.167l-6.107-6.529"/><path class="cls-1" d="M451.042,670.348l-7.371,4"/><path class="cls-1" d="M392.5,616.855q-.633,3.579-1.264,7.16"/><path class="cls-1" d="M393.758,608.852a67.462,67.462,0,0,0-.842,7.16"/><path class="cls-1" d="M401.761,601.27l-7.16,3.791"/><path class="cls-1" d="M458.2,664.872l-6.318,5.054"/><path class="cls-1" d="M462.836,262.621c-.777,2.721-2.692,4.635-4.633,6.529"/><path class="cls-1" d="M501.587,169.956q-1.054,5.184-2.317,10.32"/><path class="cls-1" d="M185.894,261.568a26.045,26.045,0,0,1-6.318,3.37"/><path class="cls-1" d="M374.383,610.115q1.79,2.739,3.58,5.476"/><path class="cls-1" d="M406.816,621.909l-6.318,2.948"/><path class="cls-1" d="M96.177,238.4l6.529,4.844"/><path class="cls-1" d="M130.505,434.052q-4.423-.129-8.845,0"/><path class="cls-1" d="M395.443,587.581q-2.737,2.842-5.476,5.686"/><path class="cls-1" d="M373.54,609.273l-6.318,2.106"/><path class="cls-1" d="M190.316,452.585l.843,1.9"/><path class="cls-1" d="M192,456.8l.632,1.685"/><path class="cls-1" d="M378.384,257.777c1.952,1.194,3.993,1.942,6.318,1.264"/><path class="cls-1" d="M396.286,565.468l6.318,4.212"/><path class="cls-1" d="M378.174,360.341l5.475,4.633"/><path class="cls-1" d="M357.956,613.906l-6.739,2.106"/><path class="cls-1" d="M449.568,565.257l-5.476,5.476"/><path class="cls-1" d="M68.378,223.66l5.054,5.475"/><path class="cls-1" d="M397.97,668.663l-5.9,1.895"/><path class="cls-1" d="M411.028,113.936,408.5,122.36"/><path class="cls-1" d="M315.625,168.271a9.131,9.131,0,0,1,3.369,5.476"/><path class="cls-1" d="M78.486,312.534l-3.79,5.9"/><path class="cls-1" d="M482.843,261.147a12.986,12.986,0,0,1,4.423,5.476"/><path class="cls-1" d="M364.7,612.221l-5.9,1.685"/><path class="cls-1" d="M429.561,625.279l-2.106,5.9"/><path class="cls-1" d="M492.952,272.941q3.342,3.063,2.317,6.95"/><path class="cls-1" d="M408.711,119.622c-2.28-.593-4.533-1.362-6.95-1.053"/><path class="cls-1" d="M389.125,662.345l-4.423,4.844"/><path class="cls-1" d="M420.715,565.468l-3.369,5.475"/><path class="cls-1" d="M400.076,118.148l-5.475-.211"/><path class="cls-1" d="M112.393,434.683l-7.16,1.9"/><path class="cls-1" d="M112.6,200.915l4.212,5.054"/><path class="cls-1" d="M117.448,239.455l-.843,5.054"/><path class="cls-1" d="M162.938,286.63l3.791,4.633"/><path class="cls-1" d="M74.274,318.852,71.537,323.7"/><path class="cls-1" d="M428.086,87.189,423.874,91.4"/><path class="cls-1" d="M463.678,143l-4.633.842"/><path class="cls-1" d="M203.8,479.963l.421.632"/><path class="cls-1" d="M204.637,482.49l.422,2.106"/><path class="cls-1" d="M435.036,573.049a5.746,5.746,0,0,1-1.263,4.634"/><path class="cls-1" d="M163.78,426.259a18.054,18.054,0,0,0-8.213,2.528"/><path class="cls-1" d="M457.781,589.9l4.423,2.317"/><path class="cls-1" d="M248.864,312.745l-4.212,1.263"/><path class="cls-1" d="M390.178,629.491l-4,3.791"/><path class="cls-1" d="M525.174,143.42l-4.212-2.527"/><path class="cls-1" d="M169.256,526.717l3.37,3.369"/><path class="cls-1" d="M173.889,425.206l-4.212.422"/><path class="cls-1" d="M207.586,244.931l-4.212,2.527"/><path class="cls-1" d="M518.646,136.049l1.9,4"/><path class="cls-1" d="M460.1,208.707l2.106,4"/><path class="cls-1" d="M141.035,236.085l3.581,3.581"/><path class="cls-1" d="M457.36,622.751a8.791,8.791,0,0,1-4.633,2.738"/><path class="cls-1" d="M445.988,596.637l-3.791,2.106"/><path class="cls-1" d="M381.122,639.6l2.738,3.159"/><path class="cls-1" d="M200.846,472.8a.751.751,0,0,1,.211,1.264"/><path class="cls-1" d="M417.767,611.379l-2.106,3.791"/><path class="cls-1" d="M452.516,572.839l-3.159-3.159"/><path class="cls-1" d="M376.489,647.6,372.7,650.13"/><path class="cls-1" d="M69.009,328.329l-1.684,3.791"/><path class="cls-1" d="M423.453,91.823q-1.474,1.895-2.948,3.791"/><path class="cls-1" d="M84.173,307.69l-3.159,2.738"/><path class="cls-1" d="M516.75,160.268l-2.948,2.949"/><path class="cls-1" d="M200,473.645c1.92.748,2.656,2.325,2.948,4.212"/><path class="cls-1" d="M202.531,248.3l-3.369,2.528"/><path class="cls-1" d="M127.136,228.082q1.263,1.686,2.527,3.37"/><path class="cls-1" d="M182.524,430.893l1.053,2.527"/><path class="cls-1" d="M184.419,437,184,438.264"/><path class="cls-1" d="M185.683,438.264l1.053,3.369"/><path class="cls-1" d="M367.222,602.955l-3.369,1.263"/><path class="cls-1" d="M137.666,436.579l3.369.842"/><path class="cls-1" d="M476.525,608.22l-3.159,2.316"/><path class="cls-1" d="M510.853,126.993l3.159,1.9"/><path class="cls-1" d="M445.567,91.612l-3.37.421"/><path class="cls-1" d="M377.752,580.631a6.713,6.713,0,0,1-3.369,4"/><path class="cls-1" d="M449.779,630.333l-.843,3.37"/><path class="cls-1" d="M117.658,206.812l2.738,3.159"/><path class="cls-1" d="M92.807,441.844a7.176,7.176,0,0,1-4.843,4"/><path class="cls-1" d="M463.678,213.34h-.631"/><path class="cls-1" d="M462.836,213.34l-4-.421"/><path class="cls-1" d="M56.584,416.15l1.263-1.053"/><path class="cls-1" d="M443.25,571.575l-2.738,2.738"/><path class="cls-1" d="M457.992,590.529l-3.159,1.9"/><path class="cls-1" d="M457.36,88.664l-2.948,1.263"/><path class="cls-1" d="M71.115,324.538l-1.684,2.949"/><path class="cls-1" d="M426.4,591.372l2.948,2.106"/><path class="cls-1" d="M466.627,616.855l-2.949,1.684"/><path class="cls-1" d="M528.965,145.947l2.949,2.107"/><path class="cls-1" d="M243.809,314.429l-2.948.843"/><path class="cls-1" d="M188.632,446.9l-2.107-2.106"/><path class="cls-1" d="M356.271,595.794l-.842,2.949"/><path class="cls-1" d="M462.836,661.081l-2.949,2.527"/><path class="cls-1" d="M520.541,157.741l-2.948,1.685"/><path class="cls-1" d="M423.243,561.677l-1.685,2.527"/><path class="cls-1" d="M188.842,520.188l-.421,2.738"/><path class="cls-1" d="M388.7,570.943c.611,1.474-.646,1.759-1.474,2.317"/><path class="cls-1" d="M101.863,437.632l-2.527,1.474"/><path class="cls-1" d="M136.4,132.048l-1.895,2.316"/><path class="cls-1" d="M480.105,605.9l-3.159,1.9"/><path class="cls-1" d="M141.035,126.993l-2.106,2.528"/><path class="cls-1" d="M491.267,271.256l-1.895-1.895"/><path class="cls-1" d="M394.18,602.112l-1.685,2.106"/><path class="cls-1" d="M85.858,447.109q3.5.587-1.475,2.527"/><path class="cls-1" d="M119.133,434.262h-2.528"/><path class="cls-1" d="M392.284,565.257l-1.053,2.317"/><path class="cls-1" d="M132.19,136.681l-1.685,2.106"/><path class="cls-1" d="M409.975,620.435l-2.317,1.053"/><path class="cls-1" d="M419.452,603.8c1.07,1.135.35,2.375.21,3.58"/><path class="cls-1" d="M110.919,160.9l-1.895,1.9"/><path class="cls-1" d="M371.856,624.015l-2.106,2.106"/><path class="cls-1" d="M480.527,632.229h2.316"/><path class="cls-1" d="M498.849,180.7l-1.895,1.474"/><path class="cls-1" d="M432.93,578.1l-1.895,2.316"/><path class="cls-1" d="M121.239,210.813l1.685,2.106"/><path class="cls-1" d="M414.4,617.7l-1.263,2.106"/><path class="cls-1" d="M398.392,625.7l-2.106.842"/><path class="cls-1" d="M95.966,440.58,93.86,441"/><path class="cls-1" d="M188.21,514.923q.633,1.053,1.264,2.106"/><path class="cls-1" d="M168.835,425.628l-3.791.21"/><path class="cls-1" d="M389.125,669.926l-2.106-.842"/><path class="cls-1" d="M470.418,592.846l-2.106.421"/><path class="cls-1" d="M90.912,241.561l2.106,1.685"/><path class="cls-1" d="M465.784,67.6l-4.212,1.264"/><path class="cls-1" d="M510.432,164.481h-2.106"/><path class="cls-1" d="M113.446,157.952l-1.474,1.9"/><path class="cls-1" d="M410.185,676.666q.632,1.473,1.264,2.948"/><path class="cls-1" d="M409.975,598.532q.841.843,1.685,1.685"/><path class="cls-1" d="M489.372,101.3l2.106,1.263"/><path class="cls-1" d="M462.625,592.635l1.685,2.106"/><path class="cls-1" d="M223.17,231.873l-2.106,1.685"/><path class="cls-1" d="M368.907,602.112l3.58.422"/><path class="cls-1" d="M438.406,648.866l-2.106,2.527"/><path class="cls-1" d="M148.617,119.412l-1.685,1.684"/><path class="cls-1" d="M83.752,450.479l-1.685.842"/><path class="cls-1" d="M451.674,563.362l-1.685,1.474"/><path class="cls-1" d="M233.7,223.449q-.947.738-1.895,1.474"/><path class="cls-1" d="M407.658,597.058l1.895,1.053"/><path class="cls-1" d="M450.621,135.417q-.843.843-1.685,1.685"/><path class="cls-1" d="M218.116,236.507l-1.685,1.263"/><path class="cls-1" d="M526.438,144.263l1.685.842"/><path class="cls-1" d="M387.44,574.313q-1.761-1.854-3.369,0"/><path class="cls-1" d="M185.051,442.055q-.058,1.218,1.053.842"/><path class="cls-1" d="M507.905,126.993H506.22"/><path class="cls-1" d="M240.861,217.974l-1.264,1.263"/><path class="cls-1" d="M189.263,450.057l.422,1.791"/><path class="cls-1" d="M469.365,614.959l-1.475,1.053"/><path class="cls-1" d="M394.18,652.236l1.474.842"/><path class="cls-1" d="M428.718,583.158l-1.263,1.264"/><path class="cls-1" d="M516.75,132.469l.843,1.685"/><path class="cls-1" d="M353.112,607.377l-.632,2.738"/><path class="cls-1" d="M186.525,501.866v2.527"/><path class="cls-1" d="M384.492,667.61l-1.264.632"/><path class="cls-1" d="M189.474,500.6,188,501.655"/><path class="cls-1" d="M395.443,626.964l-1.474,1.053"/><path class="cls-1" d="M367.012,628.648q-.212.843-.421,1.685"/><path class="cls-1" d="M494.847,115.41l-1.684.211"/><path class="cls-1" d="M165.044,293.79q.631.843,1.264,1.685"/><path class="cls-1" d="M426.4,633.7q-.106.841-.211,1.685"/><path class="cls-1" d="M430.824,618.961q-.21,1.895-.421,3.79"/><path class="cls-1" d="M457.781,644.654l-1.684.632"/><path class="cls-1" d="M397.128,672.875l1.685.421"/><path class="cls-1" d="M390.389,569.258l-1.264,1.475"/><path class="cls-1" d="M104.391,436.789l-1.685.632"/><path class="cls-1" d="M378.6,664.03l1.264,1.263"/><path class="cls-1" d="M419.662,96.456l-.631,1.474"/><path class="cls-1" d="M381.333,644.443l-1.474.632"/><path class="cls-1" d="M390.81,660.239l-.843,1.263"/><path class="cls-1" d="M176.838,426.049l.632,1.263"/><path class="cls-1" d="M502.429,167.85l-.842,1.264"/><path class="cls-1" d="M463.257,584l-1.264,1.263"/><path class="cls-1" d="M450.621,594.531l-1.264.842"/><path class="cls-1" d="M452.727,133.311l-1.264,1.264"/><path class="cls-1" d="M393.758,562.519l-1.053,2.527"/><path class="cls-1" d="M371.856,601.27l.842,1.264"/><path class="cls-1" d="M164.623,558.307q-.892-1.141-2.106,0"/><path class="cls-1" d="M166.729,527.138q.195-2.736,1.685-.842"/><path class="cls-1" d="M84.594,237.349l-1.264-.842"/><path class="cls-1" d="M236.649,221.343l-1.264.843"/><path class="cls-1" d="M155.778,281.154l-1.264-.842"/><path class="cls-1" d="M499.481,104.248l-1.264.421"/><path class="cls-1" d="M403.446,674.981l1.264.421"/><path class="cls-1" d="M374.383,356.971l1.263.843"/><path class="cls-1" d="M156.62,281.575l1.264.843"/><path class="cls-1" d="M80.592,310.849l-1.263.843"/><path class="cls-1" d="M87.121,306.427l-1.263.421"/><path class="cls-1" d="M122.5,256.3l1.264,1.264"/><path class="cls-1" d="M495.058,123.2l1.053.843"/><path class="cls-1" d="M93.86,243.667l1.264,1.264"/><path class="cls-1" d="M196.845,464.589l.211,1.264"/><path class="cls-1" d="M131.769,267.255l1.263,1.263"/><path class="cls-1" d="M189.053,447.951v1.685"/><path class="cls-1" d="M381.543,636.651l-1.053.632"/><path class="cls-1" d="M128.82,140.472l-.842.842"/><path class="cls-1" d="M368.275,654.552l.632,1.053"/><path class="cls-1" d="M257.709,204.916l-.842.843"/><path class="cls-1" d="M242.967,216.289l-.842.842"/><path class="cls-1" d="M166.729,553.674v2.106"/><path class="cls-1" d="M403.446,600.006l-.842.843"/><path class="cls-1" d="M400.919,380.98l.842.842"/><path class="cls-1" d="M392.916,658.133l-.843.842"/><path class="cls-1" d="M459.466,645.918q.212.42.421.842"/><path class="cls-1" d="M425.349,590.319l.631.631"/><path class="cls-1" d="M385.334,668.242l.843.421"/><path class="cls-1" d="M415.24,616.012q-.212.422-.421.843"/><path class="cls-1" d="M389.125,594.109l-.842.843"/><path class="cls-1" d="M385.334,634.124l-.842.421"/><path class="cls-1" d="M361.747,636.651l-.632.632"/><path class="cls-1" d="M371.434,639.6l-.842.421"/><path class="cls-1" d="M382.6,643.18l-.842.842"/><path class="cls-1" d="M96.809,170.8l-.843.842"/><path class="cls-1" d="M167.15,292.106l.421.842"/><path class="cls-1" d="M161.253,284.945l.843.843"/><path class="cls-1" d="M146.932,281.575l-.842-.421"/><path class="cls-1" d="M144.405,275.257l-.842-.421"/><path class="cls-1" d="M148.2,243.667l.842.842"/><path class="cls-1" d="M187.368,260.094l-.632.632"/><path class="cls-1" d="M502.008,102.985l-.842.421"/><path class="cls-1" d="M185.472,436.789l.211.632"/><path class="cls-1" d="M142.72,436.158l.421.421"/><path class="cls-1" d="M87.542,371.292l.632.632"/><path class="cls-1" d="M495.269,105.091l.421.421"/><path class="cls-1" d="M492.32,116.042l-.421.421"/><path class="cls-1" d="M443.25,674.77l-.632.211"/><path class="cls-1" d="M395.022,672.032l.421.422"/><path class="cls-1" d="M144.826,123.624l-.632.21"/><path class="cls-1" d="M380.7,665.714l.421.422"/><path class="cls-1" d="M373.119,659.4l.421.421"/><path class="cls-1" d="M95.124,172.483l-.632.632"/><path class="cls-1" d="M248.864,211.655l-.421.422"/><path class="cls-1" d="M245.073,214.6l-.421.421"/><path class="cls-1" d="M146.511,241.561l.421.421"/><path class="cls-1" d="M209.692,242.825l-.421.421"/><path class="cls-1" d="M103.548,243.667l.421.421"/><path class="cls-1" d="M464.942,581.9l-.421.421"/><path class="cls-1" d="M125.451,572.207l.421.421"/><path class="cls-1" d="M395.022,564.625l.421.421"/><path class="cls-1" d="M357.745,592.635a.8.8,0,0,0-.21.632"/><path class="cls-1" d="M439.67,600.006l-.422.422"/><path class="cls-1" d="M91.754,552.831l-.421.422"/><path class="cls-1" d="M386.808,561.045l-.631-.211"/><path class="cls-1" d="M188,448.583l-.632-.21"/></svg>