<svg id="Layer_1" data-name="Layer 1" xmlns="http://www.w3.org/2000/svg" viewBox="0 0 612 792"><defs><style>.cls-1{fill:none;stroke:#000;stroke-linecap:round;stroke-linejoin:round;stroke-width:3px;}</style></defs><title>drawingArtboard 5</title><path class="cls-1" d="M292.305,173.192q-6.4,8.43-13.531,16.236"/><path class="cls-1" d="M275.235,191.51l-.624.416"/><path class="cls-1" d="M273.57,194.008c-22.575,17.5-43.624,79.444-53.706,105.538"/><path class="cls-1" d="M219.448,301l-.416,1.04"/><path class="cls-1" d="M216.95,308.081q-1.665,3.643-3.331,7.286"/><path class="cls-1" d="M211.121,319.322l-1.249,1.873"/><path class="cls-1" d="M207.374,324.734l-.416.625"/><path class="cls-1" d="M206.75,325.567l-1.457,1.665"/><path class="cls-1" d="M202.8,330.979c-12.461,16.337-22.086,34.1-32.474,51.833"/><path class="cls-1" d="M168.656,385.518l-.416.624"/><path class="cls-1" d="M166.991,388.016l-2.5,4.371"/><path class="cls-1" d="M163.244,394.26c-4.974,10.185-7.4,19.919-9.576,31.017"/><path class="cls-1" d="M153.668,427.567l-.832,2.289"/><path class="cls-1" d="M152,432.562q-.624,1.77-1.249,3.539"/><path class="cls-1" d="M150.338,437.558l-.417.625"/><path class="cls-1" d="M149.505,439.64l-.416,1.041"/><path class="cls-1" d="M148.256,444.636l-.416,1.041"/><path class="cls-1" d="M62.285,183.808c-9.7,58.184-58.078,121.437-58.078,178.6"/><path class="cls-1" d="M36.681,390.1a578.218,578.218,0,0,0,76.4,41.216"/><path class="cls-1" d="M114.534,431.73l4.787,2.5"/><path class="cls-1" d="M342.264,599.093l-1.249,3.122"/><path class="cls-1" d="M339.766,606.17l-.416,1.041"/><path class="cls-1" d="M338.933,609.085l-.416.624"/><path class="cls-1" d="M338.1,611.583l-.417.624"/><path class="cls-1" d="M337.268,613.664l-.416.625"/><path class="cls-1" d="M330.607,624.905l-1.666,2.29"/><path class="cls-1" d="M316.452,639.06l-.625.416"/><path class="cls-1" d="M277.733,651.134l-1.457-.417"/><path class="cls-1" d="M273.154,650.3l-3.955-1.249"/><path class="cls-1" d="M267.325,648.636l-.624-.417"/><path class="cls-1" d="M256.5,644.889l-.625-.417"/><path class="cls-1" d="M249.007,641.142l-.625-.417"/><path class="cls-1" d="M220.281,617l-.625-.625"/><path class="cls-1" d="M299.8,314.742c24.7,49.833,51.181,100.067,73.065,151.127"/><path class="cls-1" d="M375.362,470.24a86.921,86.921,0,0,0,7.494,11.657"/><path class="cls-1" d="M527.113,442.971h-1.458"/><path class="cls-1" d="M521.284,445.469l-.416.624"/><path class="cls-1" d="M520.66,446.3c-32.8,16.4-67.7,31.415-101.168,46.629"/><path class="cls-1" d="M418.035,493.346c-17.583,3.467-22.669,2.64-34.347-10.616"/><path class="cls-1" d="M496.721,500.84c14.807,2.388,14.072,14.448,14.987,27.269"/><path class="cls-1" d="M511.709,530.4c.2,8.271,1.361,17.847,0,26.02"/><path class="cls-1" d="M511.709,560.374l-.417,7.7"/><path class="cls-1" d="M511.292,570.366q-.208,1.77-.416,3.539"/><path class="cls-1" d="M510.876,576.611q-.208,1.978-.416,3.955"/><path class="cls-1" d="M510.46,584.938l-.417,1.041"/><path class="cls-1" d="M510.043,589.934q-.209.936-.416,1.873"/><path class="cls-1" d="M509.627,594.93l-.416.624"/><path class="cls-1" d="M509.211,597.427l-.417,1.458"/><path class="cls-1" d="M508.794,601.174l-.416,1.041"/><path class="cls-1" d="M508.378,604.921q-.209.938-.416,1.874"/><path class="cls-1" d="M507.962,608.668l-.417,3.955"/><path class="cls-1" d="M507.545,614.5q-.207,1.144-.416,2.29"/><path class="cls-1" d="M507.129,619.909c-.069.278-.139.555-.208.833"/><path class="cls-1" d="M506.713,624.905l-.417,1.041"/><path class="cls-1" d="M506.3,627.4q-.209,1.145-.416,2.29"/><path class="cls-1" d="M505.464,636.562l-.417,1.874"/><path class="cls-1" d="M504.631,645.3l-.416.624"/><path class="cls-1" d="M504.215,649.052l-.417,1.041"/><path class="cls-1" d="M503.8,651.966q-.207,3.851-.416,7.7"/><path class="cls-1" d="M503.382,661.542c-.483,12.059,1.425,34.684-12.7,38.718"/><path class="cls-1" d="M489.227,700.26l-1.457.416"/><path class="cls-1" d="M484.231,700.676l-.624.417"/><path class="cls-1" d="M464.664,701.093l-1.041-.417"/><path class="cls-1" d="M435.521,699.011l-1.041-.416"/><path class="cls-1" d="M429.276,698.178l-.624-.416"/><path class="cls-1" d="M422.2,697.346l-.832-.417"/><path class="cls-1" d="M445.305,392.387c-28,40.444,18.653,63.271,50.791,57.245"/><path class="cls-1" d="M497.553,449.632c8.38-1.217,15.6-3.835,23.731-5"/><path class="cls-1" d="M11.077,514.579c8.234,5.881,17.22,10.909,25.812,16.236"/><path class="cls-1" d="M38.762,532.064l.625.417"/><path class="cls-1" d="M40.844,533.313l1.041.833"/><path class="cls-1" d="M43.758,535.4l.625.416"/><path class="cls-1" d="M44.591,536.019l6.869,4.788"/><path class="cls-1" d="M54.583,543.3l2.29,1.665"/><path class="cls-1" d="M58.746,546.219l5,3.331"/><path class="cls-1" d="M65.407,550.383l4.788,3.33"/><path class="cls-1" d="M72.069,554.962l2.289,1.249"/><path class="cls-1" d="M75.815,557.044l1.458.833"/><path class="cls-1" d="M79.146,559.125l1.041.833"/><path class="cls-1" d="M82.893,561.623l1.041.833"/><path class="cls-1" d="M86.64,564.121l3.539,2.5"/><path class="cls-1" d="M96.007,570.574l.833.625"/><path class="cls-1" d="M104.126,575.362l.624.417"/><path class="cls-1" d="M107.04,577.027l2.706,1.666"/><path class="cls-1" d="M122.028,583.272l.416.625"/><path class="cls-1" d="M124.109,586.187l.417.624"/><path class="cls-1" d="M135.35,596.6l.625.416"/><path class="cls-1" d="M137.848,598.26l6.869,4.163"/><path class="cls-1" d="M146.591,603.672l3.122,1.666"/><path class="cls-1" d="M153.668,607.419l2.706,1.249"/><path class="cls-1" d="M161.162,609.5l.625.416"/><path class="cls-1" d="M166.158,610.334l1.457.416"/><path class="cls-1" d="M170.738,611.166l6.036,1.249"/><path class="cls-1" d="M178.232,612.415l1.04.416"/><path class="cls-1" d="M189.056,612.832l1.041-.417"/><path class="cls-1" d="M195.717,612l.625-.416"/><path class="cls-1" d="M198.215,611.583l.625-.417"/><path class="cls-1" d="M223.2,537.477l-2.082-4.788"/><path class="cls-1" d="M220.28,531.232l-.416-.625"/><path class="cls-1" d="M218.823,529.358l-4.579-4.371"/><path class="cls-1" d="M212.37,523.321l-1.457-1.249"/><path class="cls-1" d="M209.456,520.824A74.66,74.66,0,0,0,195.093,510"/><path class="cls-1" d="M193.636,509.583l-.625-.417"/><path class="cls-1" d="M190.305,508.75l-1.041-.416"/><path class="cls-1" d="M186.558,507.917l-.624-.416"/><path class="cls-1" d="M183.227,507.5l-4.371-.833"/><path class="cls-1" d="M168.24,506.668l-2.29.833"/><path class="cls-1" d="M164.493,507.5l-.625.416"/><path class="cls-1" d="M159.913,508.334l-.624.416"/><path class="cls-1" d="M157,509.166l-.625.417"/><path class="cls-1" d="M154.5,510l-.624.416"/><path class="cls-1" d="M344.346,589.1l-.417,1.457"/><path class="cls-1" d="M343.929,598.676a50.65,50.65,0,0,0,.417,17.694"/><path class="cls-1" d="M344.346,617.827c1.14,12.541,1.36,25.16,2.5,37.678"/><path class="cls-1" d="M346.844,656.962a109.193,109.193,0,0,0,.832,12.282"/><path class="cls-1" d="M347.676,670.7q-1.119,8.74,7.7,12.906"/><path class="cls-1" d="M359.333,684.44l.625.416"/><path class="cls-1" d="M363.08,685.689l6.037,1.665"/><path class="cls-1" d="M374.737,688.6l1.041.416"/><path class="cls-1" d="M377.652,689.435l1.04.417"/><path class="cls-1" d="M384.313,691.1l2.706.832"/><path class="cls-1" d="M389.309,692.35l6.453,1.249"/><path class="cls-1" d="M397.219,693.6a9.031,9.031,0,0,1,7.494,1.249"/><path class="cls-1" d="M383.48,487.517c-33.959-4.453-41.768,33.121-36.845,62.657"/><path class="cls-1" d="M80.4,114.49c-10.279,21.732-14.118,44.817-17.9,68.277"/><path class="cls-1" d="M424.488,697.97q1.208,4.921-2.5,5.621"/><path class="cls-1" d="M420.533,703.59l-1.873-.416"/><path class="cls-1" d="M413.456,703.174c2.609,7.427,5,14.17,13.947,15.821"/><path class="cls-1" d="M429.276,719c9.28-1.856,19.756-10.5,24.771-18.527"/><path class="cls-1" d="M356.835,705.256c16,9.846,45.7,26.811,63.989,28.743-3.24-4.3-6.607-8.36-11.323-11.049"/><path class="cls-1" d="M457.586,702.342c-8.593,9.574-16.952,24.542-31.849,21.232"/><path class="cls-1" d="M424.28,723.158l-1.457-.416"/><path class="cls-1" d="M420.533,721.493a35.976,35.976,0,0,1-10.2-17.07"/><path class="cls-1" d="M239.431,537.893l.625-.416"/><path class="cls-1" d="M241.513,537.06l.625-.416"/><path class="cls-1" d="M244.011,536.228l7.7-3.331"/><path class="cls-1" d="M253.17,532.481a38.755,38.755,0,0,0,10.617-4.164"/><path class="cls-1" d="M267.742,526.236q4.932-1.1,9.783-2.5"/><path class="cls-1" d="M279.815,523.738l.625-.417"/><path class="cls-1" d="M282.729,523.322l2.706-.417"/><path class="cls-1" d="M289.391,522.905c20.719-4.645,43.4,25.444,53.081,39.967"/><path class="cls-1" d="M584.149,409.248c0,18.426-36.845,26.235-51.624,32.057"/><path class="cls-1" d="M131.187,513.33v.624"/><path class="cls-1" d="M124.942,518.326l-.625.416"/><path class="cls-1" d="M100.379,519.158H96.007"/><path class="cls-1" d="M90.8,519.158h-2.29"/><path class="cls-1" d="M86.224,519.158l-3.331.208"/><path class="cls-1" d="M78.313,519.575l-3.538-.417"/><path class="cls-1" d="M62.077,518.742l-2.706-.416"/><path class="cls-1" d="M50.836,517.909l-2.29-.416"/><path class="cls-1" d="M39.6,517.493l-12.7-2.082"/><path class="cls-1" d="M25.44,515.411l-4.788-.832"/><path class="cls-1" d="M19.2,514.579l-1.041-.417"/><path class="cls-1" d="M14.2,514.162H11.493"/><path class="cls-1" d="M494.015,363.244c-15.862,9.185-32.973,15.887-47.461,27.478"/><path class="cls-1" d="M144.717,76.812C154.567,88.179,174.542,97.3,188.64,102"/><path class="cls-1" d="M489.227,499.591c-14.927-1.524-29.167-4.015-44.131-5"/><path class="cls-1" d="M531.9,433.6c-7.219-19.594-14.037-3.359-26.02-11.865"/><path class="cls-1" d="M132.436,46.628c1.333,10.932,5.264,20.238,11.449,29.351"/><path class="cls-1" d="M261.913,403.836c-5.234-6.114-20.414-12.936-29.559-14.155"/><path class="cls-1" d="M492.141,390.93c5.537,4.466,26.81-1.3,29.143,6.245"/><path class="cls-1" d="M521.7,400.089c-2,3.942-22.481,10.61-20.816,16.237"/><path class="cls-1" d="M201.546,395.926a48.319,48.319,0,0,0-14.572,20.816"/><path class="cls-1" d="M231.105,475.444c1.311-.36-24.85,9.856-20.192.625"/><path class="cls-1" d="M369.325,702.342a158.25,158.25,0,0,0,20.192,9.783"/><path class="cls-1" d="M480.068,345.134a167.314,167.314,0,0,0-18.527,13.114"/><path class="cls-1" d="M189.472,102.416a62.793,62.793,0,0,0,16.653,5.829"/><path class="cls-1" d="M209.664,609.917q.729,1.561,1.457,3.123"/><path class="cls-1" d="M211.538,614.5q.624,1.562,1.249,3.122"/><path class="cls-1" d="M512.541,345.134c0,8.426-9.111,7.61-12.7,13.531"/><path class="cls-1" d="M504.215,373.861a133.608,133.608,0,0,0-14.364,11.865"/><path class="cls-1" d="M231.938,536.644l-.417-.625"/><path class="cls-1" d="M227.358,534.146l-.416.624"/><path class="cls-1" d="M443.847,494.179H430.941"/><path class="cls-1" d="M361.415,699.844q-10.8-7.353-12.861-.806L356,704.007"/><path class="cls-1" d="M251.505,452.962a19.75,19.75,0,0,1-12.49,4.372"/><path class="cls-1" d="M247.758,478.775a36.934,36.934,0,0,1-12.073,2.5"/><path class="cls-1" d="M214.036,389.681a36.676,36.676,0,0,0-11.658,5.828"/><path class="cls-1" d="M445.929,316.408l-11.241,7.077"/><path class="cls-1" d="M479.86,357.832l-10.408,8.743"/><path class="cls-1" d="M517.537,358.456c-.383,3.5-.266,7.074-1.665,10.409"/><path class="cls-1" d="M459.668,345.55q-11.938,2.125-5.621,6.87"/><path class="cls-1" d="M224.86,114.906l-10.408-3.747"/><path class="cls-1" d="M394.305,714.415,404.713,719"/><path class="cls-1" d="M229.023,388.848H218.615"/><path class="cls-1" d="M403.88,696.721q-3.084,7.607,5,6.661"/><path class="cls-1" d="M509.835,369.281c-.844,2.531-1.349,8.631,1.205,10.025l4.415-9.609"/><path class="cls-1" d="M194.052,466.7c2.279,3.339,5.537,5.595,8.743,7.91"/><path class="cls-1" d="M291.472,295.591q2.082,4.788,4.163,9.576"/><path class="cls-1" d="M265.036,443.179a16.371,16.371,0,0,1-9.368,2.706"/><path class="cls-1" d="M514.206,359.705a20.694,20.694,0,0,1-3.955,9.368"/><path class="cls-1" d="M345.178,553.3a10.493,10.493,0,0,1,0,7.7"/><path class="cls-1" d="M131.187,46l-8.327,7.7"/><path class="cls-1" d="M183.644,437.142l1.249,8.743"/><path class="cls-1" d="M297.717,156.955l5.412,6.869"/><path class="cls-1" d="M303.754,165.489l-2.29,1.458"/><path class="cls-1" d="M480.9,330.979c.9,1.19-5.181,4.994-6.453,6.037"/><path class="cls-1" d="M564.582,367.616l3.122,6.245"/><path class="cls-1" d="M568.537,375.318l1.041,1.04"/><path class="cls-1" d="M296.052,306l3.33,7.911"/><path class="cls-1" d="M343.305,559.958q-.1,1.353-.208,2.706"/><path class="cls-1" d="M97.881,84.1l-5,7.494"/><path class="cls-1" d="M456.337,321.4l-7.7,4.372"/><path class="cls-1" d="M185.309,422.154q-.693,3.736-1.249,7.494"/><path class="cls-1" d="M487.978,339.514l-7.078,5.2"/><path class="cls-1" d="M84.975,105.33l-3.331,6.245"/><path class="cls-1" d="M454.88,353.252q1.824,5.124,6.245,5.413"/><path class="cls-1" d="M514.623,335.975a12.26,12.26,0,0,0,.832,6.245"/><path class="cls-1" d="M240.889,442.762l-5.621,3.956"/><path class="cls-1" d="M203.627,475.028l5.829,2.706"/><path class="cls-1" d="M230.689,469.615q2.5,2.29,5,4.58"/><path class="cls-1" d="M425.529,493.762l-5.828-.208"/><path class="cls-1" d="M505.672,601.174a23.675,23.675,0,0,0-.417,7.911"/><path class="cls-1" d="M470.284,339.93l-5.412,2.914"/><path class="cls-1" d="M252.754,431.73l-5.412,2.914"/><path class="cls-1" d="M92.052,92.424l-2.914,5.413"/><path class="cls-1" d="M495.472,500.424l-5.412-.417"/><path class="cls-1" d="M227.358,433.4c-3.575-.7-7.129-1.585-10.824-1.249"/><path class="cls-1" d="M499.427,359.081l-5,3.747"/><path class="cls-1" d="M447.8,326.608l-4.788,3.538"/><path class="cls-1" d="M242.97,462.33q-4.579-4.762-4.371-1.041"/><path class="cls-1" d="M462.166,302.669q3.88,4.626,1.249,4.579"/><path class="cls-1" d="M228.815,457.334l-4.579,4.579"/><path class="cls-1" d="M88.722,98.669l-2.915,5"/><path class="cls-1" d="M233.187,481.689h-5"/><path class="cls-1" d="M505.047,582.023a61.772,61.772,0,0,1,1.457,7.7"/><path class="cls-1" d="M504.423,573.281a5.513,5.513,0,0,0,.624,4.579"/><path class="cls-1" d="M236.517,119.485l-4.579-1.665"/><path class="cls-1" d="M433.023,313.077l-4.58,3.331"/><path class="cls-1" d="M257.75,472.113q-2.185,1.77-4.372,3.539"/><path class="cls-1" d="M345.8,588.476q1.041,2.291,2.081,4.58"/><path class="cls-1" d="M263.578,407.167,259,408"/><path class="cls-1" d="M262.746,457.126l-4.58-.417"/><path class="cls-1" d="M117.864,59.118,113.7,63.282"/><path class="cls-1" d="M252.962,476.069l-4.371,2.289"/><path class="cls-1" d="M219.864,441.305l-4.163-1.249"/><path class="cls-1" d="M501.717,619.909l-3.123,6.661"/><path class="cls-1" d="M185.725,448.383q.417,2.082.833,4.163"/><path class="cls-1" d="M282.313,277.273l2.082,4.163"/><path class="cls-1" d="M208.207,463.371l-4.163,2.081"/><path class="cls-1" d="M262.746,404.252l3.33,3.747"/><path class="cls-1" d="M235.06,435.269l-2.706,3.955"/><path class="cls-1" d="M226.942,451.3l-3.747,2.914"/><path class="cls-1" d="M490.06,352.212l-3.747,2.081"/><path class="cls-1" d="M506.713,597.011a3.635,3.635,0,0,0-.833,3.747"/><path class="cls-1" d="M469.035,366.991c-.88,1.742,1.258,2.241,1.457,3.539"/><path class="cls-1" d="M470.909,371.363l2.706,3.33"/><path class="cls-1" d="M254,446.718l-3.747,1.249"/><path class="cls-1" d="M443.847,306l-3.747,2.5"/><path class="cls-1" d="M437.186,300.171l-3.747,3.33"/><path class="cls-1" d="M278.566,138.636l3.747,2.915"/><path class="cls-1" d="M241.1,419.656l-4.58,1.666"/><path class="cls-1" d="M497.553,627.4l-2.081,3.331"/><path class="cls-1" d="M389.933,712.542,393.472,714"/><path class="cls-1" d="M262.329,467.95q-1.457,1.458-2.914,2.914"/><path class="cls-1" d="M251.505,409.873l-3.331,1.457"/><path class="cls-1" d="M485.48,354.71l-3.331,1.665"/><path class="cls-1" d="M242.762,434.228l-3.331-1.249"/><path class="cls-1" d="M474.031,337.432l-3.331,2.082"/><path class="cls-1" d="M290.64,149.045l2.914,2.914"/><path class="cls-1" d="M464.247,317.657l-2.914,1.249"/><path class="cls-1" d="M204.46,441.305l-2.914,4.164"/><path class="cls-1" d="M379.317,520.407l-1.874,2.706"/><path class="cls-1" d="M532.317,436.309l-.417,2.915"/><path class="cls-1" d="M371.823,537.477l-2.082,2.914"/><path class="cls-1" d="M492.141,348.465q1.28,1.758-.832,2.914"/><path class="cls-1" d="M294.8,153.208l2.5,2.914"/><path class="cls-1" d="M220.281,465.036l-2.915,1.249"/><path class="cls-1" d="M222.362,465.452q.785-6.69,4.163,0"/><path class="cls-1" d="M209.872,109.494l-2.914-.833"/><path class="cls-1" d="M229.44,474.2l-2.915-.833"/><path class="cls-1" d="M473.823,661.125q-.625,1.458-1.249,2.915"/><path class="cls-1" d="M204.044,427.983l-2.914,2.082"/><path class="cls-1" d="M273.57,424.236l-2.914-.416"/><path class="cls-1" d="M213.619,110.743l-2.914-.833"/><path class="cls-1" d="M257.75,126.979l-2.914-1.249"/><path class="cls-1" d="M224.444,424.236l-2.915-2.082"/><path class="cls-1" d="M216.117,420.905l-2.914,2.082"/><path class="cls-1" d="M530.86,441.722h-.625"/><path class="cls-1" d="M527.529,441.722l-1.874.624"/><path class="cls-1" d="M250.256,464.62q.883,3-1.041,1.457"/><path class="cls-1" d="M581.651,402.587l1.041,2.706"/><path class="cls-1" d="M212.787,438.391l-2.707-1.457"/><path class="cls-1" d="M376.819,524.57l-1.041,2.707"/><path class="cls-1" d="M221.738,456.085l-2.706-1.457"/><path class="cls-1" d="M210.289,455.044l-2.082,2.082"/><path class="cls-1" d="M189.472,459.624l1.249,2.5"/><path class="cls-1" d="M193.219,414.244l-2.5,2.082"/><path class="cls-1" d="M186.142,418.824l-.417,2.5"/><path class="cls-1" d="M183.644,430.9v2.5"/><path class="cls-1" d="M578.737,396.342l1.249,2.5"/><path class="cls-1" d="M227.15,425.693q1.145.729,2.29,1.457"/><path class="cls-1" d="M214.868,427.983l-2.5-1.249"/><path class="cls-1" d="M368.492,701.925l-2.5-1.249"/><path class="cls-1" d="M267.325,409.665l1.666,2.5"/><path class="cls-1" d="M225.693,434.644l-1.249,2.5"/><path class="cls-1" d="M500.884,553.921c-1.363.142-.8,1.141-.833,1.874"/><path class="cls-1" d="M227.358,466.285l2.082,2.081"/><path class="cls-1" d="M232.354,411.538l-2.5,1.457"/><path class="cls-1" d="M517.121,346.8q.209,1.25.416,2.5"/><path class="cls-1" d="M558.337,354.293l1.249,2.5"/><path class="cls-1" d="M432.607,303.918l-2.5,1.249"/><path class="cls-1" d="M436.77,328.065l2.082,2.5"/><path class="cls-1" d="M488.811,636.978l-2.082,1.666"/><path class="cls-1" d="M267.742,423.4l-2.082.417"/><path class="cls-1" d="M270.656,435.893l-1.041,2.082"/><path class="cls-1" d="M214.452,471.7l-2.082,2.082"/><path class="cls-1" d="M502.549,560.583a23.137,23.137,0,0,0,1.666,3.955"/><path class="cls-1" d="M422.615,310.163l1.665,2.081"/><path class="cls-1" d="M195.3,437.558l-.833,2.082"/><path class="cls-1" d="M231.938,440.056q-.625,1.041-1.249,2.082"/><path class="cls-1" d="M514.623,331.4v2.082"/><path class="cls-1" d="M362.456,611.374q-.626,1.041-1.249,2.082"/><path class="cls-1" d="M229.44,444.22l-1.249,1.665"/><path class="cls-1" d="M218.615,419.656l1.665,1.666"/><path class="cls-1" d="M216.95,389.265h-2.082"/><path class="cls-1" d="M232.354,392.387l-2.082,1.041"/><path class="cls-1" d="M297.3,169.445l-2.082,1.249"/><path class="cls-1" d="M204.46,469.2l.833,2.082"/><path class="cls-1" d="M236.1,471.281q-.1,1.041-.208,2.081"/><path class="cls-1" d="M459.668,665.705h-2.082"/><path class="cls-1" d="M462.582,665.08H460.5"/><path class="cls-1" d="M374.737,528.734q-.416,1.041-.832,2.081"/><path class="cls-1" d="M197.8,435.893l-2.082-.208"/><path class="cls-1" d="M472.782,654.672l.625,2.082"/><path class="cls-1" d="M354.337,549.134l-1.665,1.665"/><path class="cls-1" d="M198.632,431.73q2.4.429-1.249,2.081"/><path class="cls-1" d="M222.778,440.473l-1.665.832"/><path class="cls-1" d="M506.921,589.725l-.833,2.082"/><path class="cls-1" d="M300.631,167.363l-1.665.833"/><path class="cls-1" d="M504.215,566.2l-1.666,1.249"/><path class="cls-1" d="M343.721,566.619l-1.873.417"/><path class="cls-1" d="M387.435,487.934h-1.873"/><path class="cls-1" d="M461.333,308.5l-1.665,1.249"/><path class="cls-1" d="M217.366,444.22l-1.665,1.665"/><path class="cls-1" d="M202.8,419.24l-1.665,1.665"/><path class="cls-1" d="M501.3,417.158l1.249,1.666"/><path class="cls-1" d="M196.134,446.3l-1.666-.416"/><path class="cls-1" d="M225.693,429.232l-1.666,1.249"/><path class="cls-1" d="M364.537,544.97q-.207.834-.416,1.666"/><path class="cls-1" d="M429.692,666.954l-1.665.624"/><path class="cls-1" d="M477.153,262.7l-1.665.416"/><path class="cls-1" d="M466.329,665.289l-1.665-.209"/><path class="cls-1" d="M462.166,344.3l-1.666.833"/><path class="cls-1" d="M515.872,343.052q.209.834.416,1.666"/><path class="cls-1" d="M284.811,282.269l.833,1.665"/><path class="cls-1" d="M353.3,598.468l1.457.833"/><path class="cls-1" d="M454.256,286.848,452.59,288.1"/><path class="cls-1" d="M242.762,476.277l-2.082-.833"/><path class="cls-1" d="M287.725,287.681l.833,1.665"/><path class="cls-1" d="M425.113,313.493q.624.833,1.249,1.666"/><path class="cls-1" d="M491.517,634.9q-.729.624-1.457,1.249"/><path class="cls-1" d="M447.594,303.085l-1.249,1.249"/><path class="cls-1" d="M439.684,331.4c.145.955.725.6,1.249.417"/><path class="cls-1" d="M213.619,447.55l-1.041,1.249"/><path class="cls-1" d="M435.521,311.412l-1.665,1.249"/><path class="cls-1" d="M425.945,503.338H424.28"/><path class="cls-1" d="M504.215,617.411q-.417.833-.833,1.665"/><path class="cls-1" d="M262.329,423.82l-1.665.832"/><path class="cls-1" d="M517.953,350.546q-.207.833-.416,1.666"/><path class="cls-1" d="M573.741,388.848q.208.833.416,1.666"/><path class="cls-1" d="M344.346,554.962l-1.249,1.249"/><path class="cls-1" d="M502.549,558.709l-1.457.833"/><path class="cls-1" d="M231.521,389.265h-1.665"/><path class="cls-1" d="M101.628,78.686l-1.041,1.457"/><path class="cls-1" d="M572.908,384.477v2.29"/><path class="cls-1" d="M500.051,365.95h-1.665"/><path class="cls-1" d="M492.558,366.783h-1.666"/><path class="cls-1" d="M240.68,399.673l1.666.208"/><path class="cls-1" d="M570.619,380.314q-1.928-2.56.208,0"/><path class="cls-1" d="M570.827,380.522l1.665,4.371"/><path class="cls-1" d="M100.171,80.559,99.13,82.016"/><path class="cls-1" d="M502.966,615.954l-.833,1.457"/><path class="cls-1" d="M469.035,314.95l-1.457,1.041"/><path class="cls-1" d="M231.938,455.877c-.807.05-1.8-.6-2.29.624"/><path class="cls-1" d="M207.374,457.958l-1.249,1.249"/><path class="cls-1" d="M358.292,601.8l.625,1.457"/><path class="cls-1" d="M196.966,422.571l1.457,1.04"/><path class="cls-1" d="M286.893,145.714l1.249,1.249"/><path class="cls-1" d="M497.137,545.387q-1.689.183,0,1.873"/><path class="cls-1" d="M104.126,75.355,102.877,76.6"/><path class="cls-1" d="M216.534,453.379l-1.249-.417"/><path class="cls-1" d="M213.2,452.13l1.249.416"/><path class="cls-1" d="M423.864,306.832l-1.249.416"/><path class="cls-1" d="M387.643,508.75l-1.249.416"/><path class="cls-1" d="M122.028,54.539l-1.249,1.249"/><path class="cls-1" d="M190.721,444.22l2.082.832"/><path class="cls-1" d="M563.749,365.534l.417,1.249"/><path class="cls-1" d="M460.084,300.171l.833,1.249"/><path class="cls-1" d="M270.656,252.71l.416,1.249"/><path class="cls-1" d="M580.4,399.673l.417,1.249"/><path class="cls-1" d="M257.333,429.648l-2.289.625"/><path class="cls-1" d="M583.317,407.167q.207.624.416,1.249"/><path class="cls-1" d="M279.815,271.861l.416,1.249"/><path class="cls-1" d="M248.174,123.232l-1.249-.416"/><path class="cls-1" d="M213.619,432.979l-1.249.832"/><path class="cls-1" d="M202.378,467.117l-1.248.833"/><path class="cls-1" d="M235.685,421.738l-1.249.416"/><path class="cls-1" d="M113.285,64.114l-.833.833"/><path class="cls-1" d="M505.255,610.334v2.5"/><path class="cls-1" d="M81.228,112.408l-.417,1.249"/><path class="cls-1" d="M471.741,318.489l.833,1.249"/><path class="cls-1" d="M351.631,547.26q-1.041.833-2.081,1.666"/><path class="cls-1" d="M194.052,421.322l-1.249-.417"/><path class="cls-1" d="M382.231,513.746,381.4,515"/><path class="cls-1" d="M254.627,430.689l-1.04.625"/><path class="cls-1" d="M106.207,72.441l-.832.832"/><path class="cls-1" d="M199.881,422.571l-1.041.624"/><path class="cls-1" d="M354.754,598.26l.832,2.082"/><path class="cls-1" d="M249.423,448.383l-1.041.624"/><path class="cls-1" d="M342.888,560.791l-1.04.416"/><path class="cls-1" d="M489.227,534.979l.833.832"/><path class="cls-1" d="M196.134,451.3l-.833.833"/><path class="cls-1" d="M568.745,377.191l.625,1.041"/><path class="cls-1" d="M434.688,325.983l.833.833"/><path class="cls-1" d="M504.215,569.117q-.109-.759-.625-.208"/><path class="cls-1" d="M223.2,471.7l.832.416"/><path class="cls-1" d="M246.509,467.534l-.833.416"/><path class="cls-1" d="M504.215,614.705q1.043.427.416,1.457"/><path class="cls-1" d="M363.08,637.811q-.141,1.147-1.249.625"/><path class="cls-1" d="M209.04,479.191l-.833.833"/><path class="cls-1" d="M269.407,413l.416.833"/><path class="cls-1" d="M260.664,128.645l.833.416"/><path class="cls-1" d="M217.366,453.8l.833.416"/><path class="cls-1" d="M261.08,451.713l.417.833"/><path class="cls-1" d="M195.3,421.738l.833.416"/><path class="cls-1" d="M284.4,143.216l.832.833"/><path class="cls-1" d="M233.6,422.571l-.833.416"/><path class="cls-1" d="M208.623,424.236l-.832-.416"/><path class="cls-1" d="M445.513,305.167l-.833.416"/><path class="cls-1" d="M240.68,424.236l-.416.833"/><path class="cls-1" d="M273.154,258.122l.416.833"/><path class="cls-1" d="M455.505,299.338l-.833.417"/><path class="cls-1" d="M252.338,426.318l.832.416"/><path class="cls-1" d="M439.684,297.673l-.832.833"/><path class="cls-1" d="M491.309,346.383q.207.417.416.833"/><path class="cls-1" d="M289.807,291.844l.416.833"/><path class="cls-1" d="M119.53,57.037l-.833.832"/><path class="cls-1" d="M552.092,341.8l.416.833"/><path class="cls-1" d="M447.178,291.428l-.833.833"/><path class="cls-1" d="M223.2,431.313l-.625.833"/><path class="cls-1" d="M472.99,320.571q.209.415.416.833"/><path class="cls-1" d="M575.823,389.681l.416.833"/><path class="cls-1" d="M224.027,437.975l-.416.832"/><path class="cls-1" d="M459.668,319.738l-.833.417"/><path class="cls-1" d="M200.3,430.9l-.625.625"/><path class="cls-1" d="M481.317,356.791l-.625.208"/><path class="cls-1" d="M547.513,333.061l.416.416"/><path class="cls-1" d="M572.076,382.187q-.105.312-.208.625"/><path class="cls-1" d="M363.08,610.334l-.208.624"/><path class="cls-1" d="M501.3,556.211l.417.417"/><path class="cls-1" d="M493.39,633.231l-.416.417"/><path class="cls-1" d="M275.235,425.485l.417.416"/><path class="cls-1" d="M231.521,427.983l-.416.416"/><path class="cls-1" d="M379.733,666.121l.417.417"/><path class="cls-1" d="M423.031,503.338l-.416.416"/><path class="cls-1" d="M425.113,667.37l-.417.417"/><path class="cls-1" d="M192.8,455.877l.416.416"/><path class="cls-1" d="M211.538,475.028l-.209.624"/><path class="cls-1" d="M102.46,77.437l-.416.416"/><path class="cls-1" d="M223.2,461.289l.208.624"/><path class="cls-1" d="M107.04,71.192l-.416.416"/><path class="cls-1" d="M216.534,466.7l-.417.416"/><path class="cls-1" d="M483.815,530.4l.416.416"/><path class="cls-1" d="M230.272,442.971l-.416.416"/><path class="cls-1" d="M465.08,511.664l-.416.417"/><path class="cls-1" d="M458,509.166l-.416.417"/><path class="cls-1" d="M473.823,645.3l-.416.416"/><path class="cls-1" d="M203.211,437.975l.416.416"/></svg>