<svg id="Layer_1" data-name="Layer 1" xmlns="http://www.w3.org/2000/svg" viewBox="0 0 612 792"><defs><style>.cls-1{fill:none;stroke:#000;stroke-linecap:round;stroke-linejoin:round;stroke-width:3px;}</style></defs><title>drawingArtboard 10</title><path class="cls-1" d="M319.55,385.634l.855.855"/><path class="cls-1" d="M304.159,400.6c-23.712,69.739-36.611,145.5-63.916,213.766"/><path class="cls-1" d="M479.874,617.356c8.967,9,9.844,31.47,12.4,42.967"/><path class="cls-1" d="M492.273,661.819l.855,3.207"/><path class="cls-1" d="M493.128,666.522l.427,1.069"/><path class="cls-1" d="M493.983,670.8q.641,3.1,1.282,6.2"/><path class="cls-1" d="M495.693,680.2l1.282,5.772"/><path class="cls-1" d="M496.975,687.9q.214.534.428,1.069"/><path class="cls-1" d="M497.831,692.174q.213,1.176.427,2.352"/><path class="cls-1" d="M498.686,698.587q.213.961.427,1.924"/><path class="cls-1" d="M499.113,702.862q.214.536.428,1.069"/><path class="cls-1" d="M499.541,706.283q.213.747.427,1.5"/><path class="cls-1" d="M500.4,712.7q.213.747.427,1.5"/><path class="cls-1" d="M501.251,719.536q.213.749.427,1.5"/><path class="cls-1" d="M501.678,722.529l.428.641"/><path class="cls-1" d="M502.533,727.232l.428,1.5"/><path class="cls-1" d="M503.388,731.507l.428,1.069"/><path class="cls-1" d="M504.244,736.637l-.428.642"/><path class="cls-1" d="M502.961,739.63c-10.127,12.518-66.657,17.1-80.8,17.1"/><path class="cls-1" d="M169.7,60.068c-42.406,31.971-66.363,74.8-71.184,127.832"/><path class="cls-1" d="M98.516,189.4q-.215,7.161-.428,14.322"/><path class="cls-1" d="M98.088,205.215v1.069"/><path class="cls-1" d="M98.516,208.208l.855,3.207"/><path class="cls-1" d="M98.088,217.614c-2.835,2.951-6.162,5.468-8.123,9.192"/><path class="cls-1" d="M94.24,231.722l.642-.427"/><path class="cls-1" d="M98.943,236.853q-3.633,3.741-7.268,7.481"/><path class="cls-1" d="M90.393,245.831C71.551,266.5,65.471,295.1,58.328,321.29"/><path class="cls-1" d="M58.328,322.787,57.9,324.71"/><path class="cls-1" d="M57.9,327.917l-.427,1.5"/><path class="cls-1" d="M57.473,339.888l.427,1.069"/><path class="cls-1" d="M57.9,342.881l.428,2.351"/><path class="cls-1" d="M58.755,347.583c4.35,20.644,15.491,39.343,26.935,56.648"/><path class="cls-1" d="M86.545,405.3l2.565,3.634"/><path class="cls-1" d="M89.965,410.858l.428.641"/><path class="cls-1" d="M91.248,416.416l-1.283,2.351"/><path class="cls-1" d="M89.538,420.264l-.428.641"/><path class="cls-1" d="M102.791,429.67l1.069-.428"/><path class="cls-1" d="M106.639,428.814l.641-.427"/><path class="cls-1" d="M116.9,424.967l.641-.428"/><path class="cls-1" d="M119.892,424.112l.642-.428"/><path class="cls-1" d="M130.581,418.554l9.192-5.131"/><path class="cls-1" d="M142.124,412.568l4.489-2.137"/><path class="cls-1" d="M148.109,410l.642-.427"/><path class="cls-1" d="M150.675,409.148l.641-.428"/><path class="cls-1" d="M157.943,407.865l.641-.427"/><path class="cls-1" d="M401,623.983q-.66,5.334-2.916,2.6l1.419,4.453"/><path class="cls-1" d="M399.926,632.747l1.282,4.489"/><path class="cls-1" d="M401.636,639.16q.213.749.427,1.5"/><path class="cls-1" d="M402.063,642.58q.855,3.313,1.711,6.627"/><path class="cls-1" d="M404.2,651.131l.428,1.5"/><path class="cls-1" d="M404.629,654.124l.427,1.069"/><path class="cls-1" d="M405.056,656.689q.642,3.314,1.283,6.627"/><path class="cls-1" d="M406.339,665.667l.427,1.5"/><path class="cls-1" d="M406.766,669.087l.428.642"/><path class="cls-1" d="M407.194,671.225q2.3,9.225,3.848,18.6"/><path class="cls-1" d="M411.042,691.319q1.068,5.238,2.137,10.475"/><path class="cls-1" d="M413.607,704.573c4.1,16.917,5.719,34.354,10.688,51.09"/><path class="cls-1" d="M420.02,405.086c-35.1,3.9-46.5,20.633-52.822,53.869-1.575,8.283-2.177,82.209-5.964,83.155"/><path class="cls-1" d="M426.005,405.514c-8.125,6.771-17.816,9.544-25.077,17.707,2.935,7.877,55.369,1.5,60.776,2.173"/><path class="cls-1" d="M461.918,427.1l1.326,10.047c-13.856,0-37.419-8.619-39.8,8.551"/><path class="cls-1" d="M425.15,446.343c18.564.688,39.147-4.21,37.623,15.6"/><path class="cls-1" d="M462.773,462.162c-8.156,13.594-39.761-16.789-39.761,7.909"/><path class="cls-1" d="M423.012,474.133c-1.239,8.366-3.241,16.555-2.565,25.01"/><path class="cls-1" d="M420.447,500.64a47.2,47.2,0,0,1-2.13,13.547,66.055,66.055,0,0,1,19.873,1.844"/><path class="cls-1" d="M439.686,516.031h1.069"/><path class="cls-1" d="M442.251,516.031H447.6"/><path class="cls-1" d="M449.092,516.031a51.806,51.806,0,0,1,13.9.855"/><path class="cls-1" d="M463.2,521.161v2.352"/><path class="cls-1" d="M463.2,525.864c3.175,15.854-49.794-15.105-48.565,11.967.125,2.772,63.074,15.919,49.282,25.346-17.3-4.832-33.944-6.14-51.807-8.241"/><path class="cls-1" d="M348.622,557.074c17.1-39.169,2.018-14.859-26.293-20.521"/><path class="cls-1" d="M320.832,536.553c-8.566,1.3-4.973,10.621-2.992,15.177"/><path class="cls-1" d="M317.84,554.081q-.214,2.245-.428,4.489"/><path class="cls-1" d="M317.412,560.067q.215.961.428,1.924"/><path class="cls-1" d="M317.84,566.907l.855,3.207"/><path class="cls-1" d="M319.55,572.465l.855,1.069"/><path class="cls-1" d="M321.26,575.03l.427.642"/><path class="cls-1" d="M324.253,579.306l.855,1.5"/><path class="cls-1" d="M325.963,582.726l1.282,2.779"/><path class="cls-1" d="M327.245,588.284l.428.641"/><path class="cls-1" d="M327.673,594.269l2.565,5.344"/><path class="cls-1" d="M330.666,601.11l.427.641"/><path class="cls-1" d="M331.521,603.247q.213.749.427,1.5"/><path class="cls-1" d="M332.376,606.24l1.71,5.772"/><path class="cls-1" d="M334.513,619.921v1.069"/><path class="cls-1" d="M335.368,622.486l4.062,2.993"/><path class="cls-1" d="M340.926,626.762l5.558,4.916"/><path class="cls-1" d="M347.767,633.6l.427.642"/><path class="cls-1" d="M349.049,639.16q.855,4.81,1.711,9.62"/><path class="cls-1" d="M352.042,649.848l1.924-.855"/><path class="cls-1" d="M355.89,648.993q10.974-6.9,22.018-13.681"/><path class="cls-1" d="M379.832,635.312q12.63,11.877,20.735,3.634"/><path class="cls-1" d="M304.159,82.514C271.532,61.539,215.2,30.237,177.182,55.579"/><path class="cls-1" d="M365.082,277.041c-7.7,36.6-17.372,61.94-36.768,94.912"/><path class="cls-1" d="M452.512,196.237l-2.351,1.283"/><path class="cls-1" d="M444.389,200.94l-1.5,1.283"/><path class="cls-1" d="M565.167,203.719c7.97,8.631,11.117,28.637,9.192,40.188"/><path class="cls-1" d="M574.359,246.258a95.646,95.646,0,0,1-3.42,21.163"/><path class="cls-1" d="M570.511,268.918l-.855,1.923"/><path class="cls-1" d="M568.8,273.193l-1.71,2.351"/><path class="cls-1" d="M551.272,284.736l-.641.428"/><path class="cls-1" d="M543.576,292.432l-1.71,2.351"/><path class="cls-1" d="M535.881,300.982l-2.352,1.283"/><path class="cls-1" d="M473.034,293.714l-1.069.428"/><path class="cls-1" d="M466.193,294.569l-1.5.428"/><path class="cls-1" d="M446.954,300.127l-7.482,3.848"/><path class="cls-1" d="M435.411,306.113l-.641.427"/><path class="cls-1" d="M432.418,307.823l-.641.427"/><path class="cls-1" d="M431.563,308.464l-2.351.642"/><path class="cls-1" d="M427.288,309.533l-1.069.428"/><path class="cls-1" d="M53.411,424.325C14.52,464.4,25.3,516.9,31.393,565.625"/><path class="cls-1" d="M198.131,494.227c-12.676-2.716.551,27.656,1.71,33.561"/><path class="cls-1" d="M200.268,530.567q2.138,13.573,4.276,27.148"/><path class="cls-1" d="M204.544,559.639l.427.642"/><path class="cls-1" d="M204.971,561.777l.428,1.924"/><path class="cls-1" d="M205.826,566.48a95.314,95.314,0,0,0,2.138,12.184"/><path class="cls-1" d="M207.964,580.588a17.164,17.164,0,0,1,1.71,12.612"/><path class="cls-1" d="M210.1,595.979l2.565,12.185"/><path class="cls-1" d="M212.667,609.66l.427,2.779"/><path class="cls-1" d="M213.094,613.936l1.283,5.771"/><path class="cls-1" d="M214.377,621.631q.64,3.1,1.283,6.2"/><path class="cls-1" d="M215.66,629.754l.427,2.779"/><path class="cls-1" d="M216.087,634.03l.855,5.771"/><path class="cls-1" d="M216.942,641.3l.428,2.779"/><path class="cls-1" d="M217.37,646.428q.213,2.031.427,4.062"/><path class="cls-1" d="M217.8,652.841l.855,5.344"/><path class="cls-1" d="M219.08,662.247l1.282,4.489"/><path class="cls-1" d="M150.675,464.727c-4.591,24.363-6.483,48.5-10.689,72.681"/><path class="cls-1" d="M209.46,593.2c-22.927-.674-46.408-6.187-69.474-7.909"/><path class="cls-1" d="M425.364,311.029c12.056,9.816,13.51,28.988,16.46,42.754"/><path class="cls-1" d="M441.824,356.134v3.634"/><path class="cls-1" d="M441.824,365.54v1.069"/><path class="cls-1" d="M441.824,369.388q.213,1.817.427,3.634"/><path class="cls-1" d="M441.61,377.3c-4.235-1.852-41.744,3.124-35.057,2.576,0-21.783-14.29-55.848,10.688-68.416"/><path class="cls-1" d="M228.485,611.371c21.493,4.959-.593,41.674-7.054,57.289"/><path class="cls-1" d="M343.919,222.317c14.279,14.279,17.689,25.363,20.522,44.249"/><path class="cls-1" d="M178.037,415.133l.427.642"/><path class="cls-1" d="M178.464,418.981l.428,2.352"/><path class="cls-1" d="M178.892,423.257l1.71,8.336"/><path class="cls-1" d="M180.6,433.09l.427,2.351"/><path class="cls-1" d="M181.029,437.365l.428.641"/><path class="cls-1" d="M181.457,439.5c3.845,16.877,4.167,38.477,11.971,54.083"/><path class="cls-1" d="M152.385,394.184c-10.792-12.305-35.142-3.686-45.1,4.062"/><path class="cls-1" d="M347.339,167.592a98.843,98.843,0,0,1,2.566,37.837"/><path class="cls-1" d="M351.615,209.918l1.282,4.489"/><path class="cls-1" d="M352.042,217.614l-8.337,4.061"/><path class="cls-1" d="M445.03,717.826c35.738,15.882,41.772-57.308-.213-48.311"/><path class="cls-1" d="M348.836,559.425c21.491,4.03,24.315,8.065,36.9,27.761,10.745,16.815,3.47,16.9,12.051,35.728"/><path class="cls-1" d="M411.9,555.15c6.607,5.053,13.466,9.108,16.246,17.1"/><path class="cls-1" d="M428.143,575.03c3.966,21.69-11.827,23.7-28.859,21.805"/><path class="cls-1" d="M479.019,618.639c-7.322.69-83.906-3.167-80.8,7.695"/><path class="cls-1" d="M564.739,203.291l-7.268-8.764"/><path class="cls-1" d="M545.714,185.976l-1.924-.855"/><path class="cls-1" d="M525.62,185.549l-4.061.427"/><path class="cls-1" d="M490.99,188.542h-1.069"/><path class="cls-1" d="M340.5,132.535c2.953,11.392,5.815,22.431,7.054,34.2"/><path class="cls-1" d="M426.433,620.135l-3.207,1.5"/><path class="cls-1" d="M423.012,621.845q.214,2.352.428,4.7"/><path class="cls-1" d="M423.012,627.617l-2.778.427"/><path class="cls-1" d="M417.455,628.044l-3.207.428"/><path class="cls-1" d="M412.752,628.472l-12.826,2.779"/><path class="cls-1" d="M234.471,512.611c-1.792-7.635-23.333-13.891-29.927-16.246"/><path class="cls-1" d="M429.853,378.579l.855,11.116"/><path class="cls-1" d="M430.708,391.192c.7,6.844,3.668,12.29-2.565,14.963"/><path class="cls-1" d="M505.954,234.715c-1.77,2.486-55.482,7.743-57.5,6.211-11.593-8.786,1.856-30.287-2.992-39.986"/><path class="cls-1" d="M416.386,380.931q-3.117,13.067,4.061,23.514"/><path class="cls-1" d="M420.661,404.659l4.062,1.5"/><path class="cls-1" d="M428.143,619.707c-9.449-2.8-18.115-2.032-26.293,3.421"/><path class="cls-1" d="M327.673,107.738c4.391,7.684,8.695,15.632,11.757,23.942"/><path class="cls-1" d="M225.279,478.622a105.326,105.326,0,0,1,23.3,13.04"/><path class="cls-1" d="M162.646,417.271c0,.119,2.085,16.418-.856,20.094"/><path class="cls-1" d="M470.469,190.679l-1.5.428"/><path class="cls-1" d="M465.338,191.534l-.641.428"/><path class="cls-1" d="M459.78,193.244l-.641.428"/><path class="cls-1" d="M506.381,206.07a53.59,53.59,0,0,1,.855,26.08"/><path class="cls-1" d="M224.851,478.194l-16.887-8.336"/><path class="cls-1" d="M58.969,626.12l15.177,5.772"/><path class="cls-1" d="M482.439,191.534a51.331,51.331,0,0,1-23.728,3.207"/><path class="cls-1" d="M35.241,589.566l3.42,14.109"/><path class="cls-1" d="M432.632,709.062a19.392,19.392,0,0,0,11.831,9.169l5.484-9.383"/><path class="cls-1" d="M100.226,401.025l-13.254,3.634"/><path class="cls-1" d="M70.3,413.423A22.548,22.548,0,0,0,57.686,419.2"/><path class="cls-1" d="M426.86,693.67c-1.088,3.266.715,12.218,5.558,12.185"/><path class="cls-1" d="M328.1,372.38l-.427,1.069"/><path class="cls-1" d="M326.39,375.373l-4.275,4.917"/><path class="cls-1" d="M319.977,382.214l-1.282,1.5"/><path class="cls-1" d="M494.838,191.534h2.351"/><path class="cls-1" d="M497.4,191.534q2.895-1.9,4.917,2.138"/><path class="cls-1" d="M502.961,195.81a62.526,62.526,0,0,1,2.993,9.405"/><path class="cls-1" d="M154.1,452.756q-1.5,5.559-2.993,11.116"/><path class="cls-1" d="M492.273,190.465a17.189,17.189,0,0,0-3.207-.641"/><path class="cls-1" d="M431.136,681.486c-2.262,3.58-2.994,5.989-4.276,9.833"/><path class="cls-1" d="M439.9,672.721a25.342,25.342,0,0,0-8.337,7.91"/><path class="cls-1" d="M450.375,687.9c-2.132-.913-8.425,5.162-13.254,5.344"/><path class="cls-1" d="M153.24,394.612q6.756,2.136,8.551,7.7"/><path class="cls-1" d="M139.559,538.263a57.265,57.265,0,0,1-4.275,9.4"/><path class="cls-1" d="M39.089,604.53a23.156,23.156,0,0,0,4.7,8.551"/><path class="cls-1" d="M218.438,538.9l8.337,5.344"/><path class="cls-1" d="M446.954,671.866l8.337.642"/><path class="cls-1" d="M79.277,408.293l-7.909,4.489"/><path class="cls-1" d="M32.248,568.19q.215,5.344.428,10.688"/><path class="cls-1" d="M33.1,580.588l1.711,7.7"/><path class="cls-1" d="M443.106,693.243q1.661,9.383-8.123,5.344"/><path class="cls-1" d="M464.483,704.786q1.026,9.252-3.848,6.627"/><path class="cls-1" d="M462.987,689.609q-2.16,3.267-4.489,6.413"/><path class="cls-1" d="M305.014,82.941,311,88.072"/><path class="cls-1" d="M157.088,445.488l-2.566,6.413"/><path class="cls-1" d="M440.114,683.41l6.413,2.351"/><path class="cls-1" d="M437.335,708.634c6.4-1.289,6.158-1.892,2.779,3.634"/><path class="cls-1" d="M56.19,486.531l-5.985,1.71"/><path class="cls-1" d="M453.8,699.015q-2.919,9.557-11.116,8.764"/><path class="cls-1" d="M106.853,398.674l-5.772,1.923"/><path class="cls-1" d="M208.819,533.132l5.772,3.207"/><path class="cls-1" d="M442.679,702.007l-2.565,5.558"/><path class="cls-1" d="M438.4,682.341a10.271,10.271,0,0,1-2.352,5.344"/><path class="cls-1" d="M455.932,688.754c-1.354,1.378-1.274,3.193-1.5,4.916"/><path class="cls-1" d="M464.056,675.5c-.007,1.816.148,3.671-1.283,5.131"/><path class="cls-1" d="M217.8,578.023l-5.13-2.138"/><path class="cls-1" d="M249.862,492.517l5.13,3.42"/><path class="cls-1" d="M85.049,405.086l-4.917,2.779"/><path class="cls-1" d="M437.549,692.6l-4.49,4.061"/><path class="cls-1" d="M103.219,628.258l-4.7,1.5"/><path class="cls-1" d="M447.168,669.3c-.488,2.936-4.7,3.676-3.634,5.772"/><path class="cls-1" d="M203.689,495.937l-4.7-1.283"/><path class="cls-1" d="M50.632,619.921l4.276,3.848"/><path class="cls-1" d="M163.073,411.286q-.213,2.137-.427,4.275"/><path class="cls-1" d="M497.4,191.748l3.848,3.207"/><path class="cls-1" d="M456.787,669.515c-.665,2.452-1.33,4.9-1.928,7.106l3.639-2.831"/><path class="cls-1" d="M444.6,679.134l-3.42,4.062"/><path class="cls-1" d="M458.711,681.058q-.747,2.137-1.5,4.276"/><path class="cls-1" d="M453.8,695.167l-3.848.427"/><path class="cls-1" d="M462.345,705l-3.847,2.138"/><path class="cls-1" d="M324.466,103.249q1.39,1.816,2.779,3.634"/><path class="cls-1" d="M429.639,701.152l.855,4.062"/><path class="cls-1" d="M321.26,98.76l2.779,4.061"/><path class="cls-1" d="M457.643,699.015q2.844,1.518.427,5.13"/><path class="cls-1" d="M370.212,562.846l3.848.213"/><path class="cls-1" d="M431.563,696.877l-1.924,2.565"/><path class="cls-1" d="M439.686,713.123q-2.128,2.424,2.565,1.71"/><path class="cls-1" d="M449.947,709.917,453.8,711.2"/><path class="cls-1" d="M86.117,633.175H82.27"/><path class="cls-1" d="M472.82,707.138h-3.634"/><path class="cls-1" d="M311.854,88.927l3.42,3.42"/><path class="cls-1" d="M446.954,697.732q-.966,3.161-3.42,2.993"/><path class="cls-1" d="M129.3,600.255l-3.42-.428"/><path class="cls-1" d="M133.573,600.255h-3.42"/><path class="cls-1" d="M460.208,681.058l-5.131-.855"/><path class="cls-1" d="M161.363,438.648l-1.71,2.992"/><path class="cls-1" d="M449.092,681.058l-.855,2.993"/><path class="cls-1" d="M467.9,704.145c.795.367-2.992-2.346-2.992-.855"/><path class="cls-1" d="M132.291,558.357q-.214,1.5-.428,2.992"/><path class="cls-1" d="M464.911,695.167l-2.138,2.565"/><path class="cls-1" d="M462.773,686.189l2.993,1.282"/><path class="cls-1" d="M454.864,677.852c-.833.422-.695,2.369-2.352,1.5"/><path class="cls-1" d="M456.787,688.754l2.566.427"/><path class="cls-1" d="M453.367,712.7l-1.282,2.565"/><path class="cls-1" d="M370.426,560.067l-.855,2.351"/><path class="cls-1" d="M427.929,405.086h-4.061"/><path class="cls-1" d="M462.345,698.587l-1.71,2.565"/><path class="cls-1" d="M161.79,547.668h-2.565"/><path class="cls-1" d="M177.182,56.862l-.642,1.5"/><path class="cls-1" d="M176.754,605.813l2.138.427"/><path class="cls-1" d="M448.451,694.953l-2.352-.641"/><path class="cls-1" d="M215.66,536.98l2.351,1.5"/><path class="cls-1" d="M494.624,190.252l2.351.213"/><path class="cls-1" d="M97.661,630.61l-2.352,1.5"/><path class="cls-1" d="M502.106,193.886l-2.352-.855"/><path class="cls-1" d="M456.574,686.189c.423,1.42-.877,1.118-1.5,1.5"/><path class="cls-1" d="M50.632,545.958l-2.137,1.71"/><path class="cls-1" d="M166.066,447.2l2.137,1.283"/><path class="cls-1" d="M316.985,94.057,318.7,96.2"/><path class="cls-1" d="M464.056,683.2l-1.924,1.5"/><path class="cls-1" d="M55.549,421.76l-1.71,2.138"/><path class="cls-1" d="M472.606,703.29l-2.137.427"/><path class="cls-1" d="M37.379,483.111l-2.993,1.283"/><path class="cls-1" d="M204.971,468.147l2.138,1.283"/><path class="cls-1" d="M485.646,190.465l-1.924.642"/><path class="cls-1" d="M439.259,680.2l1.71.214"/><path class="cls-1" d="M469.186,693.884l-1.5,1.924"/><path class="cls-1" d="M58.328,509.618l-1.71,1.283"/><path class="cls-1" d="M466.193,681.058l-1.71,1.283"/><path class="cls-1" d="M467.262,696.236l-.855,1.71"/><path class="cls-1" d="M131.863,562.2v1.711"/><path class="cls-1" d="M438.831,691.319l-1.71-.427"/><path class="cls-1" d="M57.259,419.623l-1.283,1.71"/><path class="cls-1" d="M453.8,197.52l-1.71-.214"/><path class="cls-1" d="M184.45,547.668h-1.71"/><path class="cls-1" d="M78.422,632.32l1.71.427"/><path class="cls-1" d="M435.625,688.113q-2.346,2.337.641,2.351"/><path class="cls-1" d="M446.954,702.007l1.71.428"/><path class="cls-1" d="M175.9,55.793,173.12,57.5"/><path class="cls-1" d="M466.193,703.931l-2.565.642"/><path class="cls-1" d="M466.621,687.9l1.71.427"/><path class="cls-1" d="M50.205,467.292l-1.71.428"/><path class="cls-1" d="M206.254,531.85l1.71.855"/><path class="cls-1" d="M90.82,589.139l-1.282,1.283"/><path class="cls-1" d="M485.432,189.4c.831,1.732,1.092,1.756,2.352.213"/><path class="cls-1" d="M431.563,707.138l.641,1.5"/><path class="cls-1" d="M218.652,578.451l1.283,1.282"/><path class="cls-1" d="M95.951,619.066l-1.283,1.283"/><path class="cls-1" d="M98.516,613.936l-.855.855"/><path class="cls-1" d="M458.925,706.069l-2.565-.214"/><path class="cls-1" d="M429.425,404.018l-1.068.641"/><path class="cls-1" d="M162.218,445.061l.855.427"/><path class="cls-1" d="M441.4,671.225l-.641.641"/><path class="cls-1" d="M133.573,554.081l-.427.855"/><path class="cls-1" d="M172.693,57.931l-.856.427"/><path class="cls-1" d="M462.345,701.152l.855.428"/><path class="cls-1" d="M55.763,511.328l-.855.428"/><path class="cls-1" d="M432.418,688.754l.428.427"/><path class="cls-1" d="M487.57,190.465h.641"/><path class="cls-1" d="M434.128,698.16l-.641-.214"/><path class="cls-1" d="M464.056,702.007l.641.642"/><path class="cls-1" d="M470.041,692.6l-.428.427"/><path class="cls-1" d="M255.848,496.365l.427.427"/><path class="cls-1" d="M48.067,442.923l-.428.428"/><path class="cls-1" d="M93.813,494.227l-.428.427"/><path class="cls-1" d="M448.664,685.334l-.427.427"/><path class="cls-1" d="M44.647,613.508l.427.428"/><path class="cls-1" d="M451.23,599.186c-11.384,3.124,43.653,16.909,32.706,9.619"/><path class="cls-1" d="M479.019,607.1c-7.256-3.964-18.88-6.886-27.576-7.909"/></svg>