<svg id="Layer_1" data-name="Layer 1" xmlns="http://www.w3.org/2000/svg" viewBox="0 0 612 792"><defs><style>.cls-1{fill:none;stroke:#000;stroke-linecap:round;stroke-linejoin:round;stroke-width:3px;}</style></defs><title>drawingArtboard 8</title><path class="cls-1" d="M379.3,255.033c-11.686-32.958-28.616-37.889-58.135-18.579-20.028,13.1-23.62,6.437-21.379,32.9.74,8.739,9.093,29.709,18.8,30.788"/><path class="cls-1" d="M323.076,300.568l2.351-.856"/><path class="cls-1" d="M335.474,297.147a42.224,42.224,0,0,0,17.958-9.406"/><path class="cls-1" d="M353.645,287.741c5.385-3.329,9.543-8.685,16.247-9.834"/><path class="cls-1" d="M371.816,277.48q7.523-2.426,7.269-9.192"/><path class="cls-1" d="M536,494.675v-.641"/><path class="cls-1" d="M545.4,484.414l1.069-.855"/><path class="cls-1" d="M547.967,482.276l1.069-.855"/><path class="cls-1" d="M550.96,479.711l1.5-1.283"/><path class="cls-1" d="M554.38,476.718l11.971-11.33"/><path class="cls-1" d="M569.344,462.609l2.352-2.138"/><path class="cls-1" d="M574.475,457.906l.855-1.069"/><path class="cls-1" d="M580.033,452.348l4.275-4.49"/><path class="cls-1" d="M587.3,444.652q.855-1.389,1.711-2.779"/><path class="cls-1" d="M604.831,358.714q-.215-.534-.428-1.069"/><path class="cls-1" d="M595.852,333.489l-.427-.641"/><path class="cls-1" d="M594.57,331.351l-.428-.641"/><path class="cls-1" d="M592.859,328.358l-2.137-4.489"/><path class="cls-1" d="M589.867,320.662c-.143-.213-.285-.427-.428-.641"/><path class="cls-1" d="M589.012,317.242q-.214-.534-.428-1.069"/><path class="cls-1" d="M588.156,312.539l-.427-.641"/><path class="cls-1" d="M587.3,308.263l-.427-.641"/><path class="cls-1" d="M586.874,304.843l-.855-4.062"/><path class="cls-1" d="M586.019,299.285q-.215-.962-.428-1.924"/><path class="cls-1" d="M571.91,314.249l-2.78,1.71"/><path class="cls-1" d="M567.634,317.242l-1.5,1.283"/><path class="cls-1" d="M552.242,332.634l-.855.855"/><path class="cls-1" d="M547.539,337.764l-2.993,3.207"/><path class="cls-1" d="M540.271,344.605l-.641.428"/><path class="cls-1" d="M534.285,349.308l-1.069.855"/><path class="cls-1" d="M533,350.377l-2.779,1.924"/><path class="cls-1" d="M527.444,354.011l-.641.428"/><path class="cls-1" d="M521.459,357l-.642.428"/><path class="cls-1" d="M546.684,187.267c31.189-1.707,18.619,32.107,4.655,40.588-17.168,10.426-56.716,3.616-76.7,4.305"/><path class="cls-1" d="M381.436,267.432c13.526,3.63,27.613,5.049,39.967,8.769,5.308,1.6-1.789,18.595,10.364,18.595,8.357-5.741-3.434-18.648,11.664-21.164"/><path class="cls-1" d="M444.927,273.632c15.364.5,25.171,9.17,43.19,2.1l-5.138-12.573"/><path class="cls-1" d="M482.979,261.661c-.348-2.031,7.032-31.627-5.986-26.081"/><path class="cls-1" d="M265.356,316.387c-4.373,28.431,30.936,71.416,35.487,101.757"/><path class="cls-1" d="M429.535,541.706l.428,1.069"/><path class="cls-1" d="M430.391,544.7a55.849,55.849,0,0,0,5.985,11.757"/><path class="cls-1" d="M437.659,558.808l1.283,1.924"/><path class="cls-1" d="M440.652,563.511l2.993,5.344"/><path class="cls-1" d="M444.5,570.779l1.282,1.924"/><path class="cls-1" d="M447.92,576.765l.855,1.069"/><path class="cls-1" d="M448.775,578.047l3.848,7.483"/><path class="cls-1" d="M453.906,587.881l2.138,3.634"/><path class="cls-1" d="M458.609,595.149l.855,1.069"/><path class="cls-1" d="M463.312,599.852c9.42,8.259,13.1,8.3,22.019,11.544"/><path class="cls-1" d="M486.4,613.962q-1.069,1.817-2.138,3.634"/><path class="cls-1" d="M483.407,619.947q-.214.749-.428,1.5"/><path class="cls-1" d="M380.367,463.892q.214,1.6.428,3.206"/><path class="cls-1" d="M380.8,468.6l.855,2.779"/><path class="cls-1" d="M382.077,473.725q.855,2.886,1.711,5.772"/><path class="cls-1" d="M384.215,480.994q1.07,2.671,2.138,5.344"/><path class="cls-1" d="M386.78,487.834l8.124,14.323"/><path class="cls-1" d="M395.759,503.654l.855,1.5"/><path class="cls-1" d="M397.469,506.647q1.71,2.886,3.421,5.772"/><path class="cls-1" d="M401.1,512.632l1.5,1.924"/><path class="cls-1" d="M404.524,516.694l.641.855"/><path class="cls-1" d="M406.875,519.473a102.117,102.117,0,0,0,15.178,9.406"/><path class="cls-1" d="M490.675,624.223l.428,1.5"/><path class="cls-1" d="M491.53,627.643q.215.749.428,1.5"/><path class="cls-1" d="M492.385,631.491l.428.641"/><path class="cls-1" d="M493.24,634.484q.214.748.428,1.5"/><path class="cls-1" d="M494.1,637.9l1.711,4.062"/><path class="cls-1" d="M498.371,648.166l1.71,3.634"/><path class="cls-1" d="M500.936,653.3l.855,1.5"/><path class="cls-1" d="M502.005,655.006q.962,1.391,1.924,2.779"/><path class="cls-1" d="M506.494,660.565l.428.641"/><path class="cls-1" d="M508.632,663.13l.428.641"/><path class="cls-1" d="M521.245,674.032l.855.642"/><path class="cls-1" d="M524.452,675.956l1.923.855"/><path class="cls-1" d="M530.437,678.522l.642.427"/><path class="cls-1" d="M538.774,681.3l1.283-.214"/><path class="cls-1" d="M541.553,681.087l.642-.428"/><path class="cls-1" d="M551.387,679.377l.641-.428"/><path class="cls-1" d="M558.228,676.384l.641-.428"/><path class="cls-1" d="M562.076,674.246l.641-.427"/><path class="cls-1" d="M572.337,664.84l.855-1.5"/><path class="cls-1" d="M574.475,660.992l1.282-2.351"/><path class="cls-1" d="M576.613,656.289l.855-1.924"/><path class="cls-1" d="M579.178,647.31q.641-2.457,1.283-4.916"/><path class="cls-1" d="M580.888,637.477l.428-.641"/><path class="cls-1" d="M581.316,624.65q-.215-2.031-.428-4.061"/><path class="cls-1" d="M580.888,618.237l-.855-4.489"/><path class="cls-1" d="M580.033,612.251c-5.786-20.828-15.794-31.623-32.708-45.747"/><path class="cls-1" d="M547.539,563.938l.428-.641"/><path class="cls-1" d="M544.119,563.083l-1.5.855"/><path class="cls-1" d="M540.7,558.38q-.213-.749-.427-1.5"/><path class="cls-1" d="M540.271,551.539q-.214-2.458-.428-4.917"/><path class="cls-1" d="M538.988,541.706q-.213-.963-.427-1.924"/><path class="cls-1" d="M538.133,537.43c-1.584-4.537-2.645-9.274-5.131-13.468"/><path class="cls-1" d="M532.575,522.466c-7.324-13.262-13.083-22.378-23.943-32.708"/><path class="cls-1" d="M508.418,489.545A75.779,75.779,0,0,0,490.461,478"/><path class="cls-1" d="M488.965,475.863a5.19,5.19,0,0,0,1.283-3.848"/><path class="cls-1" d="M348.942,332.848q.535,2.351,1.069,4.7"/><path class="cls-1" d="M350.866,342.467l.855,2.78"/><path class="cls-1" d="M353,349.736a157.248,157.248,0,0,0,7.268,20.736"/><path class="cls-1" d="M365.4,386.505l1.283,5.344"/><path class="cls-1" d="M367.113,393.773l2.565,9.62"/><path class="cls-1" d="M370.106,405.317q.215.748.428,1.5"/><path class="cls-1" d="M370.961,408.31q.214.749.428,1.5"/><path class="cls-1" d="M371.816,412.586l.428,1.068"/><path class="cls-1" d="M372.671,416.434l.428.641"/><path class="cls-1" d="M373.1,419l.427.641"/><path class="cls-1" d="M374.809,423.7l.428,1.069"/><path class="cls-1" d="M376.092,428.405l.855,2.779"/><path class="cls-1" d="M377.8,436.1l2.565,10.9"/><path class="cls-1" d="M373.1,456.623l5.344,1.283"/><path class="cls-1" d="M333.764,421.564c-2.2.21-29.958,1.246-29.591,6.347,11.322,2.794,25.775-1.709,36.432-5.706"/><path class="cls-1" d="M397.042,216.768c-18.279,9.585,1.993,28.757-17.316,41.045"/><path class="cls-1" d="M393.621,376.244l1.283,1.5"/><path class="cls-1" d="M397.255,379.878l2.993,2.779"/><path class="cls-1" d="M403.241,385.436l.855.642"/><path class="cls-1" d="M404.31,386.291l1.5,1.069"/><path class="cls-1" d="M406.02,387.574l4.7,4.062"/><path class="cls-1" d="M410.937,391.636l2.565,2.137"/><path class="cls-1" d="M416.281,396.766l2.138,2.352"/><path class="cls-1" d="M418.633,399.332l4.275,3.848"/><path class="cls-1" d="M423.122,403.393l7.7,6.627"/><path class="cls-1" d="M433.6,405.1l.641-.855"/><path class="cls-1" d="M435.094,402.752l1.068-.855"/><path class="cls-1" d="M438.514,401.042l.641.427"/><path class="cls-1" d="M440.01,402.966,439.8,405.1"/><path class="cls-1" d="M440.224,411.3c4.878,1.7,9.176,4.48,13.468,7.268"/><path class="cls-1" d="M459.036,422.847l1.5,1.282"/><path class="cls-1" d="M461.6,425.412a85.639,85.639,0,0,1,10.688,12.613"/><path class="cls-1" d="M473.573,439.949l.428.641"/><path class="cls-1" d="M474.856,442.514l.855,1.069"/><path class="cls-1" d="M477.421,447.217l1.283,2.352"/><path class="cls-1" d="M479.131,451.065l1.71,4.062"/><path class="cls-1" d="M481.269,456.623q.642,1.391,1.283,2.779"/><path class="cls-1" d="M482.979,461.326q.215.535.428,1.069"/><path class="cls-1" d="M483.834,465.174l.428.642"/><path class="cls-1" d="M484.262,468.6l.427,1.069"/><path class="cls-1" d="M487.682,473.3l2.352-1.069"/><path class="cls-1" d="M543.05,187.694c-18.077,3.616-36.368,2.769-54.726,2.993"/><path class="cls-1" d="M483.834,190.687H478.49"/><path class="cls-1" d="M476.138,190.687H474"/><path class="cls-1" d="M402.172,169.31c20.932-4.187,5.564,16.965-3.206,22.446"/><path class="cls-1" d="M349.37,337.978a15.717,15.717,0,0,1-2.779-7.7"/><path class="cls-1" d="M358.562,338.619l1.283,1.5"/><path class="cls-1" d="M364.12,345.033l.428.641"/><path class="cls-1" d="M370.534,351.874l.641.427"/><path class="cls-1" d="M389.773,369.831c12.209,10.679,31.1,14.622,45.534,6.2"/><path class="cls-1" d="M444.713,157.552c-12.891,7.789-17.64,14.135-23.942,27.791"/><path class="cls-1" d="M441.934,213.989c-13.322-9.77-1.566,15.154-1.924,19.881"/><path class="cls-1" d="M426.329,234.084c-20.5,11.049-14.864-21.013-28.432-17.744"/><path class="cls-1" d="M327.992,403.821a232.875,232.875,0,0,1-27.577,9.833"/><path class="cls-1" d="M401.1,313.18c-17.9,5.756-24.1,33.622-18.6,48.741"/><path class="cls-1" d="M420.343,185.557c-4.723,7.674-13.806,12.733-22.446,15.391"/><path class="cls-1" d="M464.6,206.507c-7.062.2-26.715-1.055-20.523,11.33"/><path class="cls-1" d="M445.355,218.906c.9,1.261,2.233.756,3.42.855"/><path class="cls-1" d="M471.435,230.449c-1,1.582-19.918,3.911-23.729,1.924"/><path class="cls-1" d="M401.317,312.753c18.216,0,18.4-10.215,37.411,5.985"/><path class="cls-1" d="M356,396.98c2.155,7.153-5.712,28.269-15.819,15.606"/><path class="cls-1" d="M452.2,351.446c1.089,9.261-10,18.409-16.461,24.157"/><path class="cls-1" d="M339.322,308.691c1.776,5.462,3.491,15.984,7.055,20.736"/><path class="cls-1" d="M305.546,304.843a100.737,100.737,0,0,0-19.026,5.344"/><path class="cls-1" d="M284.6,310.4c-6.192,1.771-12.223,4.252-18.812,4.276"/><path class="cls-1" d="M469.725,208.858a143.307,143.307,0,0,1,1.5,18.6"/><path class="cls-1" d="M397.9,168.882q-8.435-2.247-16.675-5.13"/><path class="cls-1" d="M366.686,393.132q-5.261,1.755-10.475,3.634"/><path class="cls-1" d="M353,397.194l-6.2,1.71"/><path class="cls-1" d="M345.308,399.332l-5.344,1.71"/><path class="cls-1" d="M468.87,218.478a40.805,40.805,0,0,1-18.6,1.5"/><path class="cls-1" d="M398.538,192.184c-4.677,2.088-19.431,5.221-11.758,8.764"/><path class="cls-1" d="M473.573,190.9c-6.95,2.317-4.426,11.944-3.848,17.53"/><path class="cls-1" d="M439.8,234.725c-2.357,4.714-10.266-1.812-13.041-1.069"/><path class="cls-1" d="M367.113,135.533l12.4,4.276"/><path class="cls-1" d="M403.455,358.287c-4.108-1.23-8.025-3.153-12.4-3.421"/><path class="cls-1" d="M407.3,147.077c-.7,6.328-5.558,10.261-11.972,10.261"/><path class="cls-1" d="M365.831,146.222q-8.262-1.114-3.207,12.185"/><path class="cls-1" d="M419.7,363.631q-4.2-1.5-8.412-3l-3.346,9.841"/><path class="cls-1" d="M332.482,407.455a24.9,24.9,0,0,0,9.192,10.475"/><path class="cls-1" d="M394.9,144.512l-10.689-3.421"/><path class="cls-1" d="M445.782,324.938a119.062,119.062,0,0,1,8.551,16.674"/><path class="cls-1" d="M433.17,351.232q-6.264,5.481-12.186,11.33"/><path class="cls-1" d="M380.367,163.324l-9.833-2.565"/><path class="cls-1" d="M355.356,415.365a18.1,18.1,0,0,1-13.468,2.993"/><path class="cls-1" d="M426.115,365.128a54.22,54.22,0,0,1-10.047,8.337"/><path class="cls-1" d="M360.272,406.6a11.874,11.874,0,0,1-4.489,8.337"/><path class="cls-1" d="M406.662,322.586l-6.414,7.055"/><path class="cls-1" d="M400.035,329.855q-3.456,4.756-7.055,9.406"/><path class="cls-1" d="M444.713,219.333q-3.564,8.4,2.566,12.613"/><path class="cls-1" d="M397.042,201.376l-8.551-.428"/><path class="cls-1" d="M429.963,331.351q8.939,2.73-5.558,6.413"/><path class="cls-1" d="M404.31,347.17a12.035,12.035,0,0,0-6.841,7.269"/><path class="cls-1" d="M415.426,310.4c1.24-1.157-5.328,8.583-6.841,5.558"/><path class="cls-1" d="M415.854,353.584c-2.872,3.3-6.5,5.587-10.261,7.7"/><path class="cls-1" d="M392.552,339.688a78.12,78.12,0,0,0-5.985,7.055"/><path class="cls-1" d="M441.079,323.655c-2.668.447-5.464.475-7.7,2.352"/><path class="cls-1" d="M412.861,372.823q4.337,1.317,4.7,6.414"/><path class="cls-1" d="M438.086,358.073q-4.538-.16-7.054,5.131"/><path class="cls-1" d="M409.868,336.054l-6.841,5.772"/><path class="cls-1" d="M423.122,338.192a12.339,12.339,0,0,0-7.7,6.413"/><path class="cls-1" d="M439.155,319.166q2.994,2.993,5.986,5.986"/><path class="cls-1" d="M475.069,80.593q7.67,5.515-4.489,5.345"/><path class="cls-1" d="M422.267,535.292l-.427.642"/><path class="cls-1" d="M423.122,537.858l2.779-1.283"/><path class="cls-1" d="M454.761,137.244l.641,6.627"/><path class="cls-1" d="M453.478,147.932l-5.13,6.414"/><path class="cls-1" d="M447.065,336.054l-7.482,7.482"/><path class="cls-1" d="M391.911,348.026c-.9,2.241-1.418,4.727-3.848,5.985"/><path class="cls-1" d="M462.029,85.724q-8.65-3.054-5.985,1.5"/><path class="cls-1" d="M428.68,353.156l-6.413-2.993"/><path class="cls-1" d="M408.8,97.268l6.2,2.351"/><path class="cls-1" d="M488.11,619.52l-.642.427"/><path class="cls-1" d="M485.117,621.23l-1.924.427"/><path class="cls-1" d="M426.543,75.249a7.164,7.164,0,0,1-1.283,5.985"/><path class="cls-1" d="M387.636,336.909l5.771.855"/><path class="cls-1" d="M419.274,330.068c-.555,2.09-1.225,4.111-3.206,5.345"/><path class="cls-1" d="M368.61,121.638a17.929,17.929,0,0,0-1.5,9.62"/><path class="cls-1" d="M486.4,167.6l5.558.641"/><path class="cls-1" d="M395.759,144.939l5.558,1.283"/><path class="cls-1" d="M396.187,319.807l-3.421,5.558"/><path class="cls-1" d="M430.6,363.631l-4.917,4.917"/><path class="cls-1" d="M400.462,368.12l6.413,2.138"/><path class="cls-1" d="M432.956,370.686l-5.345-2.779"/><path class="cls-1" d="M480.841,173.158l-5.13-2.138"/><path class="cls-1" d="M423.977,318.525l-3.848,4.7"/><path class="cls-1" d="M418.205,348.667c-1.452,1.144-1.335,3.036-2.137,4.489"/><path class="cls-1" d="M373.526,78.242q-.5,2.338-.855,4.7"/><path class="cls-1" d="M449.2,340.757l4.917,3.634"/><path class="cls-1" d="M412.006,128.693l-2.352,4.916"/><path class="cls-1" d="M497.516,175.3a28.01,28.01,0,0,1-9.192-.427"/><path class="cls-1" d="M421.412,327.931a8.215,8.215,0,0,0,5.558,2.137"/><path class="cls-1" d="M379.3,259.523l-.213,4.061"/><path class="cls-1" d="M421.84,313.394l2.565,3.848"/><path class="cls-1" d="M446.637,318.952q-.213,2.138-.427,4.276"/><path class="cls-1" d="M386.353,127.837l-4.276-.855"/><path class="cls-1" d="M447.065,313.822V318.1"/><path class="cls-1" d="M446.21,11.544l-2.138,4.275"/><path class="cls-1" d="M369.678,160.331,365.4,159.9"/><path class="cls-1" d="M470.58,167.6l3.848,2.565"/><path class="cls-1" d="M379.94,259.309a3.566,3.566,0,0,1,.213,4.062"/><path class="cls-1" d="M368.823,147.505l4.062,1.5"/><path class="cls-1" d="M399.393,329.641l-4.062-1.283"/><path class="cls-1" d="M414.357,355.721l-.641,3.848"/><path class="cls-1" d="M456.9,140.236c-.539,4.312-.889,3.094-2.993,6.841"/><path class="cls-1" d="M387.208,154.773l-3.848-1.283"/><path class="cls-1" d="M417.564,111.591l-1.283,3.847"/><path class="cls-1" d="M460.105,128.693q-2.437,2.154-.855,3.847"/><path class="cls-1" d="M469.3,75.249q1.817,1.6,3.634,3.206"/><path class="cls-1" d="M386.353,362.99l-3.634-1.069"/><path class="cls-1" d="M395.118,362.776q-1.391,1.817-2.779,3.634"/><path class="cls-1" d="M341.033,403.607q-1.032,2.451-3.848,1.71"/><path class="cls-1" d="M412.006,372.4l-3.634-1.5"/><path class="cls-1" d="M430.818,9.834q-.534,1.817-1.069,3.634"/><path class="cls-1" d="M446.21,309.546q.213,1.71.427,3.42"/><path class="cls-1" d="M410.3,350.163l3.42,2.138"/><path class="cls-1" d="M310.249,303.988l-3.42.428"/><path class="cls-1" d="M449.63,346.743l2.352,4.275"/><path class="cls-1" d="M430.6,354.439l3.207,1.71"/><path class="cls-1" d="M427.611,47.03l-.213,3.421"/><path class="cls-1" d="M398.752,360l-3.207,2.351"/><path class="cls-1" d="M538.133,161.614l-3.207,1.924"/><path class="cls-1" d="M439.155,343.75q-1.746,2.217-3.42,4.489"/><path class="cls-1" d="M417.564,325.793c-1.206-1.962-1.693.388-2.565.428"/><path class="cls-1" d="M442.789,349.308l2.78,3.207"/><path class="cls-1" d="M497.088,168.027l-3.206.428"/><path class="cls-1" d="M428.68,317.242l-3.848,1.71"/><path class="cls-1" d="M434.238,6.413l-2.565,2.566"/><path class="cls-1" d="M442.148,355.508l-2.779,2.779"/><path class="cls-1" d="M446.424,337.764l1.924,2.566"/><path class="cls-1" d="M335.9,406.6l1.71,2.993"/><path class="cls-1" d="M437.231,332.206l2.993,1.71"/><path class="cls-1" d="M447.493,331.351l-2.993,2.138"/><path class="cls-1" d="M428.68,62.85c-.126.948.467,2.289-1.282,2.351"/><path class="cls-1" d="M391.483,156.056l2.993.855"/><path class="cls-1" d="M446.637,352.515l-4.061,2.565"/><path class="cls-1" d="M338.04,421.137l-2.993-.428"/><path class="cls-1" d="M420.984,101.329a4.4,4.4,0,0,0-4.7-1.282"/><path class="cls-1" d="M476.993,106.46,474,108.17"/><path class="cls-1" d="M419.274,107.743l-1.282,2.992"/><path class="cls-1" d="M314.1,303.133l-2.993.427"/><path class="cls-1" d="M529.155,167.6l-2.78,1.5"/><path class="cls-1" d="M417.564,336.054l2.565,1.71"/><path class="cls-1" d="M408.585,332.634a6.244,6.244,0,0,0,5.131,2.138"/><path class="cls-1" d="M541.981,159.476l-2.565,1.283"/><path class="cls-1" d="M383.788,345.888l-2.566-.428"/><path class="cls-1" d="M451.982,353.156l-2.352,2.138"/><path class="cls-1" d="M454.333,342.467q-.213,2.352-.427,4.7"/><path class="cls-1" d="M405.593,330.5l-2.566-.855"/><path class="cls-1" d="M429.963,329.213c-.85.2-.66,2.13-2.138,1.283"/><path class="cls-1" d="M317.945,302.278l-2.565.427"/><path class="cls-1" d="M401.745,340.757l1.282,2.566"/><path class="cls-1" d="M446.637,304.415v2.566"/><path class="cls-1" d="M447.706,155.414l-2.565,1.711"/><path class="cls-1" d="M375.664,54.3q-.213,1.283-.427,2.565"/><path class="cls-1" d="M366.686,132.54c-.882.565-1.871,1.109-.428,2.138"/><path class="cls-1" d="M465.877,144.512q-.213,1.282-.427,2.565"/><path class="cls-1" d="M379.085,63.705l-2.566-.428"/><path class="cls-1" d="M413.289,123.989q-.429,1.284-.856,2.566"/><path class="cls-1" d="M458.181,150.07q-.7,1.764.855,2.138"/><path class="cls-1" d="M423.977,84.655a3.023,3.023,0,0,1-3.42,1.71"/><path class="cls-1" d="M483.834,174.013l2.352.641"/><path class="cls-1" d="M329.489,403.607l1.069,2.138"/><path class="cls-1" d="M480.414,165.889l2.351,1.069"/><path class="cls-1" d="M468.442,85.51l-2.137.428"/><path class="cls-1" d="M404.31,146.65h-2.138"/><path class="cls-1" d="M406.02,371.541q.215,1.068.428,2.138"/><path class="cls-1" d="M429.108,23.515l-.855,2.138"/><path class="cls-1" d="M404.738,358.714l1.5,1.924"/><path class="cls-1" d="M456.471,125.272q-.213,1.069-.427,2.138"/><path class="cls-1" d="M426.97,52.589v3.848"/><path class="cls-1" d="M455.188,129.975q-.213,1.069-.427,2.138"/><path class="cls-1" d="M508.632,360.425,506.494,360"/><path class="cls-1" d="M457.326,117.576v2.138"/><path class="cls-1" d="M425.687,33.349v2.138"/><path class="cls-1" d="M399.179,367.693l-2.137-.428"/><path class="cls-1" d="M524.024,170.592l-2.138.855"/><path class="cls-1" d="M470.58,339.047l-2.138.428"/><path class="cls-1" d="M435.307,348.667l-1.71,2.138"/><path class="cls-1" d="M530.437,328.786l-2.138.855"/><path class="cls-1" d="M392.339,90.213l2.137.855"/><path class="cls-1" d="M503.074,187.694h-2.138"/><path class="cls-1" d="M431.673,315.532l-2.138,1.282"/><path class="cls-1" d="M375.237,58.147l-.855,2.138"/><path class="cls-1" d="M458.181,112.873q-.213,1.069-.427,2.138"/><path class="cls-1" d="M407.089,145.581l-1.924.641"/><path class="cls-1" d="M463.739,65.843l-1.71,1.282"/><path class="cls-1" d="M461.6,125.7l-.855,1.71"/><path class="cls-1" d="M384.643,346.315l3.42,1.283"/><path class="cls-1" d="M475.711,162.9l1.71,1.283"/><path class="cls-1" d="M391.27,367.479l-1.5,1.71"/><path class="cls-1" d="M433.383,341.612l1.711,1.711"/><path class="cls-1" d="M457.967,134.037l-1.068,2.779"/><path class="cls-1" d="M454.333,336.054l1.711,1.71"/><path class="cls-1" d="M393.621,129.548h-1.71"/><path class="cls-1" d="M475.283,234.725l.855.855"/><path class="cls-1" d="M471.435,231.3l1.711,1.069"/><path class="cls-1" d="M380.367,64.132l1.71.428"/><path class="cls-1" d="M427.825,44.038v1.71"/><path class="cls-1" d="M415,118l-.642,1.71"/><path class="cls-1" d="M465.45,117.149v1.71"/><path class="cls-1" d="M503.929,114.583l1.71,1.283"/><path class="cls-1" d="M407.73,348.881l-1.71-.855"/><path class="cls-1" d="M410.723,85.082l-1.71-.427"/><path class="cls-1" d="M463.312,85.51l1.71.214"/><path class="cls-1" d="M398.324,68.408l1.71.428"/><path class="cls-1" d="M485.331,167.813l-1.5-1.069"/><path class="cls-1" d="M399.179,339.475l-1.71-.428"/><path class="cls-1" d="M509.915,188.122l1.71.427"/><path class="cls-1" d="M514.19,188.549h-1.71"/><path class="cls-1" d="M519.748,189.191l-1.71-.214"/><path class="cls-1" d="M396.614,338.619l-1.71-.427"/><path class="cls-1" d="M468.015,206.079l-1.71.428"/><path class="cls-1" d="M421.412,349.736l-1.71-.428"/><path class="cls-1" d="M408.585,133.609l-1.71-.213"/><path class="cls-1" d="M382.932,140.664l-1.71-.428"/><path class="cls-1" d="M364.548,159.476l-1.5-.641"/><path class="cls-1" d="M552.242,175.723q-.213.642-.427,1.283"/><path class="cls-1" d="M429.108,15.178v1.5"/><path class="cls-1" d="M531.72,165.034l-1.283,1.283"/><path class="cls-1" d="M438.3,358.5l-.641,1.5"/><path class="cls-1" d="M419.274,323.655l-1.5,1.069"/><path class="cls-1" d="M394.9,366.41l1.283.428"/><path class="cls-1" d="M432.528,341.185l-1.282-.855"/><path class="cls-1" d="M373.1,122.707l-1.283-.428"/><path class="cls-1" d="M465.45,63.277,464.6,64.56"/><path class="cls-1" d="M338.04,410.448l1.282,1.283"/><path class="cls-1" d="M453.692,348.667l-.855,2.138"/><path class="cls-1" d="M472.5,188.336c-.579.026-.293,2.072-1.5.641"/><path class="cls-1" d="M377.8,270.639l.214,1.069"/><path class="cls-1" d="M462.884,122.707q-.213.855-.427,1.71"/><path class="cls-1" d="M441.079,334.344l1.069.641"/><path class="cls-1" d="M325,299.071l-1.068-.214"/><path class="cls-1" d="M433.6,326.862l1.069,1.069"/><path class="cls-1" d="M357.707,283.466q-.78.111-.214.641"/><path class="cls-1" d="M380.367,152.208l-.855-.428"/><path class="cls-1" d="M421.84,365.128l-.856-.428"/><path class="cls-1" d="M392.339,326.221q-.214.855-.428,1.71"/><path class="cls-1" d="M464.6,70.546l.855.855"/><path class="cls-1" d="M404.31,95.344l-.641-.642"/><path class="cls-1" d="M440.652,347.6l.427.428"/><path class="cls-1" d="M425.26,366.624l.641.428"/><path class="cls-1" d="M331.2,299.285q-.937.667-1.069-.641"/><path class="cls-1" d="M511.2,106.887l.428.428"/><path class="cls-1" d="M344.025,292.872q-.73.325-.213.641"/><path class="cls-1" d="M467.587,115.438l-.427.428"/><path class="cls-1" d="M376.519,124.417l.428.428"/><path class="cls-1" d="M551.387,180.426l-.427.428"/><path class="cls-1" d="M533.858,164.179l-.428.428"/><path class="cls-1" d="M471.863,160.331l.427.428"/><path class="cls-1" d="M556.518,157.766l.427.427"/><path class="cls-1" d="M514.618,147.932l-.428.428"/><path class="cls-1" d="M447.493,10.261l-.428.428"/><path class="cls-1" d="M517.611,58.574l-.428.428"/><path class="cls-1" d="M425.687,36.342l.428.427"/><path class="cls-1" d="M467.16,73.111l.427.428"/><path class="cls-1" d="M431.887,327.289a.809.809,0,0,0-.214.642"/><path class="cls-1" d="M422.267,337.337l-.427.641"/></svg>