<svg id="Layer_1" data-name="Layer 1" xmlns="http://www.w3.org/2000/svg" viewBox="0 0 612 792"><defs><style>.cls-1{fill:none;stroke:#000;stroke-linecap:round;stroke-linejoin:round;stroke-width:3px;}</style></defs><title>drawingArtboard 1</title><path class="cls-1" d="M137.369,315.2v-.609"/><path class="cls-1" d="M135.341,336.692l-.405.609"/><path class="cls-1" d="M134.53,340.748l-2.028,6.693"/><path class="cls-1" d="M132.5,348.86q-.405,1.318-.811,2.637"/><path class="cls-1" d="M131.285,354.133l-.405,1.014"/><path class="cls-1" d="M130.474,358.189l-.406,1.014"/><path class="cls-1" d="M130.068,361.028l-.405.609"/><path class="cls-1" d="M129.663,363.462l-.406,2.231"/><path class="cls-1" d="M129.257,368.735l-.405,1.014"/><path class="cls-1" d="M128.852,382.119l.405,1.826"/><path class="cls-1" d="M129.257,386.986l.406,1.014"/><path class="cls-1" d="M130.068,392.259l.406.609"/><path class="cls-1" d="M130.88,396.315l.405.609"/><path class="cls-1" d="M131.691,399.56l.405.608"/><path class="cls-1" d="M132.5,402.4l.406.609"/><path class="cls-1" d="M134.124,406.861l.406.608"/><path class="cls-1" d="M136.558,412.945l.406.608"/><path class="cls-1" d="M137.369,415.378l.406.609"/><path class="cls-1" d="M138.992,419.029q.81,1.724,1.622,3.447"/><path class="cls-1" d="M141.02,423.9l.405.608"/><path class="cls-1" d="M142.642,427.546l.406.609"/><path class="cls-1" d="M145.075,432.413l.406.609"/><path class="cls-1" d="M146.292,434.847l.406.608"/><path class="cls-1" d="M154.4,448.232l.406.608"/><path class="cls-1" d="M157.649,453.5l.406.609"/><path class="cls-1" d="M184.013,481.491l.608.405"/><path class="cls-1" d="M193.342,487.169l2.23,1.217"/><path class="cls-1" d="M203.076,490.819l.608.406"/><path class="cls-1" d="M208.754,492.442l.609.4"/><path class="cls-1" d="M263.915,485.952l2.231-1.217"/><path class="cls-1" d="M267.566,484.33l3.447-2.028"/><path class="cls-1" d="M278.111,478.651l.609-.405"/><path class="cls-1" d="M282.167,475.812l.609-.405"/><path class="cls-1" d="M306.909,447.42q3.649-7.4,7.3-14.8"/><path class="cls-1" d="M314.615,431.2l1.217-2.637"/><path class="cls-1" d="M515.791,464.456l.406-.609"/><path class="cls-1" d="M516.6,462.428q.2-.507.406-1.014"/><path class="cls-1" d="M517.413,459.994q.2-.507.406-1.014"/><path class="cls-1" d="M519.036,455.938l1.014-.406"/><path class="cls-1" d="M524.714,455.532l1.42.406"/><path class="cls-1" d="M527.553,455.938l1.014.406"/><path class="cls-1" d="M530.393,456.344l2.23.811"/><path class="cls-1" d="M535.26,457.155l4.664.811"/><path class="cls-1" d="M542.966,457.966h12.776"/><path class="cls-1" d="M561.218,457.966l3.448-.811"/><path class="cls-1" d="M565.68,453.5q-.2-.912-.406-1.825"/><path class="cls-1" d="M564.057,440.931l-.608-.406"/><path class="cls-1" d="M560.812,440.525l-1.825-.4"/><path class="cls-1" d="M555.134,440.12l-1.42-.406"/><path class="cls-1" d="M551.078,439.714h-2.231"/><path class="cls-1" d="M546.617,439.714l-9.126,1.622"/><path class="cls-1" d="M532.421,441.337l-4.259.811"/><path class="cls-1" d="M525.12,442.148l-4.259.4"/><path class="cls-1" d="M518.63,442.553l-2.636.406"/><path class="cls-1" d="M514.372,442.35q.1-.608.2-1.216"/><path class="cls-1" d="M514.98,438.9q.2-.507.406-1.014"/><path class="cls-1" d="M515.791,434.847l.406-1.014"/><path class="cls-1" d="M516.6,430.385v-2.23"/><path class="cls-1" d="M516.6,425.924V424.91"/><path class="cls-1" d="M516.6,423.49l-.4-.608"/><path class="cls-1" d="M516.2,420.651l-.406-1.014"/><path class="cls-1" d="M515.791,418.217l-.405-1.825"/><path class="cls-1" d="M516.2,415.378l5.475-1.622"/><path class="cls-1" d="M523.092,413.756H538.3"/><path class="cls-1" d="M542.155,413.756h2.231"/><path class="cls-1" d="M547.022,413.756l2.231.406"/><path class="cls-1" d="M553.917,414.161l10.749-.811"/><path class="cls-1" d="M560.812,396.315l-3.042-.4"/><path class="cls-1" d="M556.351,395.91q-5.981-.434-11.965-.812"/><path class="cls-1" d="M542.966,395.1h-1.419"/><path class="cls-1" d="M539.316,395.1c-7.167.16-14.165.6-21.294,1.217"/><path class="cls-1" d="M514.169,396.721h-1.825"/><path class="cls-1" d="M512.546,394.287q.2-.709.406-1.419"/><path class="cls-1" d="M513.155,390.84q.1-.811.2-1.623"/><path class="cls-1" d="M512.546,381.714l-.405-.609"/><path class="cls-1" d="M512.952,379.686l3.853-.811"/><path class="cls-1" d="M519.442,378.875h1.419"/><path class="cls-1" d="M522.686,378.875l3.853.4"/><path class="cls-1" d="M527.959,379.28h1.825"/><path class="cls-1" d="M539.316,379.28h3.042"/><path class="cls-1" d="M544.183,379.28l1.42.406"/><path class="cls-1" d="M549.861,379.686l7.1-.811"/><path class="cls-1" d="M557.162,376.441q-.2-.507-.406-1.014"/><path class="cls-1" d="M556.756,374.007l-.4-.608"/><path class="cls-1" d="M556.351,368.329v-2.636"/><path class="cls-1" d="M556.756,363.867q.2-.709.406-1.419"/><path class="cls-1" d="M555.945,360.623l-1.419.405"/><path class="cls-1" d="M551.078,361.028l-1.014.406"/><path class="cls-1" d="M548.644,361.434l-2.636.4"/><path class="cls-1" d="M543.777,361.84l-.608.405"/><path class="cls-1" d="M540.127,362.245l-1.42.406"/><path class="cls-1" d="M527.553,362.651l-1.419-.406"/><path class="cls-1" d="M523.092,361.839l-4.259-.811"/><path class="cls-1" d="M514.574,361.028c-8.459.45-23.9,7.658-32.245,10.14"/><path class="cls-1" d="M133.516,23.977l-.2,2.231"/><path class="cls-1" d="M143.453,36.145l.609.406"/><path class="cls-1" d="M145.481,37.767l2.231,2.028"/><path class="cls-1" d="M151.971,43.446l1.014.811"/><path class="cls-1" d="M155.621,46.691l3.853,3.244"/><path class="cls-1" d="M163.733,53.991l5.07,4.056"/><path class="cls-1" d="M171.439,60.075l5.881,4.056"/><path class="cls-1" d="M180.768,66.565l4.664,3.65"/><path class="cls-1" d="M186.852,71.432l3.853,2.839"/><path class="cls-1" d="M192.53,75.488l15.21,11.357"/><path class="cls-1" d="M209.16,88.062l6.692,4.867"/><path class="cls-1" d="M217.272,94.145l1.825,1.217"/><path class="cls-1" d="M221.328,97.39l2.636,2.028"/><path class="cls-1" d="M225.384,100.635q1.926,1.825,3.853,3.65"/><path class="cls-1" d="M233.09,108.341l1.217,1.42"/><path class="cls-1" d="M236.335,111.992l1.217,1.419"/><path class="cls-1" d="M238.768,115.237l1.217,1.419"/><path class="cls-1" d="M248.5,126.188l2.231-1.217"/><path class="cls-1" d="M254.181,123.754l1.014-.406"/><path class="cls-1" d="M255.8,125.782l-.405.608"/><path class="cls-1" d="M254.587,129.838l-.406,1.014"/><path class="cls-1" d="M281.762,147.279l2.028,3.853"/><path class="cls-1" d="M284.2,152.957l.406.608"/><path class="cls-1" d="M285.006,154.985l.406.608"/><path class="cls-1" d="M308.937,513.127l-.406.609"/><path class="cls-1" d="M308.125,515.966l-.4.609"/><path class="cls-1" d="M306.909,533l.405.609"/><path class="cls-1" d="M307.72,536.246l.4.609"/><path class="cls-1" d="M310.965,544.764l.405.608"/><path class="cls-1" d="M314.615,550.848l.406.608"/><path class="cls-1" d="M324.755,560.988q6.114,2.434,12.371,4.461"/><path class="cls-1" d="M338.951,565.449l1.419.406"/><path class="cls-1" d="M347.063,565.855l1.014-.406"/><path class="cls-1" d="M349.9,565.044l.608-.406"/><path class="cls-1" d="M353.552,563.827l.609-.406"/><path class="cls-1" d="M355.58,563.016l2.637-1.217"/><path class="cls-1" d="M358.42,561.8l4.664-2.434"/><path class="cls-1" d="M365.315,558.148l.608-.4"/><path class="cls-1" d="M378.7,542.736l.406-.609"/><path class="cls-1" d="M379.916,540.708l.406-.609"/><path class="cls-1" d="M380.727,538.274l.406-.608"/><path class="cls-1" d="M383.161,529.351l.406-.608"/><path class="cls-1" d="M383.567,521.239a45.972,45.972,0,0,0-8.924-19.469"/><path class="cls-1" d="M373.021,499.742l-5.07-4.867"/><path class="cls-1" d="M366.531,493.658c-3.521-2.278-7.075-4.493-11.153-5.678"/><path class="cls-1" d="M353.147,487.575l-.609-.406"/><path class="cls-1" d="M349.5,487.169l-.608-.406"/><path class="cls-1" d="M346.657,486.763h-4.664"/><path class="cls-1" d="M337.734,487.169l-5.881,1.622"/><path class="cls-1" d="M330.433,489.2l-.608.406"/><path class="cls-1" d="M328,490.414l-2.231,1.217"/><path class="cls-1" d="M323.538,493.253l-.608.405"/><path class="cls-1" d="M311.37,507.043l-.405.609"/><path class="cls-1" d="M513.763,468.511h.609"/><path class="cls-1" d="M519.847,468.511h5.476"/><path class="cls-1" d="M532.826,468.511l1.825.406"/><path class="cls-1" d="M536.477,468.917q7.414.465,14.8,1.217"/><path class="cls-1" d="M555.945,470.539l3.042.406"/><path class="cls-1" d="M561.624,471.351l1.419.4"/><path class="cls-1" d="M564.868,471.756l.609.406"/><path class="cls-1" d="M566.9,472.162l.609.405"/><path class="cls-1" d="M567.3,489.6l-.608-.406"/><path class="cls-1" d="M564.057,488.386l-5.07-1.217"/><path class="cls-1" d="M556.756,486.763l-2.636-.4"/><path class="cls-1" d="M548.239,485.952l-1.825-.4"/><path class="cls-1" d="M544.994,485.547l-.608-.406"/><path class="cls-1" d="M542.155,485.141l-3.042-.406"/><path class="cls-1" d="M531.2,484.33a83.992,83.992,0,0,1-10.343-.406"/><path class="cls-1" d="M519.442,483.924l-.609-.4"/><path class="cls-1" d="M516.2,483.519l-.609.4"/><path class="cls-1" d="M515.791,485.547q2.085,4.435,4.462,8.72"/><path class="cls-1" d="M523.5,497.309l.812,1.014"/><path class="cls-1" d="M530.393,503.8q.81,1.319,1.622,2.637"/><path class="cls-1" d="M533.232,511.91l.4.609"/><path class="cls-1" d="M534.854,515.966l.406.609"/><path class="cls-1" d="M532.015,532.19l-.406.609"/><path class="cls-1" d="M528.77,535.029l-2.231,1.217"/><path class="cls-1" d="M525.12,536.652c-12.034,2.726-29.5-15.257-40.357-20.686"/><path class="cls-1" d="M482.127,513.938c-5.967-4.972-9.535-9.444-13.791-16.021"/><path class="cls-1" d="M104.516,157.419q-1.623,2.331-3.245,4.664"/><path class="cls-1" d="M100.054,164.314,96.4,170.6"/><path class="cls-1" d="M93.565,177.7l-.406,1.014"/><path class="cls-1" d="M91.942,188.244l-.4.608"/><path class="cls-1" d="M91.537,200.817l.4.609"/><path class="cls-1" d="M93.159,217.041l.406.609"/><path class="cls-1" d="M93.97,221.1l.406.609"/><path class="cls-1" d="M94.781,224.748l.406.608"/><path class="cls-1" d="M95.593,228.4,96,229.412"/><path class="cls-1" d="M97.215,233.265l.406.609"/><path class="cls-1" d="M98.026,236.1l.406.609"/><path class="cls-1" d="M100.46,242.594l1.217,2.231"/><path class="cls-1" d="M102.082,246.244l.811,1.42"/><path class="cls-1" d="M108.977,260.035l.406.608"/><path class="cls-1" d="M112.222,266.119l.406.608"/><path class="cls-1" d="M114.25,269.769l.406.608"/><path class="cls-1" d="M120.74,283.154l.405.608"/><path class="cls-1" d="M123.173,288.832l1.217,2.231"/><path class="cls-1" d="M306.1,289.643a70.184,70.184,0,0,0,8.111,16.832"/><path class="cls-1" d="M314.615,308.3l1.217,3.853"/><path class="cls-1" d="M316.237,313.573q.2.507.406,1.014"/><path class="cls-1" d="M317.049,316.007l1.216,3.448"/><path class="cls-1" d="M318.671,320.874q2.023,8.743,4.867,17.238"/><path class="cls-1" d="M323.538,339.532q.2.912.406,1.825"/><path class="cls-1" d="M323.944,342.776l.4,1.014"/><path class="cls-1" d="M324.349,346.021l.406,1.825"/><path class="cls-1" d="M325.161,353.728l.4,2.23"/><path class="cls-1" d="M325.566,359q.2,1.319.406,2.637"/><path class="cls-1" d="M325.972,365.49a103.941,103.941,0,0,1-.406,20.077"/><path class="cls-1" d="M325.566,387.8l-.4,2.636"/><path class="cls-1" d="M324.755,394.287q-.2.914-.406,1.825"/><path class="cls-1" d="M323.944,399.966l-.406,1.014"/><path class="cls-1" d="M323.133,404.022l-.406,1.014"/><path class="cls-1" d="M322.727,406.455q-.812,2.738-1.622,5.476"/><path class="cls-1" d="M320.7,414.161l-.406,1.014"/><path class="cls-1" d="M483.952,341.357a47.84,47.84,0,0,0-7.3.608"/><path class="cls-1" d="M474.826,341.965a22.734,22.734,0,0,0-10.748-5.273"/><path class="cls-1" d="M462.658,336.287q-4.748.138-2.839,3.853"/><path class="cls-1" d="M460.224,345.21a16.8,16.8,0,0,1,1.217,11.965"/><path class="cls-1" d="M457.791,356.972c.1.381-1.944-10.477-4.259-8.517"/><path class="cls-1" d="M452.112,348.86l-1.825-.811"/><path class="cls-1" d="M446.84,348.049l-3.245,2.637"/><path class="cls-1" d="M442.378,352.916q-.2.3-.406.609"/><path class="cls-1" d="M441.567,354.944l-.406.609"/><path class="cls-1" d="M439.539,356.567l-1.014.4"/><path class="cls-1" d="M436.7,358.189l-7.1,4.462"/><path class="cls-1" d="M427.371,363.056c-1.87.463-3.5-.611-5.273-.811"/><path class="cls-1" d="M481.924,371.574l1.419-5.881"/><path class="cls-1" d="M483.749,363.867c8.639-17.643,15.229-19.853,31.028-30.825"/><path class="cls-1" d="M513.358,331.42a133.57,133.57,0,0,0-25.756,7.706"/><path class="cls-1" d="M480.91,345.616c-4.693,6.583-8.613,13.514-9.735,21.7"/><path class="cls-1" d="M471.175,370.357l-.405,1.42"/><path class="cls-1" d="M470.77,373.2a39.435,39.435,0,0,1-6.895,13.588"/><path class="cls-1" d="M462.252,388.609l-1.825,2.028"/><path class="cls-1" d="M459.008,392.259l-3.651,7.909"/><path class="cls-1" d="M455.357,401.588l-.405.608"/><path class="cls-1" d="M454.952,404.022q-.2.3-.406.608"/><path class="cls-1" d="M454.14,409.294q.2,2.13.406,4.259"/><path class="cls-1" d="M454.546,415.784q.2.71.406,1.419"/><path class="cls-1" d="M455.357,419.029l2.028,6.286"/><path class="cls-1" d="M457.791,426.735l.405,1.014"/><path class="cls-1" d="M486.588,337.909l-.405-2.636"/><path class="cls-1" d="M484.966,334.259a34.558,34.558,0,0,1-9.735-5.881"/><path class="cls-1" d="M474.015,324.93q-.2-.507-.406-1.014"/><path class="cls-1" d="M473.2,322.091q.2-.507.406-1.014"/><path class="cls-1" d="M473.2,315.2q-1.419-2.332-2.839-4.665"/><path class="cls-1" d="M470.364,307.489l2.028-4.258"/><path class="cls-1" d="M470.364,298.972l-.608-.406"/><path class="cls-1" d="M466.308,298.566l-3.244,2.637"/><path class="cls-1" d="M461.847,303.028a14.575,14.575,0,0,1-7.909,7.706"/><path class="cls-1" d="M452.518,311.14l-3.853,2.028"/><path class="cls-1" d="M444,313.168l-5.881-3.651"/><path class="cls-1" d="M436.7,308.706l-1.014-.811"/><path class="cls-1" d="M428.182,309.517q-2.834,2.037,0,4.259"/><path class="cls-1" d="M428.588,315.2l.811,1.419"/><path class="cls-1" d="M425.343,322.091l-8.315,5.273"/><path class="cls-1" d="M414.392,328.986l-2.839,3.042"/><path class="cls-1" d="M407.5,333.853l-1.014.406"/><path class="cls-1" d="M406.28,336.692a6.772,6.772,0,0,0,3.853,5.273"/><path class="cls-1" d="M411.958,341.56q6.041-7.4,10.951-2.637"/><path class="cls-1" d="M423.721,341.154l.608.406"/><path class="cls-1" d="M425.749,342.776l.608.406"/><path class="cls-1" d="M428.588,345.616c3.757,5.78,1.687,10.151.2,16.832"/><path class="cls-1" d="M430.616,451.071v1.419"/><path class="cls-1" d="M430.616,453.91q-.2,1.724-.406,3.448"/><path class="cls-1" d="M430.21,475.407q.2,1.926.406,3.853"/><path class="cls-1" d="M430.616,480.679v5.07"/><path class="cls-1" d="M430.616,489.6v2.636"/><path class="cls-1" d="M430.21,494.47q.2.912.406,1.825"/><path class="cls-1" d="M439.133,500.959l6.287-.405"/><path class="cls-1" d="M447.245,500.554l1.014-.406"/><path class="cls-1" d="M451.707,500.148l1.419-.406"/><path class="cls-1" d="M464.28,499.337l3.042-.406"/><path class="cls-1" d="M469.147,483.113q.2-.507.406-1.014"/><path class="cls-1" d="M469.553,479.868v-1.014"/><path class="cls-1" d="M469.553,476.218q.2-.3.406-.609"/><path class="cls-1" d="M469.959,473.784q-.2-1.926-.406-3.853"/><path class="cls-1" d="M469.147,466.078q-.607-1.724-1.216-3.448"/><path class="cls-1" d="M467.931,461.211q-.2-.71-.406-1.42"/><path class="cls-1" d="M467.525,458.372l-1.217-4.259"/><path class="cls-1" d="M465.9,452.288l-.406-.609"/><path class="cls-1" d="M465.092,449.854l-1.217-2.636"/><path class="cls-1" d="M463.469,445.392l-1.622-3.042"/><path class="cls-1" d="M459.008,436.064l-.406-.609"/><path class="cls-1" d="M457.385,432.819c-1.5-2.393-3.83-3.711-6.287-4.867"/><path class="cls-1" d="M448.462,427.546c-2.7-1.163-5.321-.664-7.909.406"/><path class="cls-1" d="M433.049,437.686l-.4,1.014"/><path class="cls-1" d="M432.238,440.931l-.4,1.419"/><path class="cls-1" d="M431.427,445.392q-.2.913-.406,1.826"/><path class="cls-1" d="M431.021,450.26l-.405.608"/><path class="cls-1" d="M133.313,29.656l-.405,1.419"/><path class="cls-1" d="M132.908,32.9l-1.623,12.371"/><path class="cls-1" d="M131.285,46.691q-.811,5.373-1.622,10.748"/><path class="cls-1" d="M129.663,58.859l-.811,3.853"/><path class="cls-1" d="M128.852,65.348q-.2,1.319-.406,2.636"/><path class="cls-1" d="M128.446,69.81l-.406,1.419"/><path class="cls-1" d="M128.04,73.46q-.426,7.014-1.216,13.993"/><path class="cls-1" d="M126.824,91.712q-.2,2.737-.406,5.475"/><path class="cls-1" d="M126.418,98.607c-1.974,10.663-2.191,25.837-5.678,36.3"/><path class="cls-1" d="M119.117,140.789a59.463,59.463,0,0,1-11.965,5.678"/><path class="cls-1" d="M261.685,490.617c4.3,15.5,6.273,30.752,9.126,46.44"/><path class="cls-1" d="M161.3,501.77c-11.993,18.184-11.156,25.351,7.1,31.434"/><path class="cls-1" d="M271.825,540.505c-18.541,7.255-38.839,9.213-58.406,11.965"/><path class="cls-1" d="M212,552.47q-17.554,3.189-35.287,5.07"/><path class="cls-1" d="M338.748,369.343a25.5,25.5,0,0,0-10.343,9.734"/><path class="cls-1" d="M335.706,436.064c1.341,1.547,3.322,1.5,5.07,2.028"/><path class="cls-1" d="M342.2,438.092a12.03,12.03,0,0,1,10.342,2.433"/><path class="cls-1" d="M354.769,442.553l1.42.811"/><path class="cls-1" d="M357.608,443.77l5.881,2.028"/><path class="cls-1" d="M366.126,446.2l.608.4"/><path class="cls-1" d="M368.559,446.609l.609.406"/><path class="cls-1" d="M376.671,448.232h3.448"/><path class="cls-1" d="M386.406,448.232h1.014"/><path class="cls-1" d="M212,494.267c-11.034.9-20.348,1.639-30.825,4.259"/><path class="cls-1" d="M162.516,485.547c1.755-6.017,1.14-8.149-4.259-3.651"/><path class="cls-1" d="M155.621,486.763l-2.028,3.448"/><path class="cls-1" d="M152.782,492.036l-2.028,3.042"/><path class="cls-1" d="M145.481,503.8a17.377,17.377,0,0,0-2.636,6.693"/><path class="cls-1" d="M455.357,501.365q.2,1.724.406,3.447"/><path class="cls-1" d="M455.763,506.232l.405.608"/><path class="cls-1" d="M456.168,508.666l.406,1.014"/><path class="cls-1" d="M452.924,532.6l-.609.4"/><path class="cls-1" d="M443.6,525.7l.4-1.014"/><path class="cls-1" d="M450.49,524.078l3.042-.4"/><path class="cls-1" d="M164.747,484.735a128.022,128.022,0,0,1-16.832,23.931"/><path class="cls-1" d="M170.628,501.973v6.895"/><path class="cls-1" d="M170.628,514.344l.406,1.42"/><path class="cls-1" d="M171.034,519.617l.405,2.23"/><path class="cls-1" d="M161.5,508.057c-3.271,5.113-3.406,32.2,7.909,20.888"/><path class="cls-1" d="M293.118,249.084l-.4.608"/><path class="cls-1" d="M292.307,251.517l-.405,1.014"/><path class="cls-1" d="M290.279,257.2l-.4.609"/><path class="cls-1" d="M289.062,260.035l-.811,1.825"/><path class="cls-1" d="M353.755,536.043a17.636,17.636,0,0,1-5.881-4.056"/><path class="cls-1" d="M346.657,531.785q-4.886-3-7.706,4.258"/><path class="cls-1" d="M175.09,537.057l.405,3.448"/><path class="cls-1" d="M175.5,552.064v3.854"/><path class="cls-1" d="M443.189,501.162l-.405.811"/><path class="cls-1" d="M373.427,341.56a20.138,20.138,0,0,1-13.791.811"/><path class="cls-1" d="M455.357,515.561l-.608-.406"/><path class="cls-1" d="M445.217,515.561l-1.014.608"/><path class="cls-1" d="M372.21,535.638a64.8,64.8,0,0,0-10.343,3.042"/><path class="cls-1" d="M359.028,540.505l-1.42.2"/><path class="cls-1" d="M359.636,530.568l-5.272,5.475"/><path class="cls-1" d="M354.161,536.246l3.245,4.056"/><path class="cls-1" d="M310.965,508.868l11.154,6.693"/><path class="cls-1" d="M326.783,549.428l3.042,1.42"/><path class="cls-1" d="M331.244,551.253l2.231,1.217"/><path class="cls-1" d="M334.9,552.876q3.656,1.1,7.3,2.23"/><path class="cls-1" d="M324.755,546.183a106.97,106.97,0,0,0-11.762-4.258"/><path class="cls-1" d="M322.321,528.945q8.43.264,14.8,7.1"/><path class="cls-1" d="M372.615,524.687l-1.825.2"/><path class="cls-1" d="M366.126,524.889l-6.895.812"/><path class="cls-1" d="M335.909,523.267a46.44,46.44,0,0,1-9.329,4.867"/><path class="cls-1" d="M356.189,520.428c-3.023-1.971-6.106-3.716-9.937-2.636"/><path class="cls-1" d="M344.224,516.372a12.794,12.794,0,0,0-9.938-4.056"/><path class="cls-1" d="M332.056,513.533l-4.867,4.259"/><path class="cls-1" d="M373.021,535.435a21.287,21.287,0,0,0-9.734-8.72"/><path class="cls-1" d="M189.286,488.386a108.333,108.333,0,0,1-9.532,8.314"/><path class="cls-1" d="M347.671,503.19q-5.215-7.714-10.14-1.622"/><path class="cls-1" d="M354.364,513.938l-7.3,1.623"/><path class="cls-1" d="M361.259,525.092,357,520.833"/><path class="cls-1" d="M355.58,520.833q-.3.2-.608.406"/><path class="cls-1" d="M353.147,522.456q-6.935,8.875-14.805,1.217"/><path class="cls-1" d="M334.084,522.05l-.609-.4"/><path class="cls-1" d="M331.65,520.428c-2.369-1.519-4.788-2.914-7.706-3.042"/><path class="cls-1" d="M340.979,557.743q.608-1.116,1.217-2.231"/><path class="cls-1" d="M343.818,555.309l9.532,4.259"/><path class="cls-1" d="M359.231,500.959l-3.042-1.217"/><path class="cls-1" d="M353.755,500.351l-.608.608"/><path class="cls-1" d="M351.524,501.77l-1.419.812"/><path class="cls-1" d="M346.657,503.8l-2.433,1.42"/><path class="cls-1" d="M372.818,522.05a17.928,17.928,0,0,0-4.461-4.056"/><path class="cls-1" d="M366.937,516.778c-.988-.729-1.715-1.978-3.245-1.623"/><path class="cls-1" d="M356.8,539.491l-3.042,1.217"/><path class="cls-1" d="M352.336,541.113l-1.42.812"/><path class="cls-1" d="M349.5,543.141q-.81.711-1.622,1.42"/><path class="cls-1" d="M346.657,547.2q-1.825,3.751-3.65,7.5"/><path class="cls-1" d="M334.9,500.756q-6.073-5.313-11.56,4.665"/><path class="cls-1" d="M175.9,498.323q-4.656,1.35-9.329,2.636"/><path class="cls-1" d="M347.468,545.778q15.421,2.943,6.49,13.384"/><path class="cls-1" d="M353.552,560.582l-.608,1.622"/><path class="cls-1" d="M338.342,537.666l8.924,7.3"/><path class="cls-1" d="M360.042,540.911l3.042,1.825"/><path class="cls-1" d="M363.287,542.939q10.938,7.867-4.665,8.72"/><path class="cls-1" d="M341.587,494.267c-2.7,2.061-5.972,2.594-9.126,3.447"/><path class="cls-1" d="M328.811,543.344c-3.919-2.012-12.114-7.3-17.035-7.3"/><path class="cls-1" d="M408.714,349.672l1.419,1.216"/><path class="cls-1" d="M411.958,353.322l3.448,3.853"/><path class="cls-1" d="M335.3,537.869a35.013,35.013,0,0,0-8.517,10.748"/><path class="cls-1" d="M339.154,502.987a18,18,0,0,1-7.3,7.1"/><path class="cls-1" d="M315.426,523.673l-.811,1.419"/><path class="cls-1" d="M314.412,525.295a15.572,15.572,0,0,0-4.664,6.9"/><path class="cls-1" d="M356.189,506.84a5.416,5.416,0,0,0,4.258-4.867"/><path class="cls-1" d="M359.231,500.148q-5.646-8.811-6.895-4.056"/><path class="cls-1" d="M326.175,527.729a10.7,10.7,0,0,0-8.112-3.448"/><path class="cls-1" d="M352.944,505.015a10.944,10.944,0,0,0,4.664,7.909"/><path class="cls-1" d="M323.944,515.764a14.616,14.616,0,0,0-6.084,9.531"/><path class="cls-1" d="M317.251,511.505q7.451-10.312,15.008.608"/><path class="cls-1" d="M345.238,517.589a40.415,40.415,0,0,0-7.3,5.678"/><path class="cls-1" d="M343.21,494.267l6.9,5.678"/><path class="cls-1" d="M362.07,503.393l4.461,3.245"/><path class="cls-1" d="M366.734,506.638q3.346.974,1.014,2.839"/><path class="cls-1" d="M362.678,514.141A14.292,14.292,0,0,0,357,520.022"/><path class="cls-1" d="M323.133,548.617l1.419.2"/><path class="cls-1" d="M324.755,550.036l-6.084,3.245"/><path class="cls-1" d="M374.441,502.176l-6.693,4.259"/><path class="cls-1" d="M176.509,499.134l4.179-1.567c-2.172-1.062-17.072,7.42-16.347,6.84"/><path class="cls-1" d="M325.972,533a7.075,7.075,0,0,0-5.273,5.882"/><path class="cls-1" d="M349.091,358.189l-.609.406"/><path class="cls-1" d="M346.657,359l-1.622.811"/><path class="cls-1" d="M439.336,373.4q-2.721,1.446.609,5.273"/><path class="cls-1" d="M440.35,383.742a17.346,17.346,0,0,1,1.42,6.489"/><path class="cls-1" d="M378.7,537.869c-.951,1.18-2.094.817-3.244.4"/><path class="cls-1" d="M336.112,489.6l5.475,3.853"/><path class="cls-1" d="M322.93,505.218a7.847,7.847,0,0,0-5.07-3.245"/><path class="cls-1" d="M382.553,529.757a5.42,5.42,0,0,0-4.665-2.84"/><path class="cls-1" d="M366.126,502.176q-2.007-2.34-4.056.811"/><path class="cls-1" d="M456.777,523.064l-2.028.609"/><path class="cls-1" d="M452.924,522.861h-2.231"/><path class="cls-1" d="M340.776,504.812q5.575-.182,1.014,2.637"/><path class="cls-1" d="M310.559,522.456l7.1,1.622"/><path class="cls-1" d="M381.944,344.2a3.276,3.276,0,0,1-3.447.608"/><path class="cls-1" d="M184.013,495.281q-1.927,1.114-3.853,2.231"/><path class="cls-1" d="M405.874,445.392l-4.258,1.217"/><path class="cls-1" d="M399.182,447.218l-.811.2"/><path class="cls-1" d="M396.546,447.42q-.17,1.431-1.42.406"/><path class="cls-1" d="M348.28,338.315h-3.651"/><path class="cls-1" d="M407.091,346.021l.811,1.014"/><path class="cls-1" d="M189.488,491.022l-3.042,2.636"/><path class="cls-1" d="M440.553,412.134a2.748,2.748,0,0,0-.2,3.244"/><path class="cls-1" d="M358.42,341.56l-3.245-1.623"/><path class="cls-1" d="M168.8,533.407q1.461,4.992,5.273,1.217"/><path class="cls-1" d="M230.251,493.456h-3.245"/><path class="cls-1" d="M355.58,357.784a45.647,45.647,0,0,0,10.14,3.244"/><path class="cls-1" d="M393.706,343.385c-.921.312-2.056-.876-2.839.405"/><path class="cls-1" d="M145.887,509.882l-3.651,1.217"/><path class="cls-1" d="M437.308,368.735a2.075,2.075,0,0,0,.406,2.839"/><path class="cls-1" d="M325.566,550.239v2.637"/><path class="cls-1" d="M434.266,365.9l1.623,2.028"/><path class="cls-1" d="M440.756,422.679a8.914,8.914,0,0,1-2.839,4.664"/><path class="cls-1" d="M433.455,364.273l-3.65-.608"/><path class="cls-1" d="M261.482,487.169l.4,2.434"/><path class="cls-1" d="M413.783,439.106l-1.825,1.419"/><path class="cls-1" d="M341.384,504.2l-1.014-.811"/><path class="cls-1" d="M338.545,502.582l-3.245-1.623"/><path class="cls-1" d="M369.168,351.294l-.2,2.028"/><path class="cls-1" d="M341.79,336.287l1.622,1.217"/><path class="cls-1" d="M173.873,527.729l-1.825.608"/><path class="cls-1" d="M369.168,348.252v1.622"/><path class="cls-1" d="M432.847,434.847l-1.623.608"/><path class="cls-1" d="M408.714,443.567l-1.217,1.014"/><path class="cls-1" d="M343.007,365.9l-1.217,1.217"/><path class="cls-1" d="M308.125,507.854l1.623.609"/><path class="cls-1" d="M420.679,438.7l-1.42-.2"/><path class="cls-1" d="M437.917,371.979l.608,1.42"/><path class="cls-1" d="M349.7,530.973l-1.419.609"/><path class="cls-1" d="M429.805,436.064l-1.42,1.014"/><path class="cls-1" d="M346.252,527.323q-.2.609-.406,1.217"/><path class="cls-1" d="M440.958,398.952l-.2,1.014"/><path class="cls-1" d="M353.958,358.6a1.449,1.449,0,0,0-2.028,0"/><path class="cls-1" d="M401.007,343.993c-.18.225.467,1.278-.608.609"/><path class="cls-1" d="M372.21,346.427H371.4"/><path class="cls-1" d="M383.364,343.385h-.811"/><path class="cls-1" d="M441.972,400.777c-.925.35-.83.847-.2,1.419"/><path class="cls-1" d="M440.958,395.3q-.4.371,0,.609"/><path class="cls-1" d="M374.441,346.224l-.609.2"/><path class="cls-1" d="M361.056,359.2q.4.37,0,.608"/><path class="cls-1" d="M352.336,338.72l.4.406"/><path class="cls-1" d="M422.909,437.686l.406.406"/></svg>