<?xml version="1.0" encoding="utf-8"?>
<!-- Generator: Adobe Illustrator 22.0.1, SVG Export Plug-In . SVG Version: 6.00 Build 0)  -->
<svg version="1.1" id="Layer_2_1_" xmlns="http://www.w3.org/2000/svg" xmlns:xlink="http://www.w3.org/1999/xlink" x="0px" y="0px" width="180px" height="180.3px"
	 viewBox="0 0 180 180.3" style="enable-background:new 0 0 180 180.3;" xml:space="preserve">
<path d="M153.6,110.7c-6.8-11.7-17.5-11.8-18.8-11.8v0l45.2-9.4l-45.2-9.4v0c0.5-0.4,9.2-8.2,22.4-8.4c10-0.1,18.5-12.3,13.1-21.7
	c0,0-1.6,14.7-20.2,9.8c-13-3.4-20.7,4-21.6,5c0,0,0,0,0,0l25.3-38.6l-38.6,25.3c0,0,0,0,0,0c0-0.6,0.7-12.3,9.9-21.8
	c6.9-7.1,4.4-21.8-6.1-24.5c0,0,9.2,11.5-7.3,21.2C100,33.1,99.9,43.9,99.9,45.2h0L90.5,0l-9.4,45.2c0,0,0,0,0,0
	c-0.4-0.4-8.2-9.2-8.4-22.4C72.5,12.8,60.4,4.2,51,9.7c0,0,14.7,1.6,9.8,20.2c-3.4,13.1,4.1,20.7,5,21.6c0,0,0,0,0,0L27.2,26.2
	l20.6,31.5l4.7,7.1c0,0,0,0,0,0c-0.4,0-12.2-0.7-21.8-9.9C23.6,48,8.9,50.5,6.2,61c0,0,11.5-9.2,21.2,7.3
	C34.1,80,44.9,80.1,46.2,80.1c0,0,0,0,0,0L1,89.5l45.2,9.4v0c-0.3,0.3-9.1,8.2-22.4,8.4c-9.9,0.1-18.5,12.3-13.1,21.7
	c0,0,1.6-14.7,20.2-9.8c13.1,3.5,20.8-4.1,21.6-5c0,0,0,0,0,0l-25.3,38.6l38.6-25.3c0,0.4-0.7,12.2-9.9,21.8
	c-6.9,7.1-4.4,21.8,6.1,24.5c0,0-9.2-11.5,7.3-21.2c11.7-6.8,11.8-17.6,11.8-18.8c0,0,0,0,0,0l9.4,45.2l9.4-45.2v0
	c0.3,0.4,8.2,9.2,8.4,22.4c0.1,9.9,12.3,18.5,21.7,13.1c0,0-14.7-1.6-9.8-20.2c3.4-13.1-4.1-20.7-5-21.6c0,0,0,0,0,0l38.6,25.3
	l-13.3-20.4l-11.9-18.2c0.5,0,12.3,0.7,21.8,9.9c7.1,6.9,21.8,4.4,24.5-6.1C174.8,118.1,163.3,127.3,153.6,110.7"/>
</svg>
